<svg xmlns="http://www.w3.org/2000/svg" viewBox="0 0 171.9 205.05"><defs><style>.cls-1{fill:#dc3e15;}</style></defs><g id="Layer_2" data-name="Layer 2"><g id="Layer_1-2" data-name="Layer 1"><path class="cls-1" d="M110.37,179.67c.31-2,.39-144.41.09-147.52L37.82,49.45V149.87L.44,164.47l-.22-.11s-.12-.1-.13-.16A10.54,10.54,0,0,1,0,163.07Q0,102.22,0,41.44a3.68,3.68,0,0,1,1.9-1L108.63.49a5.48,5.48,0,0,1,3.71-.28q29.28,8.49,58.59,16.88l1,.32v171c-5.61,1.56-11.17,3.12-16.73,4.65q-21.24,5.87-42.49,11.72a6,6,0,0,1-4-.14q-52.48-19.4-105-38.72a4.65,4.65,0,0,1-1.95-1.16l108.58,14.9Z"/></g></g></svg>