<svg xmlns="http://www.w3.org/2000/svg" viewBox="0 0 32 32"><path d="M27,9.1A9,9,0,0,0,18,1H14A9,9,0,0,0,5.05,9.1,5,5,0,0,0,1,14V26a5,5,0,0,0,5,5H26a5,5,0,0,0,5-5V14A5,5,0,0,0,27,9.1ZM14,3h4a7,7,0,0,1,6.92,6H7.08A7,7,0,0,1,14,3ZM6,11H26a3,3,0,0,1,3,3v3H27V16a2,2,0,0,0-2-2H23a2,2,0,0,0-2,2v1H11V16a2,2,0,0,0-2-2H7a2,2,0,0,0-2,2v1H3V14A3,3,0,0,1,6,11Zm19,9H23V16h2v2h0ZM9,20H7V16H9v2H9Zm17,9H6a3,3,0,0,1-3-3V19H5v1a2,2,0,0,0,2,2H9a2,2,0,0,0,2-2V19H21v1a2,2,0,0,0,2,2h2a2,2,0,0,0,2-2V19h2v7A3,3,0,0,1,26,29Z"/></svg>