<svg id="Layer_1" data-name="Layer 1" xmlns="http://www.w3.org/2000/svg" viewBox="0 0 90.65 90.55"><defs><style>.cls-1{fill:#6d7249;}.cls-2{fill:#fcfcfc;}.cls-3{fill:#fafaf9;}.cls-4{fill:#cea137;}.cls-5{fill:#fbfbfa;}.cls-6{fill:#f4f4f1;}.cls-7{fill:#f1f1ed;}.cls-8{fill:#edede8;}.cls-9{fill:#f0f1ec;}</style></defs><path class="cls-1" d="M77.85,282.32c-.1-24,18.82-44.23,41.5-44.89,28.79-.84,49.29,18.74,49.15,45.36a45.33,45.33,0,1,1-90.65-.47Zm73.41-12.77-.73.23a2.66,2.66,0,0,0-.27.63c-1.26,10.85-6.25,19.75-14.15,27.13-8.4,7.85-18.62,12.13-29.61,14.87-.88.22-1.75.5-2.63.75l.1.71c.85.05,1.7.14,2.55.14,8.29,0,16.59,0,24.88,0,10.59,0,10.63,0,16.38-9,6-9.49,8.63-19.62,5.28-30.74C152.58,272.66,151.87,271.12,151.26,269.55ZM112.4,284.14a4.78,4.78,0,0,0-4.82-4.92,4.9,4.9,0,0,0-4.7,4.84c0,2.28,2.54,5.25,4.41,5.16A5.29,5.29,0,0,0,112.4,284.14Zm0-14.92a4.74,4.74,0,0,0-4.73-5,5.1,5.1,0,0,0-4.8,4.8,5,5,0,0,0,4.87,4.92A4.66,4.66,0,0,0,112.43,269.22Zm0-15.07a4.76,4.76,0,0,0-4.58-4.89,5.29,5.29,0,0,0-4.91,5,5.22,5.22,0,0,0,4.76,4.85A4.71,4.71,0,0,0,112.39,254.15Zm18,7.51a4.72,4.72,0,0,0-4.85-4.88,5.21,5.21,0,0,0-4.66,5,5.08,5.08,0,0,0,4.73,4.86A4.76,4.76,0,0,0,130.35,261.66Zm8,7.28a5.34,5.34,0,0,0,4.53,5.12,5.23,5.23,0,0,0,5.29-4.59c.22-2.33-2.29-5.05-4.76-5.16C141.13,264.2,138.5,266.61,138.34,268.94Zm-12.81,2.64a4.56,4.56,0,0,0-4.77,4.59,4.62,4.62,0,0,0,4.67,4.94,4.77,4.77,0,1,0,.1-9.53Zm-12.68-12.34-.7.29c-.46,2.43,2.45,3.22,2.92,5.25l-1,1.35c.3.21.71.67.9.6,2.24-.94,2.53,1.12,3.6,2.17-.43.61-.69,1.36-1.21,1.63-.87.46-2.24.33-2.76,1s0,2-.33,2.86c-.5,1.1-1.55,1.93-2.2,3-.22.36,0,1,.08,1.52,2.83-1.09,2.68-5.48,7-4.46L118,271.7l3.25-1.19a12.76,12.76,0,0,0,.08-2.47,1.72,1.72,0,0,0-.92-1.15,11.09,11.09,0,0,0-2.33-.41c.54-1.14.82-1.67,1-2.22a6.73,6.73,0,0,0-.92-.46,8.62,8.62,0,0,1-2.53-1.15A31.14,31.14,0,0,1,112.85,259.24Zm1.77-3c-.36,1.53,1.21,2.54,4.46,2.89C118.94,257.65,118.47,257.34,114.62,256.26Zm-.41,24.83c2,1.28,3.42-.51,5.09-1.27C117.31,278.45,115.91,280.38,114.21,281.09Zm23-15,0-.59a35.76,35.76,0,0,0-3.8-1.57c-.31-.1-.85.5-1.29.78a34.44,34.44,0,0,0,3.45,1.7C136,266.58,136.63,266.21,137.19,266.09Zm-.46,5-4.93,2.11V274c.58.06,1.32.38,1.69.13C134.6,273.36,136.86,273.81,136.73,271.13Z" transform="translate(-77.85 -237.41)"/><path class="cls-2" d="M151.26,269.55c.61,1.57,1.32,3.11,1.8,4.72,3.35,11.12.73,21.25-5.28,30.74-5.75,9.07-5.79,9-16.38,9-8.29,0-16.59,0-24.88,0-.85,0-1.7-.09-2.55-.14l-.1-.71c.88-.25,1.75-.53,2.63-.75,11-2.74,21.21-7,29.61-14.87,7.9-7.38,12.89-16.28,14.15-27.13a2.66,2.66,0,0,1,.27-.63Z" transform="translate(-77.85 -237.41)"/><path class="cls-3" d="M112.4,284.14a5.29,5.29,0,0,1-5.11,5.08c-1.87.09-4.41-2.88-4.41-5.16a4.9,4.9,0,0,1,4.7-4.84A4.78,4.78,0,0,1,112.4,284.14Z" transform="translate(-77.85 -237.41)"/><path class="cls-3" d="M112.43,269.22a4.66,4.66,0,0,1-4.66,4.76,5,5,0,0,1-4.87-4.92,5.1,5.1,0,0,1,4.8-4.8A4.74,4.74,0,0,1,112.43,269.22Z" transform="translate(-77.85 -237.41)"/><path class="cls-4" d="M112.39,254.15a4.71,4.71,0,0,1-4.73,5,5.22,5.22,0,0,1-4.76-4.85,5.29,5.29,0,0,1,4.91-5A4.76,4.76,0,0,1,112.39,254.15Z" transform="translate(-77.85 -237.41)"/><path class="cls-4" d="M130.35,261.66a4.76,4.76,0,0,1-4.78,4.94,5.08,5.08,0,0,1-4.73-4.86,5.21,5.21,0,0,1,4.66-5A4.72,4.72,0,0,1,130.35,261.66Z" transform="translate(-77.85 -237.41)"/><path class="cls-4" d="M138.34,268.94c.16-2.33,2.79-4.74,5.06-4.63,2.47.11,5,2.83,4.76,5.16a5.23,5.23,0,0,1-5.29,4.59A5.34,5.34,0,0,1,138.34,268.94Z" transform="translate(-77.85 -237.41)"/><path class="cls-5" d="M125.53,271.58a4.77,4.77,0,1,1-.1,9.53,4.62,4.62,0,0,1-4.67-4.94A4.56,4.56,0,0,1,125.53,271.58Z" transform="translate(-77.85 -237.41)"/><path class="cls-6" d="M112.85,259.24a31.14,31.14,0,0,0,2.82,3.41,8.62,8.62,0,0,0,2.53,1.15,6.73,6.73,0,0,1,.92.46c-.19.55-.47,1.08-1,2.22a11.09,11.09,0,0,1,2.33.41,1.72,1.72,0,0,1,.92,1.15,12.76,12.76,0,0,1-.08,2.47L118,271.7l1.1,2.69c-4.28-1-4.13,3.37-7,4.46,0-.49-.3-1.16-.08-1.52.65-1.05,1.7-1.88,2.2-3,.38-.84-.18-2.24.33-2.86s1.89-.5,2.76-1c.52-.27.78-1,1.21-1.63-1.07-1-1.36-3.11-3.6-2.17-.19.07-.6-.39-.9-.6l1-1.35c-.47-2-3.38-2.82-2.92-5.25Z" transform="translate(-77.85 -237.41)"/><path class="cls-7" d="M114.62,256.26c3.85,1.08,4.32,1.39,4.46,2.89C115.83,258.8,114.26,257.79,114.62,256.26Z" transform="translate(-77.85 -237.41)"/><path class="cls-8" d="M114.21,281.09c1.7-.71,3.1-2.64,5.09-1.27C117.63,280.58,116.19,282.37,114.21,281.09Z" transform="translate(-77.85 -237.41)"/><path class="cls-7" d="M137.19,266.09c-.56.12-1.21.49-1.66.32a34.44,34.44,0,0,1-3.45-1.7c.44-.28,1-.88,1.29-.78a35.76,35.76,0,0,1,3.8,1.57Z" transform="translate(-77.85 -237.41)"/><path class="cls-9" d="M136.73,271.13c.13,2.68-2.13,2.23-3.24,3-.37.25-1.11-.07-1.69-.13v-.74Z" transform="translate(-77.85 -237.41)"/></svg>