<svg xmlns="http://www.w3.org/2000/svg" xmlns:xlink="http://www.w3.org/1999/xlink" viewBox="0 0 2412.29 2000"><defs><style>.cls-1{mask:url(#mask);}.cls-2,.cls-4,.cls-6,.cls-7{mix-blend-mode:multiply;}.cls-2{fill:url(#linear-gradient);}.cls-3{mask:url(#mask-2);}.cls-4{fill:url(#linear-gradient-2);}.cls-5{mask:url(#mask-3);}.cls-6{fill:url(#linear-gradient-3);}.cls-7{fill:url(#linear-gradient-4);}.cls-8{isolation:isolate;}.cls-9{fill:#e0e0e0;}.cls-10{fill:#d9d9d9;}.cls-11{fill:#b8b8b8;}.cls-12{opacity:0.43;}.cls-13{fill:url(#linear-gradient-5);}.cls-14{opacity:0.22;}.cls-15{fill:url(#linear-gradient-6);}.cls-16{fill:url(#linear-gradient-7);}.cls-17{fill:url(#linear-gradient-8);}.cls-18{fill:url(#linear-gradient-9);}.cls-19{fill:#ff8557;}.cls-20{fill:#0064b5;}.cls-21{fill:#004e8c;}.cls-22{fill:url(#linear-gradient-10);}.cls-23{fill:#6a75ba;}.cls-24{fill:#545d94;}.cls-25{fill:#eea886;}.cls-26{fill:#d9d3c8;}.cls-27{fill:#222538;}.cls-28{fill:#ffc955;}.cls-29{fill:#a77860;}.cls-30{fill:#c29941;}.cls-31{fill:#fff;}.cls-32{mask:url(#mask-5);}.cls-33{fill:url(#linear-gradient-11);}.cls-34{mask:url(#mask-6);}.cls-35{fill:url(#linear-gradient-12);}.cls-36{mask:url(#mask-7);}.cls-37{fill:url(#linear-gradient-13);}.cls-38{mask:url(#mask-8);}.cls-39{fill:url(#linear-gradient-14);}.cls-40{fill:#c5c6cf;}.cls-41{fill:#e2e3ed;}.cls-42{fill:#eea987;}.cls-43{fill:#e6d3cd;}.cls-44{fill:#3c4145;}.cls-45{fill:#163342;}.cls-46{fill:#efaa88;}.cls-47,.cls-49{mix-blend-mode:hard-light;}.cls-47{fill:url(#linear-gradient-15);}.cls-48{opacity:0.76;}.cls-49{fill:url(#linear-gradient-16);}.cls-50{fill:url(#linear-gradient-17);}.cls-51{fill:url(#linear-gradient-18);}.cls-52{fill:url(#linear-gradient-19);}.cls-53{fill:url(#linear-gradient-20);}.cls-54{fill:#007bde;}.cls-55{fill:url(#linear-gradient-21);}.cls-56{fill:url(#linear-gradient-22);}.cls-57{fill:url(#linear-gradient-23);}.cls-58{fill:url(#linear-gradient-24);}.cls-59{fill:#db9c7c;}.cls-60{fill:#4c5385;}.cls-61{fill:#ead8cf;}.cls-62{fill:#da9b5b;}.cls-63{fill:#424773;}.cls-64{fill:#292c47;}.cls-65{fill:#353a3d;}.cls-66{fill:#e2d2ca;}.cls-67{fill:#323657;}.cls-68{fill:#81807e;}.cls-69{fill:#2d3133;}.cls-70{fill:#decbc4;}.cls-71{fill:#495055;}.cls-72{fill:#51565c;}.cls-73{fill:#f5e2d9;}.cls-74{fill:#ad9f99;}.cls-75{fill:#69737a;}.cls-76{fill:#d9c9c2;}.cls-77{fill:#898fbf;}.cls-78{fill:#152b3d;}.cls-79{fill:#ffc05c;}.cls-80{fill:#254380;}.cls-81{fill:#e55353;}.cls-82{filter:url(#luminosity-noclip-8);}.cls-83{filter:url(#luminosity-noclip-7);}.cls-84{filter:url(#luminosity-noclip-6);}.cls-85{filter:url(#luminosity-noclip-5);}.cls-86{filter:url(#luminosity-noclip-3);}.cls-87{filter:url(#luminosity-noclip-2);}.cls-88{filter:url(#luminosity-noclip);}</style><filter id="luminosity-noclip" x="378.48" y="-9192" width="99.79" height="32766" filterUnits="userSpaceOnUse" color-interpolation-filters="sRGB"><feFlood flood-color="#fff" result="bg"/><feBlend in="SourceGraphic" in2="bg"/></filter><mask id="mask" x="378.48" y="-9192" width="99.79" height="32766" maskUnits="userSpaceOnUse"><g class="cls-88"/></mask><linearGradient id="linear-gradient" x1="423.47" y1="808.31" x2="431.87" y2="1214.52" gradientUnits="userSpaceOnUse"><stop offset="0" stop-color="#fff"/><stop offset="1"/></linearGradient><filter id="luminosity-noclip-2" x="342.73" y="-9192" width="41.59" height="32766" filterUnits="userSpaceOnUse" color-interpolation-filters="sRGB"><feFlood flood-color="#fff" result="bg"/><feBlend in="SourceGraphic" in2="bg"/></filter><mask id="mask-2" x="342.73" y="-9192" width="41.59" height="32766" maskUnits="userSpaceOnUse"><g class="cls-87"/></mask><linearGradient id="linear-gradient-2" x1="358.65" y1="809.66" x2="367.05" y2="1215.86" xlink:href="#linear-gradient"/><filter id="luminosity-noclip-3" x="2419.55" y="-9192" width="84.72" height="32766" filterUnits="userSpaceOnUse" color-interpolation-filters="sRGB"><feFlood flood-color="#fff" result="bg"/><feBlend in="SourceGraphic" in2="bg"/></filter><mask id="mask-3" x="2419.55" y="-9192" width="84.72" height="32766" maskUnits="userSpaceOnUse"><g class="cls-86"/></mask><linearGradient id="linear-gradient-3" x1="2508.55" y1="6.81" x2="2411.09" y2="371.39" gradientTransform="translate(4923.82 362.57) rotate(-180)" xlink:href="#linear-gradient"/><linearGradient id="linear-gradient-4" x1="2494.27" y1="31.74" x2="2418.78" y2="314.1" gradientTransform="translate(4923.82 305.55) rotate(-180)" xlink:href="#linear-gradient"/><linearGradient id="linear-gradient-5" x1="931.39" y1="1309.6" x2="2505.48" y2="1309.6" gradientUnits="userSpaceOnUse"><stop offset="0" stop-color="#ffc05c"/><stop offset="1" stop-color="#ff3857"/></linearGradient><linearGradient id="linear-gradient-6" x1="931.39" y1="1267" x2="2506.31" y2="1267" gradientUnits="userSpaceOnUse"><stop offset="0" stop-color="#40d5e6"/><stop offset="1" stop-color="#57f"/></linearGradient><linearGradient id="linear-gradient-7" x1="1478.21" y1="767.97" x2="2039.62" y2="767.97" gradientUnits="userSpaceOnUse"><stop offset="0" stop-color="#8fd6ff"/><stop offset="1" stop-color="#bfebfe"/></linearGradient><linearGradient id="linear-gradient-8" x1="1468.88" y1="695.89" x2="2028.46" y2="695.89" xlink:href="#linear-gradient-7"/><linearGradient id="linear-gradient-9" x1="1915.66" y1="518.19" x2="1599.24" y2="1419.67" gradientUnits="userSpaceOnUse"><stop offset="0" stop-color="#c6cbcf"/><stop offset="1" stop-color="#f8f1fe"/></linearGradient><linearGradient id="linear-gradient-10" x1="1733.23" y1="1442.39" x2="2307.11" y2="2254.85" xlink:href="#linear-gradient-9"/><filter id="luminosity-noclip-5" x="378.48" y="1021.37" width="99.79" height="48.5" filterUnits="userSpaceOnUse" color-interpolation-filters="sRGB"><feFlood flood-color="#fff" result="bg"/><feBlend in="SourceGraphic" in2="bg"/></filter><mask id="mask-5" x="35.75" y="1021.37" width="99.79" height="48.5" maskUnits="userSpaceOnUse"><g class="cls-85"><g transform="translate(-342.73)"><g class="cls-1"><polygon class="cls-2" points="401.87 1069.88 478.27 1069.88 454.88 1021.37 378.48 1021.37 401.87 1069.88"/></g></g></g></mask><linearGradient id="linear-gradient-11" x1="80.73" y1="808.31" x2="89.14" y2="1214.52" xlink:href="#linear-gradient-6"/><filter id="luminosity-noclip-6" x="342.73" y="1021.37" width="41.59" height="48.5" filterUnits="userSpaceOnUse" color-interpolation-filters="sRGB"><feFlood flood-color="#fff" result="bg"/><feBlend in="SourceGraphic" in2="bg"/></filter><mask id="mask-6" x="0" y="1021.37" width="41.59" height="48.5" maskUnits="userSpaceOnUse"><g class="cls-84"><g transform="translate(-342.73)"><g class="cls-3"><polygon class="cls-4" points="366.12 1069.88 384.32 1069.88 360.94 1021.37 342.73 1021.37 366.12 1069.88"/></g></g></g></mask><linearGradient id="linear-gradient-12" x1="15.91" y1="809.66" x2="24.32" y2="1215.86" xlink:href="#linear-gradient-6"/><filter id="luminosity-noclip-7" x="2419.55" y="164.95" width="84.72" height="32.68" filterUnits="userSpaceOnUse" color-interpolation-filters="sRGB"><feFlood flood-color="#fff" result="bg"/><feBlend in="SourceGraphic" in2="bg"/></filter><mask id="mask-7" x="2076.82" y="164.95" width="84.72" height="32.68" maskUnits="userSpaceOnUse"><g class="cls-83"><g transform="translate(-342.73)"><g class="cls-5"><rect class="cls-6" x="2419.55" y="164.95" width="84.72" height="32.68" transform="translate(4923.82 362.57) rotate(180)"/></g></g></g></mask><linearGradient id="linear-gradient-13" x1="2508.55" y1="6.81" x2="2411.09" y2="371.39" gradientTransform="translate(4923.82 362.57) rotate(-180)" xlink:href="#linear-gradient-6"/><filter id="luminosity-noclip-8" x="2419.55" y="149.7" width="84.72" height="6.15" filterUnits="userSpaceOnUse" color-interpolation-filters="sRGB"><feFlood flood-color="#fff" result="bg"/><feBlend in="SourceGraphic" in2="bg"/></filter><mask id="mask-8" x="2076.82" y="149.7" width="84.72" height="6.15" maskUnits="userSpaceOnUse"><g class="cls-82"><g transform="translate(-342.73)"><g class="cls-5"><rect class="cls-7" x="2419.55" y="149.7" width="84.72" height="6.15" transform="translate(4923.82 305.55) rotate(180)"/></g></g></g></mask><linearGradient id="linear-gradient-14" x1="2494.27" y1="31.74" x2="2418.78" y2="314.1" gradientTransform="translate(4923.82 305.55) rotate(-180)" xlink:href="#linear-gradient-6"/><linearGradient id="linear-gradient-15" x1="534.91" y1="1335.92" x2="534.91" y2="3823.38" gradientUnits="userSpaceOnUse"><stop offset="0" stop-color="#44607d"/><stop offset="1" stop-color="#f5f5f5"/></linearGradient><linearGradient id="linear-gradient-16" x1="534.91" y1="798.61" x2="534.91" y2="2542.77" gradientUnits="userSpaceOnUse"><stop offset="0" stop-color="#626e7a"/><stop offset="1" stop-color="#f5f5f5"/></linearGradient><linearGradient id="linear-gradient-17" x1="507.92" y1="1129.55" x2="527.62" y2="1129.55" gradientUnits="userSpaceOnUse"><stop offset="0" stop-color="#d5e4ff"/><stop offset="1" stop-color="#edfffe"/></linearGradient><linearGradient id="linear-gradient-18" x1="542.5" y1="1114.96" x2="562.19" y2="1114.96" xlink:href="#linear-gradient-17"/><linearGradient id="linear-gradient-19" x1="578.79" y1="1122.59" x2="598.48" y2="1122.59" xlink:href="#linear-gradient-17"/><linearGradient id="linear-gradient-20" x1="616.07" y1="1140.32" x2="635.76" y2="1140.32" xlink:href="#linear-gradient-17"/><linearGradient id="linear-gradient-21" x1="654.02" y1="1147.56" x2="673.72" y2="1147.56" xlink:href="#linear-gradient-17"/><linearGradient id="linear-gradient-22" x1="688.6" y1="1120.55" x2="708.29" y2="1120.55" xlink:href="#linear-gradient-17"/><linearGradient id="linear-gradient-23" x1="724.88" y1="1132.24" x2="744.58" y2="1132.24" xlink:href="#linear-gradient-17"/><linearGradient id="linear-gradient-24" x1="762.17" y1="1103.89" x2="781.86" y2="1103.89" xlink:href="#linear-gradient-17"/></defs><g class="cls-8"><g id="Слой_1" data-name="Слой 1"><rect class="cls-9" x="979.41" y="1030.25" width="5.53" height="580.67"/><rect class="cls-9" x="1372.93" y="1030.25" width="5.54" height="580.67"/><rect class="cls-9" x="1766.45" y="1030.25" width="5.53" height="580.67"/><rect class="cls-10" x="588.65" y="958.7" width="94.26" height="15.14"/><rect class="cls-10" x="588.65" y="986.68" width="133.7" height="15.14"/><rect class="cls-10" x="977.93" y="958.7" width="110.66" height="15.14"/><rect class="cls-10" x="977.93" y="986.68" width="70.76" height="15.14"/><rect class="cls-10" x="1378.47" y="958.7" width="68.57" height="15.14"/><rect class="cls-10" x="1378.47" y="986.68" width="79.92" height="15.14"/><rect class="cls-10" x="1771.99" y="958.7" width="99.89" height="15.14"/><rect class="cls-10" x="1771.99" y="986.68" width="79.93" height="15.14"/><rect class="cls-11" x="982.18" y="1645.32" width="62.61" height="20.18"/><rect class="cls-11" x="1378.47" y="1645.32" width="62.61" height="20.18"/><rect class="cls-11" x="1771.99" y="1645.32" width="62.61" height="20.18"/><rect class="cls-11" x="2165.51" y="1645.32" width="62.61" height="20.18"/><g class="cls-12"><path class="cls-13" d="M2369.1,1438.39c-122.74,0-229.44-53.06-340.67-108.37-137.32-68.29-279.32-138.9-468.51-119.57-120.81,12.35-196.64,61.55-263.55,105-60.57,39.3-117.85,73.86-195.41,76.82-125.36,4.77-168.85-48.7-169.57-52V1306h0c.15.59,27.52,60.6,169.44,59.89,69.88-.35,121.46-33.82,181.19-72.57,69.4-45,148.07-96.07,275.21-109.07,196.78-20.11,342.26,52.23,482.94,122.19,147.21,73.2,287.68,141.85,465.31,82.29v28.21C2454.85,1433.88,2414.35,1438.39,2369.1,1438.39Z" transform="translate(-342.73)"/></g><g class="cls-14"><path class="cls-15" d="M1632.35,1431.82c-90.6,0-162.46-60.93-232.81-120.58C1346.2,1266,1290.86,1219.78,1227,1197c-195-69.6-294.7,57.5-295.59,58.62v-38.67c1.05-1.32,18.84-24.42,70.31-46.48,46.87-20.08,125.49-36.1,233.94,1.62,68.71,23.9,125.77,72.28,181,119.06,111.94,94.91,208.62,176.88,376.51,48.49,127.17-97.24,247-189.9,365-223.76,115.36-33.11,235.63-8.87,348.21,103.71l-.83,35.11c-239.14-240.19-442.76-88-696.35,105.89C1742,1411.93,1684.09,1431.81,1632.35,1431.82Z" transform="translate(-342.73)"/></g><polygon class="cls-16" points="1482.21 891.54 1478.21 886.85 1544.5 830.38 1584.76 830.38 1676.11 752.56 1733.24 801.23 1775.37 801.23 1796.66 819.37 1862.82 763.01 1896.4 763.01 2035.62 644.4 2039.62 649.09 1898.67 769.17 1865.09 769.17 1796.66 827.46 1773.1 807.39 1730.97 807.39 1676.11 760.65 1587.03 836.54 1546.77 836.54 1482.21 891.54"/><polygon class="cls-17" points="1491.79 813.53 1468.88 813.53 1468.88 807.37 1489.23 807.37 1523.64 772.97 1548.65 797.99 1608.4 738.23 1626.78 756.61 1687.36 696.03 1723.67 732.33 1765.06 732.33 1828.95 668.45 1884.04 668.45 1924.78 627.71 1974.63 627.71 2024.11 578.24 2028.46 582.6 1977.19 633.88 1927.33 633.88 1886.6 674.61 1831.5 674.61 1767.61 738.49 1721.12 738.49 1687.36 704.74 1626.78 765.32 1608.4 746.95 1548.65 806.7 1523.64 781.68 1491.79 813.53"/><path class="cls-18" d="M2446.34,827.54c0-.13-.07-.27-.11-.4-58.92-205.48-206-381.11-409.14-471.49h0a740.34,740.34,0,0,0-391.54-58.73l-.25,0-.13,0A736.54,736.54,0,0,0,1466,342.71l-.34.14c-210.12,82.63-379.6,260.49-442.76,495.23-106,394,127.33,799.15,521.16,905.14,202.24,54.41,407.43,19.38,573.6-80.89l31,43.09,146.2-105.28-35.29-49a735.25,735.25,0,0,0,189.64-329.22C2485.31,1087.66,2482,952.06,2446.34,827.54Zm-540.75,674.75c-261.11,93.57-548.65-42.23-642.23-303.34-91.83-256.25,37.26-538,288.91-636.81q7.15-2.8,14.43-5.42a500.46,500.46,0,0,1,374.24,14.21c120.6,53.87,219.91,155,268,289.13q5.67,15.84,10.24,31.8C2291.31,1144.11,2156.14,1412.49,1905.59,1502.29Z" transform="translate(-342.73)"/><path class="cls-19" d="M2591.8,785.66l-145.57,41.48-227.06,64.72q-4.56-16-10.24-31.8c-48.08-134.17-147.39-235.26-268-289.13l96.13-215.28h0L2047.2,333l51.67-115.7C2343.74,326.21,2520.92,538,2591.8,785.66Z" transform="translate(-342.73)"/><path class="cls-20" d="M2047.2,333l-10.11,22.66-96.15,215.28a501.19,501.19,0,0,0-266.46-40l-29-234-3-24.55A765.48,765.48,0,0,1,2047.2,333Z" transform="translate(-342.73)"/><path class="cls-21" d="M1674.48,531a503.82,503.82,0,0,0-107.78,25.76q-7.29,2.61-14.43,5.42L1466,342.71l-26.13-66.41A805.85,805.85,0,0,1,1636.61,226l.15,0,5.74,46.37,3,24.55Z" transform="translate(-342.73)"/><polygon class="cls-22" points="2274.57 2000 1983.47 2000 1781.17 1719.05 1876.05 1650.73 1972.88 1581.02 2021.1 1648 2274.57 2000"/><path class="cls-23" d="M1578.6,175.07s-10.49-19.25-16.46-26.18-25.79-12.13-23.1-21,29.26-5,36.58,3.65,29.64,11.75,30.41,15.4-7.75,23.68-12.54,26.95S1578.6,175.07,1578.6,175.07Z" transform="translate(-342.73)"/><path class="cls-24" d="M1534,191.38s-17.08-13.55-25.31-17.54-28.49-.89-29.53-10.08,24.86-16.21,35-11.17,31.86-1,34,2.06,2.29,24.8-.81,29.71S1534,191.38,1534,191.38Z" transform="translate(-342.73)"/><path class="cls-25" d="M1572,226.65s7.46-51,7.12-59.86c-.1-2.53,15.35-1.59,14.63,3.27-1.57,10.58,5.56,51.59,4.32,59.09S1571.32,231.38,1572,226.65Z" transform="translate(-342.73)"/><path class="cls-25" d="M1548.59,241.31s-14-49.53-17.24-57.77c-1.45-3.66,12.8-9.34,14.73-2.8,3,10.26,25.58,45.14,27.43,52.52S1549.88,245.9,1548.59,241.31Z" transform="translate(-342.73)"/><path class="cls-26" d="M1558.29,275.73s-15-50.62-17.32-56l23.67-14.63s11,32.34,12.52,40.42S1558.29,275.73,1558.29,275.73Z" transform="translate(-342.73)"/><path class="cls-27" d="M1977.37,142s-22.86,5.78-33.74,23.07-20.28,37.21-40.72,46.24-20.57,32.31-19,35.9,64.39,74.17,78.09,76.9,39.35.83,36.6-17.3S1969,249.64,1984.09,230,2003,192.14,2003,192.14Z" transform="translate(-342.73)"/><path class="cls-25" d="M1973.38,226.4a8.31,8.31,0,0,0-1.78-.33,13.12,13.12,0,0,0-5.35.64,12.44,12.44,0,0,0-2.09,1c-5.44,3.2-18.29,11.89-20,12.1-2,.24-.31-29.75-.31-29.75s6.84-12.11,7.71-20.08S1973.38,226.4,1973.38,226.4Z" transform="translate(-342.73)"/><path class="cls-26" d="M1812.56,257.74s-25.12-17.62-54.57-12.13-32.62,19.25-42.73,19.88-43.88-2.27-71.6,5.82-51.11,8.95-54.28,6.64,17.32-48.51,17.32-54.86l-34.36-9s-9.81,41-13.66,50.24c-4.12,9.88-12,28.48-.77,44.65s42.73,8.88,61.79,12.14,104.34,1.17,119.24.37c16.16-.86,65-3.17,65-3.17Z" transform="translate(-342.73)"/><path class="cls-25" d="M2018.86,166.45s1.61,24.82-3.9,32.26a35,35,0,0,1-4.71,5.47,10.8,10.8,0,0,0-3.13,4.55c-1.71,4.77-2.75,11.49-4.11,12.92s-5.76-2.41-7.32-2.42-16.66,13-20.28,10.36-25.66-25-23.81-40.38,8.62-38.25,33.45-38.11S2017,160.28,2018.86,166.45Z" transform="translate(-342.73)"/><path class="cls-28" d="M1943.83,284.88c-.47,1-9.6,15.59-19.6,24.05-4.16,3.52-8.45,6-12.35,6-1.19,0-2.35,0-3.48.05-11.47.31-20.29,2.07-35.79,2.84-16.09.8-55.14-1.44-56.3-1.44s-12.41,2-12.41,2c-4-4.91,6.64-60.34,8.66-60.63s15,4.62,27.43,2.6,17.32-3.18,35.8-24.84,37-27.13,44.75-25.4,23.29,0,23.29,0S1944.51,283.43,1943.83,284.88Z" transform="translate(-342.73)"/><path class="cls-27" d="M2008.43,184.22s4.63,12,7.08,13.64c0,0,8.93-9.44,3.2-32.75s-27.37-25.49-41.34-23.13c-17.38,3-34.89,61.77-34,67.5s20.38-30.4,37.44-27.49S1998,185.85,2008.43,184.22Z" transform="translate(-342.73)"/><path class="cls-29" d="M1971.64,226.11a13.33,13.33,0,0,0-5.35.7,11,11,0,0,0-2.13.94c-4-6.22-7.69-21-7.82-21.49C1959,212,1971.64,226.11,1971.64,226.11Z" transform="translate(-342.73)"/><path class="cls-30" d="M1924.23,308.93c-4.16,3.52-8.45,6-12.35,6-1.19,0-2.35,0-3.48.05l5.67-45.95Z" transform="translate(-342.73)"/><path class="cls-25" d="M2014.06,388.07,2003,398.15c-9.56-5.13-33.52-22.37-38.13-26.3-4.84-4.11-37.07-31.08-41.5-37.22s-10.12-69.66-9.54-72.57,28-4.35,31.14,2.38c0,0,1.43,36.22,2.17,42.28a31.46,31.46,0,0,0,7.18,16.65c5.75,7.06,18,23.45,29.87,36.7C1987,363.23,2010.4,384.91,2014.06,388.07Z" transform="translate(-342.73)"/><path class="cls-28" d="M1947.2,265.24s1.73-48.23-14-47.64c-19.84.76-22.81,25-20.12,51.4C1913.13,269,1942.77,269.29,1947.2,265.24Z" transform="translate(-342.73)"/><path class="cls-25" d="M2008.72,383.34a8.21,8.21,0,0,0,3.62,3.05c3.69,1.25,9.15-1.15,11.85,3.68s-10.31,16.92-13.81,17.66-9.09-4.71-13.46-15.44S2008.72,383.34,2008.72,383.34Z" transform="translate(-342.73)"/><path class="cls-25" d="M2023,388.56a166.73,166.73,0,0,1,13.34,11.54c5.89,5.69,11.87,13.15,10.36,14.56-2.06,1.93-6.07-4.48-12.28-9.75-5.72-4.85-5.4-3-5.4-3s-.06-.54,5.16,5.91c5.6,6.92,11.39,15.15,9.67,16.34-1.09.74-1.14.94-3.59-1.26,1.14,1.55.88,2.07.27,2.57-3.13,2.63-13-6.34-16.85-9.91,3,2.76,4.87,5.08,1.85,5.44-3.46.41-16.79-12.87-22-17.19C1997.86,399.12,2023,388.56,2023,388.56Z" transform="translate(-342.73)"/><path class="cls-9" d="M1823.85,260s-5.3,37.95-2.69,56.63c0,0,2.76,2.05,8.26.39,0,0,1.37-41.44,4.45-56.15C1833.87,260.82,1832.17,259.54,1823.85,260Z" transform="translate(-342.73)"/><rect class="cls-9" x="1482.37" width="4.1" height="288.65"/><rect class="cls-31" x="2465.93" y="1495.11" width="79.46" height="5.57" transform="translate(4668.6 2995.79) rotate(180)"/><rect class="cls-31" x="2465.93" y="1505.61" width="79.46" height="23.42" transform="translate(4668.6 3034.63) rotate(180)"/><rect class="cls-31" x="2428.61" y="1536.9" width="46.88" height="3.5" transform="translate(4561.36 3077.3) rotate(180)"/><rect class="cls-31" x="2428.61" y="1541.93" width="46.88" height="9.48" transform="translate(4561.36 3093.34) rotate(180)"/><rect class="cls-31" x="2558.45" y="1465.08" width="3.5" height="65.62" transform="translate(4777.66 2995.79) rotate(180)"/><g class="cls-32"><polygon class="cls-33" points="59.13 1069.88 135.54 1069.88 112.15 1021.37 35.75 1021.37 59.13 1069.88"/></g><g class="cls-34"><polygon class="cls-35" points="23.39 1069.88 41.59 1069.88 18.2 1021.37 0 1021.37 23.39 1069.88"/></g><g class="cls-36"><rect class="cls-37" x="2419.55" y="164.95" width="84.72" height="32.68" transform="translate(4581.09 362.57) rotate(180)"/></g><g class="cls-38"><rect class="cls-39" x="2419.55" y="149.7" width="84.72" height="6.15" transform="translate(4581.09 305.55) rotate(180)"/></g><polygon class="cls-40" points="2061.37 1363.32 2384.34 1342.56 2386.11 1531.37 2095.48 1531.37 2061.37 1363.32"/><polygon class="cls-41" points="2075.36 1345.73 2384.34 1342.56 2386.11 1531.37 2095.48 1531.37 2075.36 1345.73"/><path class="cls-42" d="M2413.2,1125.92s7.34,8.08,10.23,4.52,6.18-8.61,6.18-8.61Z" transform="translate(-342.73)"/><path class="cls-42" d="M2398.68,1048.69l9.46,43.94c-2.91-3.58-8-9.29-9.67-7.59-2.37,2.42,5.52,14.41,6.87,19.58,1.24,4.73,2.87,12.11,4.91,16.48l3.57,7.19,15.79-6.46s-.74-31.33-1.33-38.38c-1-11.47-23-36.31-25.18-36.57C2399.24,1046.42,2398.68,1048.69,2398.68,1048.69Z" transform="translate(-342.73)"/><path class="cls-43" d="M2722.21,1880.38s4.44,10.72,8.19,15,18.1,11.84,18.18,24.45c.08,13.68-24.19,9.88-33.69,9.39s-10.21-7.81-14.21-15.56-8-6.43-8.77-12.68,3.06-20.23,3.06-20.23Z" transform="translate(-342.73)"/><path class="cls-43" d="M2498.46,1882.84s-13.23,13.89-26.65,16.8-22.82,6.62-22.92,14.58,38.64,13.23,54,5.19c22.93-12,25.26-8.37,27.8-14.37s-3.05-22-2.89-23.92C2528,1878.76,2498.46,1882.84,2498.46,1882.84Z" transform="translate(-342.73)"/><path class="cls-44" d="M2533.73,1481.84s-13.89,100.9-19.56,135c-6.64,39.88-8.89,72.83-10.74,93.47-2.32,26-6.79,162.47-8.42,170.06s36.35,3.81,36.35,3.81,27.54-177,34.47-204.66c6.45-25.75,24.2-131.89,30.09-124.86s42.86,131.21,47.22,151.52,46.4,179.27,46.4,179.27,31.43,6.76,39.42.39c0,0-27.42-146-30.2-184.11-1.06-14.51-9.65-173-34.19-237.15C2651.61,1430.67,2533.73,1481.84,2533.73,1481.84Z" transform="translate(-342.73)"/><path class="cls-28" d="M2574.48,1239.86s-36.75,7.6-41.11,11.46c-4.74,4.12-13.09,44.37-13.59,55.59s4.43,58,9.17,75.5,3.65,108.48,1.53,122.81c0,0,73.73,14.42,146.49,5,0,0-12.57-79.07-9.66-103C2671,1376.57,2680,1306,2680,1306s-9.72-47.5-16.2-53-51.52-14.41-51.52-14.41Z" transform="translate(-342.73)"/><path class="cls-25" d="M2589.68,1126.21s-44.22-16.36-41.45,42.39,13.12,64.73,42.21,56.52,31.52-45.28,35.31-63.12S2604.14,1128.77,2589.68,1126.21Z" transform="translate(-342.73)"/><path class="cls-25" d="M2567.2,1249.16s23,18.63,45.1-10.53c0,0-1-23.65,5.79-45.74s-46.3,29.46-46.3,29.46c.56.39.67,2.6.35,5.68a63,63,0,0,1-1.7,9.13C2568.5,1244.54,2569,1243.23,2567.2,1249.16Z" transform="translate(-342.73)"/><path class="cls-45" d="M2619.6,1191.14s.13-15.7-6.4-17.14-9.89,7.63-9.89,7.63l-5.25-.29s4.69-15.9-1.53-19.55-43.45-.44-48.12-5.8,2.11-37.16,12.26-40.28,37.9-9.45,55.52,6.24c0,0,15.78.1,15.75,19C2631.91,1153.46,2624.91,1182.63,2619.6,1191.14Z" transform="translate(-342.73)"/><path class="cls-29" d="M2570.44,1237.16c34.27-5.77,39.39-25.25,39.47-25.56-13.33,17.18-37.77,16.43-37.77,16.43A63,63,0,0,1,2570.44,1237.16Z" transform="translate(-342.73)"/><path class="cls-25" d="M2605.81,1167.33c2-5.17,13-4.52,11.85,3.69s-10.24,20.85-13.9,18.48S2603.12,1174.47,2605.81,1167.33Z" transform="translate(-342.73)"/><path class="cls-25" d="M2624.22,1241.15s-20.73,41.9-51.24,38.51-12.83-32.63-9.91-37.29C2563.07,1242.37,2581.38,1230.62,2624.22,1241.15Z" transform="translate(-342.73)"/><path class="cls-28" d="M2431.67,1207.33c-8.62-16.78-27.57-81.56-27.57-81.56l26.82-5.6s14.27,32.59,21.06,55.15c3.31,11,7.74,21.79,8.73,23.52s46.67,36.34,51.65,38.88,24.1,9.17,33.25,18.46,4.69,22,4.69,22c-19.39,25-55.22-7.48-55.22-7.48S2443.74,1230.83,2431.67,1207.33Z" transform="translate(-342.73)"/><path class="cls-28" d="M2476.39,1255.29s42.32,46.22,43.78,63.35c1,12.22,8.67-36.76,8.67-36.76Z" transform="translate(-342.73)"/><rect class="cls-19" x="2438.21" y="1331.75" width="316.81" height="199.62" transform="translate(4850.5 2863.11) rotate(180)"/><path class="cls-46" d="M2705.77,1541.4s1.5-3.67,1.38-5.59c0,0-.5-3.48-.7-6a16,16,0,0,1-.07-1.94c.09-1.87.87-6-.17-10.54s-6.3-20.33-6.3-20.33l-14.24,2.12-12.37-1.68s-9.22,26.91-8.75,31.28a11.69,11.69,0,0,0,.2,1.23c.76,3.66,2.86,6.07,3.47,7.94.23.69,3,7.37,5,8a7.06,7.06,0,0,0,6.79-1s5.68,1.5,9.27-.14c0,0,5.2,1.55,9.09-1.77C2698.41,1543.07,2703.85,1544.05,2705.77,1541.4Z" transform="translate(-342.73)"/><path class="cls-28" d="M2643.58,1252c-4.82,1.87-9.93,13.53-6.13,36.4,4.08,24.54,12.18,35,15.43,40.75s23.39,44,23.31,49.62c-.19,14.73.15,53.61-.31,56.58-.8,5.08-4.08,63.66-4.08,63.66l31.09,7.53s6.13-66.06,8.9-86c1.12-8,3.52-30,.75-51.88-2.67-21.13-18-67.82-20-71.54S2675.45,1239.68,2643.58,1252Z" transform="translate(-342.73)"/><rect class="cls-47" x="235.56" y="957.9" width="598.71" height="708.4" rx="54.7"/><g class="cls-48"><path class="cls-31" d="M792.52,1067.65a87.24,87.24,0,1,0-164.29,58.75c.66,1.85,1.38,3.67,2.15,5.44a87.24,87.24,0,0,0,162.14-64.19Zm-60.12,91a65.35,65.35,0,0,1-82-35.48c-.58-1.34-1.12-2.7-1.61-4.08a65.4,65.4,0,1,1,83.61,39.56Z" transform="translate(-342.73)"/></g><rect class="cls-49" x="235.56" y="854.23" width="598.71" height="52.47" rx="23.29"/><polygon class="cls-31" points="617.51 1328.92 708.97 1334.08 781.86 1233.53 776.93 1229.96 705.99 1327.82 614.89 1322.68 510.45 1441.79 401.1 1418.1 293.06 1520.04 297.23 1524.47 402.94 1424.72 512.66 1448.5 617.51 1328.92"/><path class="cls-31" d="M870.15,1441.71a16.23,16.23,0,1,1-19.3-12.43A16.23,16.23,0,0,1,870.15,1441.71Z" transform="translate(-342.73)"/><path class="cls-31" d="M974.77,1323.39a16.23,16.23,0,1,1-19.3-12.43A16.23,16.23,0,0,1,974.77,1323.39Z" transform="translate(-342.73)"/><path class="cls-31" d="M1065.2,1327a16.23,16.23,0,1,1-19.3-12.43A16.23,16.23,0,0,1,1065.2,1327Z" transform="translate(-342.73)"/><path class="cls-31" d="M760.53,1419.48a16.23,16.23,0,1,1-19.3-12.43A16.23,16.23,0,0,1,760.53,1419.48Z" transform="translate(-342.73)"/><rect class="cls-31" x="385.7" y="1483.25" width="66.45" height="12.8"/><rect class="cls-31" x="431.91" y="1351.93" width="66.45" height="12.8"/><rect class="cls-31" x="569.76" y="1443.44" width="66.45" height="12.8"/><rect class="cls-31" x="629.36" y="1263.73" width="66.45" height="12.8"/><rect class="cls-31" x="725.88" y="1370.81" width="66.45" height="12.8"/><rect class="cls-50" x="507.92" y="1074.81" width="19.69" height="109.48"/><rect class="cls-51" x="542.5" y="1045.62" width="19.69" height="138.67"/><rect class="cls-52" x="578.79" y="1060.89" width="19.7" height="123.4"/><rect class="cls-53" x="616.07" y="1096.34" width="19.69" height="87.95"/><rect class="cls-54" x="507.92" y="1114.86" width="19.69" height="69.43"/><rect class="cls-54" x="542.5" y="1096.34" width="19.69" height="87.95"/><rect class="cls-54" x="578.79" y="1106.03" width="19.7" height="78.26"/><rect class="cls-54" x="616.07" y="1129.55" width="19.69" height="54.74"/><rect class="cls-55" x="654.02" y="1110.84" width="19.69" height="73.45"/><rect class="cls-56" x="688.6" y="1056.82" width="19.69" height="127.47"/><rect class="cls-57" x="724.88" y="1080.2" width="19.69" height="104.09"/><rect class="cls-58" x="762.17" y="1023.48" width="19.69" height="160.81"/><rect class="cls-54" x="654.02" y="1145.16" width="19.69" height="39.13"/><rect class="cls-54" x="688.6" y="1125.97" width="19.69" height="58.32"/><rect class="cls-54" x="724.88" y="1132.24" width="19.69" height="52.05"/><rect class="cls-54" x="762.17" y="1064.78" width="19.69" height="119.51"/><path class="cls-25" d="M514.4,1475.5s3.06,5,3.44,9.11c.3,3.23,3,8.07,4.2,10.75s5,14.77,5.11,17.92c.06,1.28-2.81,9.4-2.41,12s1.9,7.74-.43,8.08-5-3.87-5-3.87a3.42,3.42,0,0,1-1.75,3.3c-3.83,1.78-5.86.21-5.86.21s-1.42,2.63-3.19,3c-3.92.78-5.83-.78-5.83-.78a7.1,7.1,0,0,1-4.43,1.42,5.83,5.83,0,0,1-4.92-3.06s-4.38.89-5.65-1.16-1.05-4.22-1.58-6.07-.13-18.59,5.56-30.63-1.45-23.79-1.45-23.79Z" transform="translate(-342.73)"/><path class="cls-59" d="M520,1527.91s.39-15-3.56-18.2-4.4,2.22-4.4,2.22.54-5.36-3.78-6.08-4.5,5.64-4.5,5.64a4.17,4.17,0,0,0-5.24-3.28c-4.54.85-3.46,6.11-3.46,6.11s-4.33-5.16-7.14-.2c-4.74,8.38-.17,18.27-.17,18.27s1.34,2.27,5.65,1.16c0,0,2.89,5.82,9.35,1.64,0,0,6.61,3.64,9-2.2C511.72,1533,519,1536.46,520,1527.91Z" transform="translate(-342.73)"/><path class="cls-60" d="M565.32,1259.28s-25.7,85.64-34.38,117.23c-2.72,9.91-9.31,104.52-10.48,108.33s-33.75,9-33.75,9,4-118.36,4.31-124.82,36-138.63,46.32-143.35c7.75-3.53,11.85-.61,21.62,6.65C572.67,1242.53,565.32,1259.28,565.32,1259.28Z" transform="translate(-342.73)"/><path class="cls-46" d="M883.85,1123s-.56,3.33-1.51,4.66c0,0-1.93,2.3-3.2,4a13.61,13.61,0,0,0-.92,1.37c-.78,1.4-2.06,4.71-4.86,7.55s-13.71,11.87-13.71,11.87l-9.35-7.93-9.7-4.35s5.43-23.62,7.73-26.57a9.38,9.38,0,0,1,.71-.8c2.19-2.31,4.79-3.11,6.08-4.19.47-.39,5.47-4,7.25-3.53a6,6,0,0,1,4.48,3.75s4.78,1.47,6.65,4.27c0,0,4.45,1.22,5.77,5.37C879.27,1118.43,883.66,1120.16,883.85,1123Z" transform="translate(-342.73)"/><path class="cls-61" d="M702.6,1282.22l6.63-2.45s-8.28-19.44-11.89-19a91.43,91.43,0,0,0-9.36,1.92Z" transform="translate(-342.73)"/><path class="cls-62" d="M704.11,1285.57c-.85-.63-14.11-26.07-14.11-26.07l-28.34,3.85L677,1293.49Z" transform="translate(-342.73)"/><path class="cls-63" d="M544.47,1844s-2.35,16.26-2.64,18.7-26.06-1.44-26.06-1.44l-2.08-19.35S541.25,1841.73,544.47,1844Z" transform="translate(-342.73)"/><path class="cls-64" d="M542.11,1860.65s8.16,9.8,16,14.07,20.3,6,25,10.38c3.37,3.19,12.28,16.93-20.51,16.65s-48.6,1.94-52.11-3.32,5.08-38.88,5.08-38.88S523.35,1862.35,542.11,1860.65Z" transform="translate(-342.73)"/><path class="cls-63" d="M729.06,1844s-2.34,16.26-2.63,18.7-26.06-1.44-26.06-1.44l-2.08-19.35S725.84,1841.73,729.06,1844Z" transform="translate(-342.73)"/><path class="cls-64" d="M726.7,1860.65s8.17,9.8,16.06,14.07,37,7.78,41.62,12.2c3.37,3.19,9,16-37.16,14.83-32.78-.85-48.6,1.94-52.12-3.32s5.09-38.88,5.09-38.88S707.5,1862.54,726.7,1860.65Z" transform="translate(-342.73)"/><path class="cls-64" d="M565.8,1426.26s-24.21,38.46-22.4,73.23-8.78,72.72-12.42,109c-4.05,40.49-20.64,136.35-21.24,158s2.57,90.82,2.57,90.82l33.21.76s27.9-167.57,35.12-184.67,43.05-139,44.25-152.68S565.8,1426.26,565.8,1426.26Z" transform="translate(-342.73)"/><path class="cls-64" d="M693.24,1431.47s18.24,95.29,20.65,116.57,4,103,5.21,116.28,11.25,173.63,14.45,193.79H691.09S658.5,1741.26,658.5,1686s-25.18-120.19-41.43-156.67-53.46-37.34-63.45-105C553.62,1424.29,679.71,1410,693.24,1431.47Z" transform="translate(-342.73)"/><path class="cls-25" d="M606.2,1102.9s32.49-12.14,47.47,12.6,13.54,74.25-2.84,80.34-41,2.9-49.37-12.57-16-37.86-15.59-52.81S597.66,1107.22,606.2,1102.9Z" transform="translate(-342.73)"/><path class="cls-25" d="M647.3,1197s-1.35,8.77.89,13.1-42.1,4.43-42.1,4.43-3.6-23.51-10.42-43.37S647.3,1197,647.3,1197Z" transform="translate(-342.73)"/><path class="cls-65" d="M595.67,1171.13s3.06,5,15.55,3.09,27.72-18.57,32.94-20.4,5.26-4.89,5.26-4.89l3.27,4.77,5.54.35s-5.05-14.86,2.57-20.92-7.91-48.11-48-34.11c0,0-30.76,8.48-29.64,26S588.79,1162.42,595.67,1171.13Z" transform="translate(-342.73)"/><path class="cls-66" d="M650.82,1209.54s-.14-8.25-3.88-9-41.32-4.41-45.91-2.6v9.62S609.88,1213,650.82,1209.54Z" transform="translate(-342.73)"/><path class="cls-25" d="M648.6,1142.57c-.7-2.93-8.17-11.32-11-2.34s4.31,21.06,8.31,20S650.37,1150,648.6,1142.57Z" transform="translate(-342.73)"/><path class="cls-67" d="M799.92,1307.1h-.06C800.12,1307.21,800.15,1307.22,799.92,1307.1Z" transform="translate(-342.73)"/><path class="cls-60" d="M713,1222.05c-25.76-3.4-62.14-12.51-62.14-12.51l-49.79-2s-45.7,10.06-63.69,18.18c-1.71.77-1.72,40.77-6.4,51.26l14.92,31.47s8.62,62.36,10.41,90.09c.82,12.73-17.78,119.37-17.78,119.37s19.93,5.87,53.91,9.61,118.88-1.35,119.42-5.37-16.45-149.44-17.2-157c-1.15-11.56,4-73,4-73,7.84-6.08,76.73-38.06,95.52-54.72,5-4.46,26.26-25.13,32.29-32.27,21.37-25.27,38.89-46.94,41-51.62,2.42-2.65-23.22-16.59-25.54-17.37-2-.68-30.92,36.75-42,48.79-5,5.37-25.56,20.36-25.56,20.36S729.07,1223,713,1222.05Z" transform="translate(-342.73)"/><path class="cls-65" d="M596.94,1105.82s-41.43,3.24-1.27,65.31Z" transform="translate(-342.73)"/><path class="cls-65" d="M1124.44,1853s-8.72,13-21,15.87-24.29,7.31-24.38,15,35.38,12.33,49.38,4.54c20.91-11.62,23-8.11,25.35-13.92s-2.79-21.34-2.64-23.19C1151.38,1849.09,1124.44,1853,1124.44,1853Z" transform="translate(-342.73)"/><path class="cls-68" d="M1125.8,1846.6s-1.59,6.31-1.36,6.44,27.58,3.39,26.75-1.67c-.67-4.1-1.62-8.56-1.62-8.56Z" transform="translate(-342.73)"/><path class="cls-65" d="M1216.45,1852.17s-6.22,12.49-16.85,16.74c-11.37,4.55-20.48,9.77-20.27,17.3s27.78,15.15,47.84.71c12.68-9.13,16.69-9.17,18.73-14.92s-3.53-20.67-3.46-22.48C1242.54,1847.29,1216.45,1852.17,1216.45,1852.17Z" transform="translate(-342.73)"/><path class="cls-68" d="M1216.14,1845.69s.08,6.36.31,6.48,26.66,2.3,26-2.65a40.61,40.61,0,0,0-2.56-8.68Z" transform="translate(-342.73)"/><path class="cls-69" d="M1119.26,1464.29s-24.55,108.29-30.16,141.27c-4.77,28.07-8.57,57.31-6.29,77.57,2.83,25.09,38.35,155.13,36.87,162.49s37.16,1.18,37.16,1.18-27-145.06-21.61-172c4-20,39-152.82,44.38-146s12,125.36,16,145,16.18,175.17,16.18,175.17,27.28,4,34.56-2.14c0,0,3.32-132.77.79-169.66-1-14.06,16.47-168.58-5.89-230.79C1229.42,1413.48,1119.26,1464.29,1119.26,1464.29Z" transform="translate(-342.73)"/><path class="cls-70" d="M1012.4,1365.85c17.5-2.45,72.55,21.93,77.55,20.09,3.44-1.26,11.51-27.57,17.28-47.48,3.41-11.77,6-21.31,6.37-22.1l0,0a119,119,0,0,0,.19,21.36c.07.76.16,1.54.25,2.33,0,.2,0,.41.07.62a106.13,106.13,0,0,0,2.48,13.32c1.75,6.75,2.58,15.63,2.89,25v0a1.62,1.62,0,0,0,0,.22c0,.22,0,.43,0,.65s0,.17,0,.26c.48,17.05-.69,35.43-1.18,45.21-.77,15.16,4.21,22,4.36,22.17h0l5.28-.74,3.81-.54h0l5.09-.71,20-2.81,7.23-1,1.71-.24,12.64-1.78,35.66-5,3.92-.55,1.61-.23,13.45-1.9,6.07-.85h0s5.17-36.61,5.56-56.4c.36-18.18,10.09-55.08,11.68-61l0-.12c0-.06,0-.11,0-.16l.08-.26a.5.5,0,0,1,0-.13,0,0,0,0,1,0,0s0,0,0,0a.32.32,0,0,0,0-.07s29.11,30.58,34.75,43.92c1.73,4.05,7,15.06,13.69,28.47,4.59-8.75,7.46-14.83,7.46-16.35,0-.19,0-.39,0-.6-.43-13.19-14.25-66.68-25.16-101.63-8.47-17-15.78-30.8-18.12-32.48-3.56-2.55-18.5-9-31.54-14.12l-1.27-.5c-1.21-.49-2.41-.95-3.58-1.41l-1.72-.66-.92-.35-.75-.29h0c-6.52-2.48-11.48-4.21-12.5-4.27-.17,0-.44,0-.81,0s-1,0-1.65.08c-8.06.47-32.11,2.72-39.85,3.46l-2.41.23h0l-9.24,4.21h0l-.52.23c-3.35,1.54-7.24,3.59-11.34,5.84-8.05,4.41-16.93,9.56-24.31,13.07-7.22,3.44-17.12,8.23-18,8.9l-36.62,105.61-63.54-11.61Z" transform="translate(-342.73)"/><path class="cls-71" d="M1122.72,1447.49s-2.68,3.21-3.46,16.8c0,0,110.32-12.87,122-17.94,0,0,.46-15-2-15.24C1236.51,1430.83,1122.72,1447.49,1122.72,1447.49Z" transform="translate(-342.73)"/><path class="cls-25" d="M1216.8,1208.9c-.35,17.31-33.87,26.79-33.87,26.79s-14-17.58-10.67-19.27c1.31-.66,1.85-3.28,2-6.22a62.07,62.07,0,0,0-.19-7.86c-.1-1.22-.19-2-.19-2s4.79-5,10.88-11.07c10.65-10.53,25.29-24,25.31-18.65a5.16,5.16,0,0,1-.12,1C1207.38,1183.7,1216.8,1208.9,1216.8,1208.9Z" transform="translate(-342.73)"/><path class="cls-65" d="M1214,1433.77s2.4,15.18,2.61,19.14l5.11-1s-1.41-16.06-2.24-18.76Z" transform="translate(-342.73)"/><path class="cls-65" d="M1131.92,1445.72s-1.93,13.8-2,19l5.4-.7s1.11-17.23,1.72-19Z" transform="translate(-342.73)"/><path class="cls-29" d="M1203.89,1183.53h0c-.06.1-1.48,2.22-3.91,5.28-5.15,6.47-14.82,17.1-25.7,21.38a62.07,62.07,0,0,0-.19-7.86,17.11,17.11,0,0,1-3.33-.4,102.4,102.4,0,0,1,7.29-10.67l6.73-2Z" transform="translate(-342.73)"/><path class="cls-25" d="M1210.32,1170.84c-2.9,6.31-5.65,10.88-6.43,12.69h0a22.43,22.43,0,0,1-3.91,5.28c-5.53,6-15.79,13.8-25.89,13.52a17.11,17.11,0,0,1-3.33-.4c-4.07-.89-8.89-2.78-11.54-8-20.91-40.94-5.77-74.43-5.77-74.43s57.19-16.17,66.13,1C1225.85,1132.66,1217.13,1156,1210.32,1170.84Z" transform="translate(-342.73)"/><path class="cls-45" d="M1153.44,1119.54s-5.31-.29-6.62-10.36,1.32-12.71,1.32-12.71,23.61-9.88,32.09-11.16,29.32-2.52,34.21,3.07c0,0,11.87-2.76,15.11,16.95,5.13,31.26-17.49,61.62-17.49,61.62s.19-20.42-4.31-23.13-8.39,3.73-8.39,3.73l-9.22,1.65s14-30.22-2.79-31.34S1163.05,1121.29,1153.44,1119.54Z" transform="translate(-342.73)"/><path class="cls-25" d="M1199.61,1139.41c.88-9,17.15-12.44,16.06-3s-9.1,18.5-12.81,18.18S1198.94,1146.27,1199.61,1139.41Z" transform="translate(-342.73)"/><path class="cls-44" d="M1312.57,1369c0-.19,0-.39,0-.6-.31-13.16-6.79-65.85-17.7-100.79-5.29-17-6.51-28.83-8.56-30.29-3.55-2.55-35.15-11.9-48.56-17.15l-1.27-.5c-1.21-.49-2.41-.95-3.58-1.41l-1.72-.66-.92-.35-.75-.29-.07.08a217.15,217.15,0,0,0-14.8,18.91c-13.84,19.69-31.88,51.56-29.11,81,.88,9.45,2,23,3.81,38.24.16,1.31.33,2.62.49,3.94.45,3.51.94,7.09,1.47,10.71q.48,3.26,1,6.56c3.66,22.83,15.16,38.39,25.36,57,.09.15.17.31.26.47l.15.27.65,1.19c.35.65.69,1.31,1,2,.2.38.4.76.59,1.14,2,3.75,3.87,7.58,5.72,11.43q1.8,3.72,3.53,7.46l.35.77,4.29,10c.88,2.06,1.84,4.28,2.8,6.52.66,1.54,1.33,3.08,2,4.58.57,1.31,1.11,2.58,1.63,3.79,1.16,2.7,2.17,5.07,2.87,6.72.53,1.23.88,2.07,1,2.36,3.51,8.78,6,15.56,7.22,18.72l.71,2,35.29-19.48c6.7-3.35,3.2-21.41.68-28.47a161.69,161.69,0,0,0-8.36-18.65c-1.36-2.66-2.78-5.35-4.23-8.06,11-19.3,22.22-39.2,29.31-52.72C1309.7,1376.55,1312.57,1370.47,1312.57,1369Zm-56.11-55.23,0-.12c0-.06,0-.11,0-.16s0-.18.08-.26a.5.5,0,0,1,0-.13,0,0,0,0,1,0,0s0,0,0,0,17.17,26.83,15.87,50.14c-.2,3.63-3.81,12.8-9.06,24.55v0c-1.91,4.29-4,8.91-6.3,13.73-.09-.19-.17-.4-.25-.6-3.29-8-5.42-15.53-5.42-22.1C1251.49,1378.72,1252.94,1327.58,1256.46,1313.72Z" transform="translate(-342.73)"/><path class="cls-44" d="M989,1330.07l79.91,17.4,38.1-99.62c.84-.66,11.76-6.54,19-10,7.53-3.59,17-8,25.5-11.91l11-5.09.27.21s-4.72,15.71-10.82,54.91h0c-.21,1.32-.41,2.66-.62,4,0,.16,0,.32-.07.48-.14.9-.28,1.82-.41,2.75,0,.11,0,.22,0,.33-.1.62-.19,1.26-.28,1.89q-.35,2.32-.69,4.74c-2.72,19.08-6.54,51.55-10.21,84.34h0c-2.9,25.84-9.51,52.36-11.61,72.15v0a137.65,137.65,0,0,1-2.75,14.87c-.15.66-.31,1.33-.47,2-5.91,25-17.39,60.33-17.39,60.33l-3.34-3.09-9.9-9.14a8,8,0,0,1-2.22-8.28c5.49-17.71,24.15-80.4,27.57-124.48v0c1.07-13.85-3-26.9-5.32-39.26a3,3,0,0,0-.12.32c-2,5.46-4.14,11.41-6.34,17.19h0c-5.89,15.53-11.91,29.93-14.42,30.84-5.59,2.06-110.81-26.71-111.54-30.84Z" transform="translate(-342.73)"/><path class="cls-72" d="M1220.19,1259.88l-16.3,9.2,7,7.11-18.55,100.17c-3.78-23.48-5.5-45.78-6.78-59.45-4.27-45.52,41.15-96.85,44-100,2.18.83,4.54,1.74,7,2.71Z" transform="translate(-342.73)"/><path class="cls-72" d="M1163,1220.64s-6.1,19.9-13.2,69.57c-2.72,19.09-6.54,51.57-10.21,84.35l-3.8-93.82,7.77-8.41-6.91-8.63,14.78-37.74,11-5.09Z" transform="translate(-342.73)"/><path class="cls-73" d="M1230.32,1217.11l-13.52-8.21s-.38,7.42-33.87,26.79l9.51,26.78Z" transform="translate(-342.73)"/><path class="cls-73" d="M1174,1212.64s.53,8,8.91,23l-18.56,24.19-1.35-39.24Z" transform="translate(-342.73)"/><path class="cls-67" d="M1183,1235.69s3.6,14.38,2.3,18.41c0,0-7.91,2.88-13.59-.72A63.26,63.26,0,0,1,1183,1235.69Z" transform="translate(-342.73)"/><path class="cls-74" d="M1164.39,1443.19c-2-10.15-.1-40.57,0-41.86l1.73.11c0,.31-2,31.48,0,41.41Z" transform="translate(-342.73)"/><path class="cls-75" d="M1178.47,1438.51s-16.23,1.94-21.6,3.28l.7,18.19,21.26-2.27Z" transform="translate(-342.73)"/><path class="cls-67" d="M1174.92,1252.09s-18.11,45.72-15.15,96.89c3.06,53.06,8.08,72.3,8.08,72.3l11.16,14,4.93-17.21s-15-67.64-5.31-133.47c1.75-11.92,4.35-34.53,4.35-34.53Z" transform="translate(-342.73)"/><path class="cls-25" d="M1229.32,1468s-3.88,7.77-7.77,9.07-9.55,7.61-9.55,7.61l27.36,14.4s7.28-14.24,7.6-23.31S1229.32,1468,1229.32,1468Z" transform="translate(-342.73)"/><path class="cls-70" d="M1226.72,1468.73l-1.81,3.65s17.37,12.7,22.06,13.51l1.6-4.85Z" transform="translate(-342.73)"/><path class="cls-44" d="M1224.91,1468.89s13,10.77,24,15.73l36.9-66.37-19.12-37S1225.77,1462.42,1224.91,1468.89Z" transform="translate(-342.73)"/><path class="cls-69" d="M1114.69,1316.5c-.6,12.27-.51,23.18-.51,23.18h0c0,.06,0,.39,0,.94,0-.21-.05-.42-.07-.62-2,5.46-4.14,11.41-6.34,17.19a184.06,184.06,0,0,1-.49-18.74c.88-34.42,11.71-52.48,11.71-52.48C1116.45,1292,1115.26,1304.86,1114.69,1316.5Z" transform="translate(-342.73)"/><path class="cls-69" d="M1280,1446.08l-29.54,35.68L1275.8,1438C1277.25,1440.73,1278.67,1443.42,1280,1446.08Z" transform="translate(-342.73)"/><path class="cls-76" d="M1065.51,1401.35h-68.2a10.13,10.13,0,0,1-9.85-7.74l-29.62-122.32a10.13,10.13,0,0,1,9.84-12.51h68.2a10.13,10.13,0,0,1,9.85,7.75l29.62,122.31A10.13,10.13,0,0,1,1065.51,1401.35Z" transform="translate(-342.73)"/><path class="cls-25" d="M982.09,1367.35c3.34-3.09,9.77-4.89,15.29-8.57s.9-7.48.9-7.48c5.67-1.94,5.06-4.53,4.33-6.29-1-2.38-7.16-1.71-7.16-1.71a60.93,60.93,0,0,0,7.83-2.23c2.28-1,1.5-5-2-6.25s-17.81,2.27-17.81,2.27,2.33-1.14,9.39-4.68,8.6-6.76,4.44-8.31c-2.89-1.07-8.57,1.18-19.48,8.51-8.21,5.52-7.54,6.23-7.54,6.23S978.1,1371,982.09,1367.35Z" transform="translate(-342.73)"/><polygon class="cls-77" points="1151.88 1626.93 1455.9 1626.93 1360.08 1921.18 1369.04 1924.1 1468.88 1617.51 1145.04 1617.51 1046.16 1921.18 1055.12 1924.1 1151.88 1626.93"/><polygon class="cls-77" points="1255.35 1921.18 1159.54 1626.93 1463.55 1626.93 1560.32 1924.1 1569.28 1921.18 1470.39 1617.51 1146.56 1617.51 1246.39 1924.1 1255.35 1921.18"/><rect class="cls-77" x="1123.6" y="1710.16" width="372.1" height="9.42"/><rect class="cls-77" x="1085.27" y="1812.48" width="445.19" height="9.42"/><path class="cls-25" d="M1647,955.36s7.58-13.26-4.44-48.81c-11.63-34.37-51.87-31.26-64.65-9.23s-8.47,35.7,10.35,60.57S1639.14,966.73,1647,955.36Z" transform="translate(-342.73)"/><path class="cls-25" d="M1553.5,1566.9s-2,14.59-2.24,16.79-22.15-1.3-22.15-1.3l-1.78-17.37S1550.76,1564.84,1553.5,1566.9Z" transform="translate(-342.73)"/><path class="cls-78" d="M1551.49,1581.83s6.94,8.79,13.65,12.63,17.26,5.35,21.23,9.32c2.86,2.87,10.43,15.2-17.44,15s-41.32,1.74-44.3-3,4.32-34.9,4.32-34.9S1535.77,1582.76,1551.49,1581.83Z" transform="translate(-342.73)"/><path class="cls-25" d="M1705.14,1566.9s-2,14.59-2.24,16.79-22.15-1.3-22.15-1.3L1679,1565S1702.4,1564.84,1705.14,1566.9Z" transform="translate(-342.73)"/><path class="cls-78" d="M1703.13,1581.83s6.94,8.79,13.65,12.63,31.41,7,35.38,11c2.86,2.87,7.63,14.4-31.59,13.32-27.87-.77-41.32,1.74-44.3-3s4.32-34.9,4.32-34.9A115.78,115.78,0,0,0,1703.13,1581.83Z" transform="translate(-342.73)"/><path class="cls-79" d="M1560.87,1203.42s-11.23,34.9-9.75,65-5.81,63-8.79,94.39c-3.31,35-16.9,117.93-17.39,136.66S1527,1578,1527,1578l27.2.65s22.84-144.94,28.76-159.73,35.25-120.22,36.24-132.06S1560.87,1203.42,1560.87,1203.42Z" transform="translate(-342.73)"/><path class="cls-79" d="M1673.64,1199.79s16.51,92.26,18.48,110.67,3.28,89.07,4.27,100.57,6.57,150.53,11.83,167.62H1677.9s-31.14-101.07-31.14-148.88-20.62-104-33.93-135.51-43.78-32.3-52-90.84C1560.87,1203.42,1662.56,1181.22,1673.64,1199.79Z" transform="translate(-342.73)"/><path class="cls-25" d="M1636,964.74s-3.42,10,0,17.07-43.71,2.84-43.71,2.84,2.13-14.69-4-26.76S1636,964.74,1636,964.74Z" transform="translate(-342.73)"/><path class="cls-79" d="M1558.68,1211s17,17.41,116.47-2.72l-1.51-8.52-113.14,4.26Z" transform="translate(-342.73)"/><path class="cls-25" d="M1643.09,984.11s17.41,1.78,22.38,2.73,38.45-6,45.32-6.7,36.15-20.78,37.09-23.14,17.82-45.08,18.77-54.32,16.43-4.47,15.1,1.9c-2.48,11.9-5.67,40.8-7.42,49.18-1.89,9-6.95,29.53-9.79,32s-29.21,22.58-55,31.1a219.64,219.64,0,0,0-45.25,21.08H1537.05s-49.48-70.73-50.54-81.39,34.56-81.49,41.66-90.37,17.39,2.9,17.39,2.9-21.29,62.46-24.13,71.35,24.76,47.9,32.34,48,27-2.36,35.68-2.72,17.76-4.14,17.76-4.14Z" transform="translate(-342.73)"/><path class="cls-80" d="M1697.91,1031.36s-15.57,10.35-17,28.11-7.1,45.83-10,55.42,2.49,79.21,3.2,84.19-98.44,16.79-113.67,5c0,0-4.26-65-6-83.48s-10.3-63.23-13.14-69.27-37.3-54.37-38.72-60.74c0,0,17.82-28.42,30.61-28.77,0,0,20.31,23.8,26.93,24.86s47.22-6.37,47.22-6.43,4.43,6,28-1.07c0,0,28,3.16,32.61,3.74,5.52.71,43.93-4.82,43.93-4.82s15.4,26,12.71,39.16Z" transform="translate(-342.73)"/><path class="cls-25" d="M1765.76,908.23s3.47-16.46-.71-21.19c-2.39-2.69-8.12-9.81-8.64-10.86s-6.67-4.58-6.67-6.28,6-3.8,11.25,1.05,8.51,5.89,10.6,5.36,5.1-17.93,5.36-22.24,1.93-15.71,4.63-14.92,2.57,5.76,2.57,5.76,3.14-8.64,5.23-6.94,1.84,5.89,1.84,5.89,3.92-4.84,5-1.31a12.17,12.17,0,0,1,0,6.67s4.06-2.22,4.32,3.28-1.18,21.59-4.06,27.34-13.65,20.82-14.94,26.7S1765.76,908.23,1765.76,908.23Z" transform="translate(-342.73)"/><path class="cls-25" d="M1542.09,879.32s11.83-19.9,15.86-21.67,9.71-2.79,14.68-6.34,11.55-6.51,11.19-7.69-6.21-.71-12.49,2-9,1.41-9.62,0,3.34-11.45,5.24-13.82,15.39-15.94,13.14-17.95-11,5.44-12.43,7c0,0,7-14.68,4.26-15.39s-7.81,4.5-7.81,4.5.59-12.55-12.91,7.81c0,0,2.84-6.75-1.3-4.5s-8.17,14.92-9.48,21.32-7.21,26.76-12.25,31.67S1542.09,879.32,1542.09,879.32Z" transform="translate(-342.73)"/><path class="cls-65" d="M1588.22,957.89s6.24.55,19.5-4,14.25-27.77,17.12-25c5.86,5.6,11.38,1.73,13.59-1.58,0,0-6.47-8.53-3.47-12.63a31.83,31.83,0,0,1,7.88-7.11s-9.33-44.95-51.77-24.47C1541.33,907.05,1588.22,957.89,1588.22,957.89Z" transform="translate(-342.73)"/><path class="cls-80" d="M1636,981.81l-1.5-6.5s-27.09-.55-41.87,1.59l-1.56,7.77S1610,993.25,1636,981.81Z" transform="translate(-342.73)"/><path class="cls-25" d="M1629.27,923.15c-2.46-4.09-11.56-6.85-12.63,4.74-.83,9,16.27,18.79,16.42,10.42S1630.91,925.87,1629.27,923.15Z" transform="translate(-342.73)"/><path class="cls-81" d="M1766.4,904.49s9.78.24,14.52,4.53a9.74,9.74,0,0,1-.79,4.86s-8.48-4-15-4.69C1765.16,909.19,1765.26,905.63,1766.4,904.49Z" transform="translate(-342.73)"/><path class="cls-65" d="M1777.93,906.93a4.21,4.21,0,1,1-5.51-2.24A4.21,4.21,0,0,1,1777.93,906.93Z" transform="translate(-342.73)"/></g></g></svg>