<svg id="Illustration" xmlns="http://www.w3.org/2000/svg" xmlns:xlink="http://www.w3.org/1999/xlink" viewBox="0 0 2811.67 2783.05"><defs><style>.cls-1{fill:url(#linear-gradient);}.cls-2{opacity:0.3;}.cls-3{fill:#91b3fa;}.cls-4{fill:url(#linear-gradient-2);}.cls-5{fill:url(#linear-gradient-3);}.cls-6{fill:url(#linear-gradient-4);}.cls-7{fill:url(#linear-gradient-5);}.cls-8{fill:url(#linear-gradient-6);}.cls-9{fill:url(#linear-gradient-7);}.cls-10{fill:url(#linear-gradient-8);}.cls-11,.cls-14{fill:#fff;}.cls-11{opacity:0.72;}.cls-12{fill:url(#linear-gradient-9);}.cls-13{fill:#7d97f4;}.cls-15{fill:url(#linear-gradient-10);}.cls-16{fill:url(#linear-gradient-11);}.cls-17{fill:url(#linear-gradient-12);}.cls-18{fill:url(#linear-gradient-13);}.cls-19{fill:url(#linear-gradient-14);}.cls-20{fill:url(#linear-gradient-15);}.cls-21{fill:url(#linear-gradient-16);}.cls-22{fill:url(#linear-gradient-17);}.cls-23{fill:url(#linear-gradient-18);}.cls-24{fill:url(#linear-gradient-19);}.cls-25{fill:url(#linear-gradient-20);}.cls-26{fill:url(#linear-gradient-21);}.cls-27{fill:url(#linear-gradient-22);}.cls-28{fill:url(#linear-gradient-23);}.cls-29{fill:url(#linear-gradient-24);}.cls-30{fill:url(#linear-gradient-25);}.cls-31{fill:url(#linear-gradient-26);}.cls-32{fill:url(#linear-gradient-27);}.cls-33{fill:url(#linear-gradient-28);}.cls-34{fill:url(#linear-gradient-29);}.cls-35{fill:url(#linear-gradient-30);}.cls-36{fill:url(#linear-gradient-31);}.cls-37{fill:url(#linear-gradient-32);}.cls-38{fill:url(#linear-gradient-33);}.cls-39{fill:url(#linear-gradient-34);}.cls-40{fill:url(#linear-gradient-35);}.cls-41{fill:url(#linear-gradient-36);}.cls-42{fill:url(#linear-gradient-37);}.cls-43{fill:url(#linear-gradient-38);}.cls-44{fill:url(#linear-gradient-39);}.cls-45{fill:url(#linear-gradient-40);}.cls-46{fill:url(#linear-gradient-41);}.cls-47{fill:url(#linear-gradient-42);}.cls-48{fill:url(#linear-gradient-43);}.cls-49{fill:url(#linear-gradient-44);}.cls-50{fill:url(#linear-gradient-45);}.cls-51{fill:url(#linear-gradient-46);}.cls-52{fill:url(#linear-gradient-47);}.cls-53{fill:url(#linear-gradient-48);}.cls-54{fill:url(#linear-gradient-49);}.cls-55{fill:url(#linear-gradient-50);}.cls-56{fill:url(#linear-gradient-51);}.cls-57{fill:url(#linear-gradient-52);}.cls-58{fill:url(#linear-gradient-53);}.cls-59{fill:url(#linear-gradient-54);}.cls-60{fill:url(#linear-gradient-55);}.cls-61{fill:url(#linear-gradient-56);}.cls-62{fill:url(#linear-gradient-57);}.cls-63{fill:url(#linear-gradient-58);}</style><linearGradient id="linear-gradient" x1="3413.73" y1="3591.4" x2="1374.11" y2="1389.91" gradientUnits="userSpaceOnUse"><stop offset="0" stop-color="#dae3fe"/><stop offset="1" stop-color="#e9effd"/></linearGradient><linearGradient id="linear-gradient-2" x1="813.19" y1="1009.18" x2="964.63" y2="1009.18" xlink:href="#linear-gradient"/><linearGradient id="linear-gradient-3" x1="701.27" y1="1009.95" x2="1073.73" y2="1009.95" xlink:href="#linear-gradient"/><linearGradient id="linear-gradient-4" x1="1427.04" y1="826.03" x2="1530.19" y2="826.03" xlink:href="#linear-gradient"/><linearGradient id="linear-gradient-5" x1="1349.19" y1="826.61" x2="1606.15" y2="826.61" xlink:href="#linear-gradient"/><linearGradient id="linear-gradient-6" x1="-1297.82" y1="901.09" x2="-1342.16" y2="2551.59" gradientTransform="matrix(-1, 0, 0, 1, -579.86, 0)" gradientUnits="userSpaceOnUse"><stop offset="0" stop-color="#09005d"/><stop offset="1" stop-color="#1a0f91"/></linearGradient><linearGradient id="linear-gradient-7" x1="2004.13" y1="3014.69" x2="1959.34" y2="-173.45" gradientTransform="matrix(1, 0, 0, 1, 0, 0)" xlink:href="#linear-gradient-6"/><linearGradient id="linear-gradient-8" x1="-4617.47" y1="3168.55" x2="-2864.1" y2="581.71" gradientTransform="matrix(-0.02, -1, -1, 0.02, 3411.33, -1526)" gradientUnits="userSpaceOnUse"><stop offset="0" stop-color="#4f52ff"/><stop offset="1" stop-color="#4042e2"/></linearGradient><linearGradient id="linear-gradient-9" x1="2039.38" y1="1511.35" x2="1943.02" y2="2794.37" gradientUnits="userSpaceOnUse"><stop offset="0" stop-color="#ff928e"/><stop offset="1" stop-color="#fe7062"/></linearGradient><linearGradient id="linear-gradient-10" x1="1297.89" y1="-8430.22" x2="838.08" y2="-7098.11" gradientTransform="matrix(-1, 0, 0, 1, -579.86, 0)" xlink:href="#linear-gradient-9"/><linearGradient id="linear-gradient-11" x1="1350.25" y1="-8412.12" x2="890.44" y2="-7080.01" gradientTransform="matrix(-1, 0, 0, 1, -579.86, 0)" xlink:href="#linear-gradient-9"/><linearGradient id="linear-gradient-12" x1="-3341.96" y1="1133.09" x2="-3484.51" y2="1409.63" gradientTransform="matrix(-0.88, -0.47, -0.47, 0.88, 432.81, -1462.21)" xlink:href="#linear-gradient-8"/><linearGradient id="linear-gradient-13" x1="-2857.55" y1="1128.54" x2="-3000.1" y2="1405.08" gradientTransform="matrix(-0.58, -0.81, -0.81, 0.58, 1681.26, -1849.94)" xlink:href="#linear-gradient-8"/><linearGradient id="linear-gradient-14" x1="-2368.6" y1="1112.62" x2="-2511.15" y2="1389.17" gradientTransform="matrix(-1, -0.1, -0.1, 1, -443.04, -235.1)" xlink:href="#linear-gradient-8"/><linearGradient id="linear-gradient-15" x1="-1884.19" y1="1089.88" x2="-2026.74" y2="1366.42" gradientTransform="matrix(-0.95, -0.32, -0.32, 0.95, -85.41, -557.21)" xlink:href="#linear-gradient-8"/><linearGradient id="linear-gradient-16" x1="-1631.4" y1="487.65" x2="-2148.87" y2="1491.55" gradientTransform="matrix(-1, 0, 0, 1, -579.86, 0)" xlink:href="#linear-gradient-9"/><linearGradient id="linear-gradient-17" x1="-2115.77" y1="500.97" x2="-2633.4" y2="1505.17" gradientTransform="matrix(-1, 0, 0, 1, -579.86, 0)" xlink:href="#linear-gradient-9"/><linearGradient id="linear-gradient-18" x1="-2600.16" y1="514.4" x2="-3117.89" y2="1518.8" gradientTransform="matrix(-1, 0, 0, 1, -579.86, 0)" xlink:href="#linear-gradient-9"/><linearGradient id="linear-gradient-19" x1="-3084.52" y1="529.81" x2="-3602.49" y2="1534.68" gradientTransform="matrix(-1, 0, 0, 1, -579.86, 0)" xlink:href="#linear-gradient-9"/><linearGradient id="linear-gradient-20" x1="1035.22" y1="1695.7" x2="815.11" y2="1966.29" gradientTransform="matrix(-1, 0, 0, 1, 1938, 0)" gradientUnits="userSpaceOnUse"><stop offset="0" stop-color="#febbba"/><stop offset="1" stop-color="#ff928e"/></linearGradient><linearGradient id="linear-gradient-21" x1="426.9" y1="2382.65" x2="895.73" y2="1970.17" xlink:href="#linear-gradient-9"/><linearGradient id="linear-gradient-22" x1="874.75" y1="1465.73" x2="474.12" y2="2246.7" gradientUnits="userSpaceOnUse"><stop offset="0" stop-color="#e1473d"/><stop offset="1" stop-color="#e9605a"/></linearGradient><linearGradient id="linear-gradient-23" x1="410.63" y1="2364.15" x2="879.46" y2="1951.67" xlink:href="#linear-gradient-9"/><linearGradient id="linear-gradient-24" x1="779.32" y1="1892.52" x2="774.82" y2="1709.95" gradientTransform="matrix(1, 0, 0, 1, 0, 0)" xlink:href="#linear-gradient-20"/><linearGradient id="linear-gradient-25" x1="-14198.39" y1="5221.54" x2="-14023.79" y2="5422.28" gradientTransform="matrix(-0.95, 0.3, 0.3, 0.95, -14275.59, 932.45)" xlink:href="#linear-gradient-20"/><linearGradient id="linear-gradient-26" x1="849.95" y1="1453" x2="449.32" y2="2233.97" xlink:href="#linear-gradient-22"/><linearGradient id="linear-gradient-27" x1="-14154.77" y1="5183.6" x2="-13980.18" y2="5384.33" gradientTransform="matrix(-0.95, 0.3, 0.3, 0.95, -14275.59, 932.45)" xlink:href="#linear-gradient-20"/><linearGradient id="linear-gradient-28" x1="13578.72" y1="3476.88" x2="13995.28" y2="2741.56" gradientTransform="translate(-13093.53 56.94) rotate(-0.54)" xlink:href="#linear-gradient-20"/><linearGradient id="linear-gradient-29" x1="585.25" y1="2893.4" x2="713.73" y2="3350.97" gradientTransform="matrix(1, 0, 0, 1, 0, 0)" xlink:href="#linear-gradient-6"/><linearGradient id="linear-gradient-30" x1="847.3" y1="2878.72" x2="1268.8" y2="2592.47" gradientTransform="matrix(1, 0, 0, 1, 0, 0)" xlink:href="#linear-gradient-20"/><linearGradient id="linear-gradient-31" x1="1212.76" y1="2820.37" x2="984.56" y2="3008.01" gradientTransform="matrix(1, 0, 0, 1, 0, 0)" xlink:href="#linear-gradient-6"/><linearGradient id="linear-gradient-32" x1="637.11" y1="2243.74" x2="895.74" y2="2649.43" gradientTransform="matrix(1, 0, 0, 1, 0, 0)" xlink:href="#linear-gradient-8"/><linearGradient id="linear-gradient-33" x1="317.8" y1="2258.63" x2="786.63" y2="1846.15" xlink:href="#linear-gradient-9"/><linearGradient id="linear-gradient-34" x1="3569.86" y1="2139.32" x2="3826.18" y2="2139.32" gradientTransform="translate(-3037.28)" xlink:href="#linear-gradient-20"/><linearGradient id="linear-gradient-35" x1="3904.78" y1="1959.65" x2="4047.65" y2="2554.92" gradientTransform="translate(-3037.28)" xlink:href="#linear-gradient-6"/><linearGradient id="linear-gradient-36" x1="3994.23" y1="1865.82" x2="3963.8" y2="1999.43" gradientTransform="translate(-3037.28)" xlink:href="#linear-gradient-8"/><linearGradient id="linear-gradient-37" x1="3978.31" y1="1921.86" x2="3963.75" y2="2009.17" gradientTransform="translate(-3037.28)" xlink:href="#linear-gradient-8"/><linearGradient id="linear-gradient-38" x1="3806.89" y1="2117.13" x2="3887.83" y2="2117.13" gradientTransform="translate(-3037.28)" xlink:href="#linear-gradient-20"/><linearGradient id="linear-gradient-39" x1="2751.29" y1="3174.48" x2="2934.26" y2="3174.48" gradientTransform="matrix(1, 0, 0, 1, 0, 0)" xlink:href="#linear-gradient-8"/><linearGradient id="linear-gradient-40" x1="-2410.74" y1="3138.62" x2="-2232.92" y2="3138.62" gradientTransform="matrix(-1, 0, 0, 1, 523.53, 0)" xlink:href="#linear-gradient-6"/><linearGradient id="linear-gradient-41" x1="-2393.84" y1="3088.55" x2="-2342.3" y2="3088.55" gradientTransform="matrix(-1, 0, 0, 1, 523.53, 0)" xlink:href="#linear-gradient-20"/><linearGradient id="linear-gradient-42" x1="3190.72" y1="3219.85" x2="3260.84" y2="3219.85" gradientTransform="matrix(1, 0, 0, 1, 0, 0)" xlink:href="#linear-gradient-8"/><linearGradient id="linear-gradient-43" x1="-2736.8" y1="3150.07" x2="-2633.88" y2="3150.07" gradientTransform="matrix(-1, 0, 0, 1, 523.53, 0)" xlink:href="#linear-gradient-6"/><linearGradient id="linear-gradient-44" x1="-2683.3" y1="3061.68" x2="-2621.71" y2="3061.68" gradientTransform="matrix(-1, 0, 0, 1, 523.53, 0)" xlink:href="#linear-gradient-20"/><linearGradient id="linear-gradient-45" x1="-2090.27" y1="2241.68" x2="-2616.15" y2="3103.11" gradientTransform="matrix(-1, 0, 0, 1, 523.53, 0)" xlink:href="#linear-gradient-6"/><linearGradient id="linear-gradient-46" x1="3303.48" y1="2103.63" x2="3019.49" y2="2357.19" gradientTransform="matrix(1, 0, 0, 1, 0, 0)" xlink:href="#linear-gradient-8"/><linearGradient id="linear-gradient-47" x1="2675.5" y1="2043.37" x2="2239.38" y2="1708.67" gradientTransform="matrix(1, 0, 0, 1, 0, 0)" xlink:href="#linear-gradient-20"/><linearGradient id="linear-gradient-48" x1="2456.37" y1="2485.05" x2="2902.66" y2="1927.19" xlink:href="#linear-gradient-9"/><linearGradient id="linear-gradient-49" x1="2935.1" y1="1417.1" x2="2813.38" y2="1738.29" xlink:href="#linear-gradient-22"/><linearGradient id="linear-gradient-50" x1="-2379.85" y1="1969.38" x2="-2353.16" y2="1829.26" gradientTransform="matrix(-1, 0, 0, 1, 523.53, 0)" xlink:href="#linear-gradient-20"/><linearGradient id="linear-gradient-51" x1="-2307.64" y1="1712.31" x2="-2459.91" y2="1828.82" gradientTransform="matrix(-1, 0, 0, 1, 523.53, 0)" xlink:href="#linear-gradient-20"/><linearGradient id="linear-gradient-52" x1="-2414.83" y1="1620.06" x2="-2273.01" y2="1802.65" gradientTransform="matrix(-1, 0, 0, 1, 523.53, 0)" xlink:href="#linear-gradient-6"/><linearGradient id="linear-gradient-53" x1="-2326.53" y1="1687.63" x2="-2478.8" y2="1804.14" gradientTransform="matrix(-1, 0, 0, 1, 523.53, 0)" xlink:href="#linear-gradient-20"/><linearGradient id="linear-gradient-54" x1="2291.66" y1="1739.27" x2="2351.53" y2="1739.27" xlink:href="#linear-gradient-9"/><linearGradient id="linear-gradient-55" x1="2895.98" y1="2336.26" x2="3119.12" y2="1954.21" gradientTransform="matrix(1, 0, 0, 1, 0, 0)" xlink:href="#linear-gradient-20"/><linearGradient id="linear-gradient-56" x1="-71.73" y1="2316.17" x2="-312.51" y2="2382.16" gradientTransform="translate(2904.8 -55.03) rotate(-2.83)" xlink:href="#linear-gradient-6"/><linearGradient id="linear-gradient-57" x1="2387.48" y1="2400.1" x2="2603.86" y2="2100.32" gradientTransform="matrix(1, 0, 0, 1, 0, 0)" xlink:href="#linear-gradient-6"/><linearGradient id="linear-gradient-58" x1="2464.27" y1="2202.4" x2="2506.41" y2="2202.4" gradientTransform="translate(814.35 -667.31) rotate(18.24)" xlink:href="#linear-gradient-8"/></defs><path class="cls-1" d="M3129.49,2336.85c-280.26,655.07-1020,936.44-1599.68,888.47-158.27-13.1-476.7-39.45-725.34-274.58C327,2499.2,400.53,1555.35,857.62,999.66c58.86-71.56,466.31-551,1101.24-544.6,464.86,4.7,791.14,267.3,830.81,300C2839.79,796.4,2950.34,894.6,3050,1050.4,3284.05,1416.47,3304.63,1927.5,3129.49,2336.85Z" transform="translate(-449.16 -455)"/><g class="cls-2"><path class="cls-3" d="M1319,1049.34a11,11,0,0,1,8.4,12.15c-1.58,12.36-3.73,24.85-6.37,37.1a11,11,0,0,1-13.12,8.46l-.21,0a11,11,0,0,1-8.25-13.07c2.51-11.64,4.55-23.5,6.06-35.25a11,11,0,0,1,12.35-9.55A10.43,10.43,0,0,1,1319,1049.34Zm-22.78,93.43a11.9,11.9,0,0,1,1.25.38,11,11,0,0,1,6.59,14.15c-4.29,11.77-9.12,23.46-14.37,34.77a11,11,0,0,1-20-9.29c5-10.75,9.58-21.86,13.66-33A11.06,11.06,0,0,1,1296.25,1142.77Zm-42.8,86.09a10.84,10.84,0,0,1,3.46,1.48,11,11,0,0,1,3.27,15.26c-6.78,10.5-14.11,20.83-21.78,30.7a11,11,0,1,1-17.44-13.53c7.28-9.38,14.24-19.19,20.68-29.16A11.07,11.07,0,0,1,1253.45,1228.86Zm-61,74.37a11,11,0,0,1,5.15,18.66c-9,8.72-18.43,17.15-28.1,25.07a11,11,0,0,1-14-17.09c9.19-7.52,18.17-15.53,26.69-23.81A11,11,0,0,1,1192.47,1303.23Zm-76,58.91a11,11,0,0,1,3.21,20.17c-10.65,6.49-21.73,12.62-32.93,18.21a11,11,0,1,1-9.86-19.75c10.65-5.31,21.18-11.14,31.3-17.31A11,11,0,0,1,1116.43,1362.14Zm-87.16,40.62a11,11,0,0,1,1,21.21c-11.84,4-24,7.5-36.15,10.47a11,11,0,0,1-5.23-21.45c11.53-2.82,23.09-6.17,34.34-10A11,11,0,0,1,1029.27,1402.76Zm-399.73-67.37a11.09,11.09,0,0,1,4.22,2c9.38,7.26,19.2,14.2,29.2,20.64a11,11,0,0,1-12,18.56c-10.52-6.78-20.87-14.09-30.75-21.73a11,11,0,0,1,9.29-19.48ZM935.33,1423a11,11,0,0,1-1.43,21.73c-12.44,1.25-25.08,2-37.57,2.16a11,11,0,0,1-.32-22.08c11.87-.17,23.87-.86,35.68-2A11,11,0,0,1,935.33,1423Zm-223.57-37.76a11.14,11.14,0,0,1,2.1.73c10.77,5,21.91,9.54,33.08,13.6a11,11,0,1,1-7.52,20.75c-11.76-4.26-23.48-9.07-34.81-14.31a11,11,0,0,1,7.15-20.77Zm127.46,36.55a11,11,0,0,1-3.94,21.69c-12.38-1.56-24.86-3.68-37.1-6.31l-.23,0a11,11,0,0,1,4.85-21.54c11.62,2.49,23.48,4.5,35.25,6C838.44,1421.66,838.84,1421.73,839.22,1421.82Z" transform="translate(-449.16 -455)"/><path class="cls-3" d="M572.77,1282.61a11,11,0,0,1,5.67,3.37c3.8,4.24,7.76,8.46,11.75,12.57a11,11,0,0,1-15.82,15.4c-4.2-4.32-8.36-8.77-12.36-13.22a11,11,0,0,1,10.76-18.12Z" transform="translate(-449.16 -455)"/></g><g class="cls-2"><path class="cls-3" d="M463.68,964.23a11.06,11.06,0,0,1,8.46,11.55c-.42,5.67-.72,11.46-.9,17.18a11,11,0,0,1-22.07-.7c.19-6,.51-12.11.95-18.09A11,11,0,0,1,461.93,964,12.51,12.51,0,0,1,463.68,964.23Z" transform="translate(-449.16 -455)"/><path class="cls-3" d="M990.86,576.72q7.41,1.75,14.82,3.77a11,11,0,0,1-5.79,21.31c-11.4-3.1-22.9-5.73-34.31-7.84a11,11,0,0,1,4-21.71C976.65,573.55,983.8,575.06,990.86,576.72Zm69.89,22.87a10.92,10.92,0,0,1,1.78.59c11.34,4.8,22.6,10.15,33.47,15.88a11,11,0,1,1-10.29,19.52c-10.33-5.44-21-10.51-31.8-15.08a11,11,0,0,1,6.84-20.91ZM911.87,565.67a11,11,0,0,1-3,21.77c-11.65-.53-23.48-.58-35.17-.12a11,11,0,1,1-.86-22.06c12.31-.48,24.77-.44,37,.13A11.39,11.39,0,0,1,911.87,565.67Zm231.42,80.25a11,11,0,0,1,3.89,1.78c10,7.18,19.81,14.87,29.16,22.86A11,11,0,1,1,1162,687.34c-8.88-7.59-18.19-14.89-27.69-21.7a11,11,0,0,1,9-19.72Zm-325.8-74.08a11,11,0,0,1-.6,21.61c-11.47,2-23,4.61-34.33,7.62a11,11,0,1,1-5.68-21.34c11.9-3.17,24.06-5.86,36.15-8A10.77,10.77,0,0,1,817.49,571.84Zm-90.74,26.72a11,11,0,0,1,1.73,20.93C717.7,624,707,629,696.62,634.41a11,11,0,1,1-10.19-19.58c10.9-5.67,22.18-11,33.53-15.71A11,11,0,0,1,726.75,598.56ZM644,644.43a11,11,0,0,1,3.84,19.75c-9.55,6.76-18.92,14-27.85,21.51a11,11,0,1,1-14.22-16.89c9.4-7.91,19.27-15.53,29.32-22.64A11,11,0,0,1,644,644.43Zm-70.78,62.82a11,11,0,0,1,5.65,18.14c-7.84,8.68-15.39,17.79-22.46,27.09a11,11,0,1,1-17.57-13.36c7.44-9.79,15.39-19.39,23.64-28.52A11,11,0,0,1,573.21,707.25Zm-55.28,76.86A11.06,11.06,0,0,1,525,800.27c-5.72,10.17-11.08,20.71-15.93,31.35A11,11,0,1,1,489,822.46c5.1-11.2,10.75-22.3,16.77-33A11,11,0,0,1,517.93,784.11Zm-37,87.07.66.17A11,11,0,0,1,489,885.11c-2.48,8.24-4.74,16.65-6.71,25q-1.08,4.54-2,9.08a11,11,0,0,1-13.1,8.49,10.91,10.91,0,0,1-8.49-13.09c.67-3.19,1.39-6.37,2.14-9.55,2.08-8.8,4.45-17.65,7.07-26.31A11,11,0,0,1,480.91,871.18Z" transform="translate(-449.16 -455)"/><path class="cls-3" d="M1213.77,709.5a10.93,10.93,0,0,1,5.71,3.4c4,4.47,7.92,9.11,11.74,13.79a11,11,0,1,1-17.09,14c-3.63-4.45-7.38-8.85-11.15-13.09a11,11,0,0,1,10.79-18.07Z" transform="translate(-449.16 -455)"/></g><path class="cls-3" d="M1169.86,830.69a5.18,5.18,0,0,0-5.26-2.87l-62.34,7.55A273.38,273.38,0,0,0,1036,776.55l0-62.76a5.16,5.16,0,0,0-3.47-4.88l-71.19-24.6a5.17,5.17,0,0,0-5.75,1.69L916.9,735.39a273.49,273.49,0,0,0-88.47,5.33l-44.37-44.43a5.15,5.15,0,0,0-5.9-1l-67.74,32.94a5.16,5.16,0,0,0-2.86,5.26l7.55,62.34a273.41,273.41,0,0,0-58.83,66.29l-62.75,0a5.16,5.16,0,0,0-4.88,3.47L564,936.73a5.17,5.17,0,0,0,1.69,5.75l49.39,38.71a273.41,273.41,0,0,0,5.34,88.46L576,1114a5.16,5.16,0,0,0-1,5.9L608,1187.67a5.14,5.14,0,0,0,5.26,2.86l62.33-7.55a273.6,273.6,0,0,0,66.29,58.83l-.05,62.75a5.17,5.17,0,0,0,3.48,4.88l71.19,24.61a5.15,5.15,0,0,0,5.74-1.69L860.93,1283a273.69,273.69,0,0,0,88.46-5.34l44.37,44.44a5.16,5.16,0,0,0,5.91,1l67.73-32.94a5.16,5.16,0,0,0,2.87-5.26l-7.55-62.33a273.56,273.56,0,0,0,58.82-66.29l62.76,0a5.17,5.17,0,0,0,4.88-3.48l24.6-71.19a5.15,5.15,0,0,0-1.69-5.74l-49.39-38.72a273.41,273.41,0,0,0-5.33-88.46l44.43-44.37a5.16,5.16,0,0,0,1-5.91Z" transform="translate(-449.16 -455)"/><path class="cls-4" d="M906.36,935.5a75.72,75.72,0,1,1-11-1.76A77.34,77.34,0,0,1,906.36,935.5Zm-30.91,130.16A60,60,0,0,0,884,1067a57.84,57.84,0,1,0-8.5-1.36Z" transform="translate(-449.16 -455)"/><path class="cls-5" d="M930,828.72a187.13,187.13,0,0,1,18.37,5.33h0c1.91.65,3.81,1.35,5.7,2.07A186.54,186.54,0,0,1,981,848.94l.35.2,1,.58,1.93,1.15a4.45,4.45,0,0,1,2,4.79,4.57,4.57,0,0,1-.53,1.28,4.41,4.41,0,0,1-6.06,1.48,177.54,177.54,0,0,0-202.51,12.84,176.35,176.35,0,0,0-57.22,80.8,179.85,179.85,0,0,0-5.08,17.53,177.38,177.38,0,0,0,114.75,208c92.46,32,193.59-17.26,225.54-109.67a177.71,177.71,0,0,0,6-94.27,4.33,4.33,0,0,1,0-1.93,4.41,4.41,0,0,1,8.61.11,186,186,0,0,1-6.29,99c-33.53,97-139.77,148.66-236.76,115.14A186.25,186.25,0,0,1,706.24,967.58a190.56,190.56,0,0,1,5.34-18.4A186.21,186.21,0,0,1,930,828.72Z" transform="translate(-449.16 -455)"/><g class="cls-2"><path class="cls-3" d="M1768.21,801.83a6.81,6.81,0,0,1,5.24,6.27c.31,5.78.45,11.65.41,17.44a6.82,6.82,0,0,1-13.64-.09c0-5.52-.09-11.11-.39-16.63a6.82,6.82,0,0,1,6.44-7.17A6.92,6.92,0,0,1,1768.21,801.83Z" transform="translate(-449.16 -455)"/><path class="cls-3" d="M1766.2,854.24a6.81,6.81,0,0,1,5.19,7.51,294.92,294.92,0,0,1-5.4,29.51q-.72,3.06-1.52,6.13a7.06,7.06,0,0,1-8.31,4.9,6.83,6.83,0,0,1-4.89-8.31c.5-2,1-3.91,1.45-5.86a285,285,0,0,0,5.15-28.13,6.81,6.81,0,0,1,7.64-5.88A5,5,0,0,1,1766.2,854.24Zm-17.72,68.53a7.84,7.84,0,0,1,.94.29,6.83,6.83,0,0,1,3.85,8.85,296,296,0,0,1-15.33,32.89,6.82,6.82,0,1,1-12-6.51,283.8,283.8,0,0,0,14.62-31.37A6.82,6.82,0,0,1,1748.48,922.77ZM1714.67,985a7,7,0,0,1,2.41,1.09,6.83,6.83,0,0,1,1.56,9.52,294.48,294.48,0,0,1-23,28.14,6.82,6.82,0,0,1-10-9.26,281.19,281.19,0,0,0,21.89-26.83A6.82,6.82,0,0,1,1714.67,985Zm-48.07,52a6.81,6.81,0,0,1,2.82,11.85,295,295,0,0,1-29.13,21.65,6.82,6.82,0,0,1-7.44-11.43,281.08,281.08,0,0,0,27.78-20.65A6.8,6.8,0,0,1,1666.6,1037Zm-59.3,38.66a6.82,6.82,0,0,1,1.43,12.76,296.36,296.36,0,0,1-33.5,13.92,6.82,6.82,0,1,1-4.46-12.88,283.8,283.8,0,0,0,32-13.29A6.79,6.79,0,0,1,1607.3,1075.61Zm-66.89,23.1a6.81,6.81,0,0,1-.14,13.3,292.34,292.34,0,0,1-35.88,5.33,6.82,6.82,0,1,1-1.17-13.59,276.41,276.41,0,0,0,34.21-5.08A6.8,6.8,0,0,1,1540.41,1098.71Zm-70.48,6a6.81,6.81,0,0,1-1.84,13.44,295,295,0,0,1-36.11-3.64,6.82,6.82,0,0,1,2.2-13.46,279.61,279.61,0,0,0,34.44,3.48A6.27,6.27,0,0,1,1469.93,1104.75Zm-103.22-23.48a6.89,6.89,0,0,1,1.14.37,285.18,285.18,0,0,0,28.25,10.44c1.45.45,2.88.89,4.32,1.3a6.82,6.82,0,0,1,4.63,8.46,6.75,6.75,0,0,1-8.45,4.64c-1.53-.45-3-.91-4.58-1.39a298.58,298.58,0,0,1-29.57-10.93,6.81,6.81,0,0,1,4.26-12.89Z" transform="translate(-449.16 -455)"/></g><g class="cls-2"><path class="cls-3" d="M1543.08,536.37a6.82,6.82,0,0,1-3,13.29,281.84,281.84,0,0,0-33.61-5.37,6.82,6.82,0,1,1,1.33-13.57,297,297,0,0,1,35.24,5.63Zm33.53,9.61a4.44,4.44,0,0,1,.71.21,297.66,297.66,0,0,1,32.9,13.86,6.82,6.82,0,1,1-6,12.23,283.22,283.22,0,0,0-31.39-13.23,6.82,6.82,0,0,1,3.82-13.07ZM1473.8,529.59a6.82,6.82,0,0,1-1.4,13.45,282.71,282.71,0,0,0-33.93,2.92,6.82,6.82,0,1,1-2-13.49,295.63,295.63,0,0,1,35.57-3.06A7.17,7.17,0,0,1,1473.8,529.59ZM1639,576.88a6.62,6.62,0,0,1,2.18.93,292.58,292.58,0,0,1,28.6,21.42,6.82,6.82,0,1,1-8.83,10.39,280.78,280.78,0,0,0-27.26-20.41,6.82,6.82,0,0,1,5.31-12.33Zm-234.11-37.12a6.82,6.82,0,0,1,.25,13.22A279.75,279.75,0,0,0,1373,564a6.82,6.82,0,1,1-5.18-12.62,296.17,296.17,0,0,1,33.79-11.52A6.84,6.84,0,0,1,1404.93,539.76Zm-64.41,26.39a6.82,6.82,0,0,1,1.76,12.59,283.72,283.72,0,0,0-28.67,18.38,6.82,6.82,0,1,1-8-11,298.32,298.32,0,0,1,30-19.27A6.84,6.84,0,0,1,1340.52,566.15Zm-56.25,41.07a6.82,6.82,0,0,1,3.09,11.62,280.37,280.37,0,0,0-23.43,24.72,6.82,6.82,0,1,1-10.45-8.76A294.67,294.67,0,0,1,1278,608.87,6.86,6.86,0,0,1,1284.27,607.22Z" transform="translate(-449.16 -455)"/><path class="cls-3" d="M1692.37,622.17a6.85,6.85,0,0,1,3.44,2c4,4.29,7.8,8.72,11.43,13.17a6.82,6.82,0,0,1-10.56,8.63c-3.46-4.24-7.13-8.47-10.9-12.57a6.82,6.82,0,0,1,6.59-11.25Z" transform="translate(-449.16 -455)"/></g><path class="cls-3" d="M1666.61,706.59a3.44,3.44,0,0,0-3.52-1.91l-41.71,5.05A182.94,182.94,0,0,0,1577,670.37l0-42a3.46,3.46,0,0,0-2.33-3.26l-47.63-16.47a3.47,3.47,0,0,0-3.85,1.13l-25.91,33.05a183.06,183.06,0,0,0-59.19,3.57l-29.69-29.73a3.46,3.46,0,0,0-4-.67l-45.33,22a3.43,3.43,0,0,0-1.92,3.52l5.06,41.71A183.19,183.19,0,0,0,1323,727.62l-42,0a3.47,3.47,0,0,0-3.27,2.33l-16.46,47.63a3.46,3.46,0,0,0,1.13,3.85l33.05,25.91A183.06,183.06,0,0,0,1299,866.5l-29.73,29.69a3.44,3.44,0,0,0-.67,3.95l22,45.33a3.48,3.48,0,0,0,3.52,1.92l41.72-5.06a182.82,182.82,0,0,0,44.35,39.37l0,42a3.45,3.45,0,0,0,2.32,3.26l47.64,16.47a3.44,3.44,0,0,0,3.84-1.13l25.91-33a183.1,183.1,0,0,0,59.2-3.57l29.69,29.73a3.44,3.44,0,0,0,4,.67l45.33-22a3.46,3.46,0,0,0,1.91-3.52l-5-41.72a182.76,182.76,0,0,0,39.36-44.35l42,0a3.44,3.44,0,0,0,3.26-2.33L1696,874.51a3.47,3.47,0,0,0-1.14-3.85l-33-25.9a183.1,183.1,0,0,0-3.57-59.2L1688,755.87a3.44,3.44,0,0,0,.66-4Z" transform="translate(-449.16 -455)"/><path class="cls-6" d="M1490.57,775.86a51.65,51.65,0,1,1-7.54-1.21A52.42,52.42,0,0,1,1490.57,775.86ZM1469.88,863a37.94,37.94,0,1,0,12-74.72h0a37.94,37.94,0,0,0-12,74.72Z" transform="translate(-449.16 -455)"/><path class="cls-7" d="M1507.11,701.55q6.3,1.49,12.54,3.64a129,129,0,0,1,23.75,11l1,.61a6.81,6.81,0,0,1,3.11,7.39,6.9,6.9,0,0,1-.81,2,6.82,6.82,0,0,1-9.36,2.29,115.51,115.51,0,0,0-22.14-10.38h0l-1.27-.43a113.75,113.75,0,0,0-56.07-4.2,114.94,114.94,0,0,0-29.43,9.44l-.23.11-.71.34a114,114,0,0,0-58.29,65.73,116.26,116.26,0,0,0-3.3,11.35,114.81,114.81,0,0,0,220.3,63.66q1.9-5.54,3.25-11.2a114.56,114.56,0,0,0,.63-49.82,6.83,6.83,0,0,1,5.27-8.08,6.82,6.82,0,0,1,8.07,5.28,128,128,0,0,1-.7,55.74q-1.5,6.35-3.63,12.53a128.45,128.45,0,0,1-246.47-71.22c1-4.25,2.24-8.49,3.68-12.69C1378,721.85,1443.81,686.61,1507.11,701.55Z" transform="translate(-449.16 -455)"/><path class="cls-8" d="M537.71,2687C577.46,2286,676.93,1290.18,698.65,1144.62c27.29-182.94,251.46-142.57,251.46-142.57l48,1851.3H685.55a147.32,147.32,0,0,1-110.22-49.86A152.8,152.8,0,0,1,537.71,2687Z" transform="translate(-449.16 -455)"/><path class="cls-9" d="M3066.5,2900a176.78,176.78,0,0,0,173-180.48L3207.6,1216.6a155.74,155.74,0,0,0-151.09-152.37L875.18,999.51a114.85,114.85,0,0,0-118.25,115.15l5.23,1723.22a109,109,0,0,0,111.33,108.66Z" transform="translate(-449.16 -455)"/><path class="cls-10" d="M3207.08,2773.85a51.34,51.34,0,0,0,50-59.31c-32.18-204.65-133.23-908.59-100.82-1493.06a47.48,47.48,0,0,0-45.85-50.17l-2191.16-69.9A54.63,54.63,0,0,0,862.85,1154c-9.32,245.73-44,1257.62,1.38,1617.32a43.28,43.28,0,0,0,43.65,37.82Z" transform="translate(-449.16 -455)"/><path class="cls-3" d="M3151.72,2750.84a49.41,49.41,0,0,0,48.08-57.08c-31-196.94-128.22-874.37-97-1436.84a45.69,45.69,0,0,0-44.13-48.28L950,1141.38a52.58,52.58,0,0,0-54.24,50.56c-9,236.47-42.37,1210.26,1.33,1556.42a41.65,41.65,0,0,0,42,36.39Z" transform="translate(-449.16 -455)"/><path class="cls-11" d="M1855.69,1566l3.22,151.86a41.52,41.52,0,0,1-41.28,42.4l-155.77.88a41.51,41.51,0,0,1-41.74-40.64l-3.39-159.66a41.52,41.52,0,0,1,43.35-42.36l155.93,6.91A41.53,41.53,0,0,1,1855.69,1566Z" transform="translate(-449.16 -455)"/><path class="cls-11" d="M2400.29,1759l-155.77.89a41.54,41.54,0,0,1-41.75-40.65l-2.88-135.79a41.54,41.54,0,0,1,43-42.38l155.9,5.6a41.52,41.52,0,0,1,40,40.62l2.75,129.31A41.52,41.52,0,0,1,2400.29,1759Z" transform="translate(-449.16 -455)"/><path class="cls-11" d="M2263.81,2435.42,2412,2434a45.31,45.31,0,0,1,45.75,44.35l2.94,138.75a45.31,45.31,0,0,1-43.39,46.24l-148.07,6.27a45.32,45.32,0,0,1-47.22-44.32l-3-143.59A45.31,45.31,0,0,1,2263.81,2435.42Z" transform="translate(-449.16 -455)"/><path class="cls-11" d="M2513.09,2613.75l-2.87-135.67a44.54,44.54,0,0,1,44.09-45.48l149.73-1.45a44.55,44.55,0,0,1,45,43.59l2.77,130.79a44.54,44.54,0,0,1-42.64,45.44l-149.63,6.34A44.55,44.55,0,0,1,2513.09,2613.75Z" transform="translate(-449.16 -455)"/><path class="cls-11" d="M2500.1,2001.26l-2.36-111.37a47.92,47.92,0,0,1,48-48.94l143,.25a47.93,47.93,0,0,1,47.83,46.92l2.26,106.43a47.93,47.93,0,0,1-46.35,48.92l-142.87,4.67A47.93,47.93,0,0,1,2500.1,2001.26Z" transform="translate(-449.16 -455)"/><path class="cls-11" d="M2507,2324.9l-3.62-170.34a44.54,44.54,0,0,1,43.07-45.46l146.23-4.78a47.91,47.91,0,0,1,49.48,46.88l3.65,171.8a44.54,44.54,0,0,1-44.53,45.48l-149.75,0A44.54,44.54,0,0,1,2507,2324.9Z" transform="translate(-449.16 -455)"/><path class="cls-12" d="M2109,1760.62l-155.77.88a41.52,41.52,0,0,1-41.74-40.64L1908.33,1573a41.53,41.53,0,0,1,43-42.38l155.91,5.6a41.53,41.53,0,0,1,40,40.62l3,141.43A41.52,41.52,0,0,1,2109,1760.62Z" transform="translate(-449.16 -455)"/><path class="cls-11" d="M2215.61,2324.18l-3.38-159.32a45.31,45.31,0,0,1,43.82-46.25l148.1-4.85a45.3,45.3,0,0,1,46.78,44.33l3.49,164.15a45.32,45.32,0,0,1-45.3,46.27l-148.21,0A45.31,45.31,0,0,1,2215.61,2324.18Z" transform="translate(-449.16 -455)"/><path class="cls-11" d="M1949.16,1839.87l170.1.31a34.37,34.37,0,0,1,34.3,33.63l3.25,153.2a34.37,34.37,0,0,1-33.24,35.08l-170,5.56a34.36,34.36,0,0,1-35.48-33.62L1914.74,1875A34.36,34.36,0,0,1,1949.16,1839.87Z" transform="translate(-449.16 -455)"/><path class="cls-11" d="M1862.39,1881.91l3.09,145.9a43.18,43.18,0,0,1-41.77,44.09l-152.33,5a43.2,43.2,0,0,1-44.6-42.26l-3.21-151.16a43.19,43.19,0,0,1,43.26-44.11l152.45.27A43.21,43.21,0,0,1,1862.39,1881.91Z" transform="translate(-449.16 -455)"/><path class="cls-11" d="M2414.72,2052.56l-170,5.56a34.37,34.37,0,0,1-35.48-33.62l-3.16-149a34.37,34.37,0,0,1,34.42-35.1l170.11.31a34.38,34.38,0,0,1,34.3,33.64l3,143.14A34.37,34.37,0,0,1,2414.72,2052.56Z" transform="translate(-449.16 -455)"/><path class="cls-11" d="M1964.91,2128.14l148.1-4.85a45.3,45.3,0,0,1,46.78,44.33l3.28,154.65a45.31,45.31,0,0,1-45.3,46.27l-148.2,0a45.3,45.3,0,0,1-45.3-44.35l-3.18-149.82A45.31,45.31,0,0,1,1964.91,2128.14Z" transform="translate(-449.16 -455)"/><path class="cls-11" d="M1668.64,2137.83l158.47-5.18a40.11,40.11,0,0,1,41.43,39.25l3.3,155.7a40.13,40.13,0,0,1-40.11,41H1673.15a40.12,40.12,0,0,1-40.12-39.27l-3.19-150.53A40.12,40.12,0,0,1,1668.64,2137.83Z" transform="translate(-449.16 -455)"/><path class="cls-11" d="M2669.81,1755.44l-118.22.67a57.57,57.57,0,0,1-57.88-56.35l-2.07-97.54a51.29,51.29,0,0,1,53.12-52.35l131.57,4.73a56.36,56.36,0,0,1,54.32,55.12l1.72,81.45A62.93,62.93,0,0,1,2669.81,1755.44Z" transform="translate(-449.16 -455)"/><path class="cls-11" d="M2801.57,2478.69a47.93,47.93,0,0,1,47.45-48.94l51.51-.5c39.14-.38,71.14,25.49,71.83,58.07l2,94.29c.69,32.31-29.7,59.39-68.48,61l-55.29,2.34a44.52,44.52,0,0,1-46.41-43.55Z" transform="translate(-449.16 -455)"/><path class="cls-11" d="M1145.53,2446.27l101.28-1a45.35,45.35,0,0,1,45.78,44.39l3.75,176.67a45.35,45.35,0,0,1-43.42,46.27l-100.83,4.27c-40.2,1.7-73.93-24.51-74.63-58l-3.22-151.51C1073.54,2474.16,1105.61,2446.66,1145.53,2446.27Z" transform="translate(-449.16 -455)"/><path class="cls-11" d="M2896.43,2368.46h-50.27a47.93,47.93,0,0,1-47.92-46.91l-3.67-173.17a47.92,47.92,0,0,1,46.35-48.92l50.6-1.65c39.89-1.31,73.11,24.81,73.81,58l3.21,151.5C2969.26,2340.84,2936.67,2368.45,2896.43,2368.46Z" transform="translate(-449.16 -455)"/><path class="cls-11" d="M2892.2,2036.93l-63.28,2.07a36.25,36.25,0,0,1-37.43-35.46l-2.65-125.07a36.25,36.25,0,0,1,36.3-37l63.91.12c38.76.07,70.16,25.81,70.85,58.07l1.61,76.22C2962.2,2008.45,2931.33,2035.65,2892.2,2036.93Z" transform="translate(-449.16 -455)"/><path class="cls-13" d="M1129.35,1499l101.57,3.65a43.18,43.18,0,0,1,41.63,42.24l3.7,174.51a43.19,43.19,0,0,1-42.94,44.11l-104.58.59c-39,.22-70.8-25.6-71.49-58.07l-3.09-146C1053.42,1525.58,1087.94,1497.55,1129.35,1499Z" transform="translate(-449.16 -455)"/><path class="cls-11" d="M1972.53,2438.25l148.17-1.44a45.31,45.31,0,0,1,45.74,44.35l3.15,148.26a45.32,45.32,0,0,1-43.39,46.23l-148.07,6.27a45.32,45.32,0,0,1-47.22-44.31l-3.25-153.09A45.32,45.32,0,0,1,1972.53,2438.25Z" transform="translate(-449.16 -455)"/><path class="cls-11" d="M1133.62,1838.4l103,.18a43.2,43.2,0,0,1,43.11,42.28l3.52,166a43.2,43.2,0,0,1-41.77,44.09l-103.37,3.38c-39.89,1.31-73.11-24.8-73.81-58l-2.9-136.8C1060.64,1866,1093.32,1838.32,1133.62,1838.4Z" transform="translate(-449.16 -455)"/><path class="cls-11" d="M1137.37,2155.22l107.46-3.52a40.13,40.13,0,0,1,41.43,39.26l2.9,136.7a40.13,40.13,0,0,1-40.12,41h-108c-38.82,0-70.33-25.76-71-58.07l-2-94.29C1067.38,2183.7,1098.25,2156.5,1137.37,2155.22Z" transform="translate(-449.16 -455)"/><path class="cls-11" d="M1577.4,2181.43l3.1,146.2a40.12,40.12,0,0,1-40.11,41l-158.58,0a40.13,40.13,0,0,1-40.12-39.28l-3-141a40.14,40.14,0,0,1,38.81-41l158.47-5.18A40.12,40.12,0,0,1,1577.4,2181.43Z" transform="translate(-449.16 -455)"/><path class="cls-11" d="M1390,2443.9l148.1-1.44a45.36,45.36,0,0,1,45.78,44.39l3.54,167.17A45.36,45.36,0,0,1,1544,2700.3l-148,6.26a45.35,45.35,0,0,1-47.26-44.35l-3.65-172A45.35,45.35,0,0,1,1390,2443.9Z" transform="translate(-449.16 -455)"/><path class="cls-11" d="M2883.88,1754.23l-62,.35a36.26,36.26,0,0,1-36.45-35.48l-2.59-122.33a36.24,36.24,0,0,1,37.54-37l65.64,2.36c37.58,1.35,67.26,26.7,67.92,58l1.55,73C2956.22,1726.45,2923.93,1754,2883.88,1754.23Z" transform="translate(-449.16 -455)"/><path class="cls-11" d="M1681.28,2441.07l145.61-1.41a47.87,47.87,0,0,1,48.32,46.86l3.3,155.18a45.36,45.36,0,0,1-43.43,46.27l-148,6.27a45.36,45.36,0,0,1-47.26-44.35l-3.45-162.51A45.36,45.36,0,0,1,1681.28,2441.07Z" transform="translate(-449.16 -455)"/><path class="cls-11" d="M1564.12,1555.41l3.44,162.39a43.19,43.19,0,0,1-42.94,44.11l-152.42.86a43.2,43.2,0,0,1-43.43-42.28l-3.58-168.73a43.19,43.19,0,0,1,44.74-44.08l152.55,5.48A43.2,43.2,0,0,1,1564.12,1555.41Z" transform="translate(-449.16 -455)"/><path class="cls-11" d="M1571,1881.39l3.31,155.95a43.19,43.19,0,0,1-41.77,44.09l-152.34,5a43.2,43.2,0,0,1-44.59-42.26l-3.42-161.22a43.19,43.19,0,0,1,43.26-44.11l152.45.28A43.18,43.18,0,0,1,1571,1881.39Z" transform="translate(-449.16 -455)"/><path class="cls-14" d="M2900.79,1430.58l-7,51.42a33.79,33.79,0,0,1-32.76,29.21l-2.43,0a33.78,33.78,0,0,1-34.48-33.06l-1.12-52.64a33.78,33.78,0,0,1,37.47-34.29l10.56,1.16A33.79,33.79,0,0,1,2900.79,1430.58Z" transform="translate(-449.16 -455)"/><path class="cls-14" d="M2662.09,1417.34l-7,51.42a33.77,33.77,0,0,1-32.75,29.21l-2.43,0A33.78,33.78,0,0,1,2585.4,1465l-1.11-52.64a33.77,33.77,0,0,1,37.46-34.29l10.57,1.16A33.78,33.78,0,0,1,2662.09,1417.34Z" transform="translate(-449.16 -455)"/><path class="cls-14" d="M2368.41,1421.38l-7,51.43a33.77,33.77,0,0,1-32.75,29.2l-2.43,0a33.78,33.78,0,0,1-34.49-33l-1.12-52.64a33.79,33.79,0,0,1,37.47-34.3l10.57,1.17A33.78,33.78,0,0,1,2368.41,1421.38Z" transform="translate(-449.16 -455)"/><path class="cls-14" d="M2082.28,1408.57l-7,51.42a33.77,33.77,0,0,1-32.75,29.21l-2.43,0a33.79,33.79,0,0,1-34.49-33.06l-1.11-52.64a33.77,33.77,0,0,1,37.46-34.29l10.57,1.16A33.78,33.78,0,0,1,2082.28,1408.57Z" transform="translate(-449.16 -455)"/><path class="cls-14" d="M1788.4,1371.2l-7,51.42a33.78,33.78,0,0,1-32.76,29.21l-2.43.05a33.77,33.77,0,0,1-34.48-33.06l-1.12-52.64a33.78,33.78,0,0,1,37.47-34.29l10.56,1.16A33.79,33.79,0,0,1,1788.4,1371.2Z" transform="translate(-449.16 -455)"/><path class="cls-14" d="M1477.07,1377.8l-7,51.43a33.78,33.78,0,0,1-32.75,29.2l-2.43,0a33.77,33.77,0,0,1-34.49-33l-1.12-52.64a33.79,33.79,0,0,1,37.47-34.3l10.56,1.17A33.78,33.78,0,0,1,1477.07,1377.8Z" transform="translate(-449.16 -455)"/><path class="cls-14" d="M1214.29,1372.3l-7,51.42a33.78,33.78,0,0,1-32.75,29.21l-2.43,0a33.77,33.77,0,0,1-34.49-33.06l-1.12-52.64A33.78,33.78,0,0,1,1174,1333l10.56,1.16A33.78,33.78,0,0,1,1214.29,1372.3Z" transform="translate(-449.16 -455)"/><path class="cls-15" d="M1634.5,1952.92c.65-11.11,12.26-15.87,20.81-9.14,24.16,19,34,48.57,45.88,76.13,13.87,32.12,27.16,64.48,39,97.41a899.83,899.83,0,0,1,31.14,106c16-42.87,34.66-84.63,58.29-124.25,6.27-10.52,24-4.36,20.47,8.13-20.43,72.63-45.57,143.78-64.81,216.77-6.79,25.76-42,19.67-44.64-5.08-7.17-67.6-23.49-132.26-46.66-196.11-11-30.35-23.32-60.23-36.06-89.9C1646.6,2006.58,1632.8,1982.09,1634.5,1952.92Z" transform="translate(-449.16 -455)"/><path class="cls-16" d="M1601.32,2006.79c21-3.93,28.66,23,9.39,31.44-127.49,56.09-144.16,214.14-52.06,309.85,42.6,44.26,99.12,78.62,152.64,108.15,54.28,29.95,114.88,52.84,177.87,46.51,146-14.67,165.86-163.28,122.2-277.95-42-110.3-131.91-195.44-242-236.26-14.22-5.27-8.71-28.42,5.87-23.2,103.29,37.05,191.21,110.12,245.67,205.74,50.1,87.95,80.16,212,14.58,300.31-67.86,91.36-196.67,93-293.72,54.91-106.75-41.89-239.67-119.62-282.17-232.41C1415.08,2175.72,1470,2031.36,1601.32,2006.79Z" transform="translate(-449.16 -455)"/><path class="cls-14" d="M756.93,2824.82a5.53,5.53,0,0,0,5.53-5.5L769.18,1849a5.53,5.53,0,0,0-5.49-5.57h0a5.53,5.53,0,0,0-5.54,5.49l-6.72,970.32a5.54,5.54,0,0,0,5.49,5.57Z" transform="translate(-449.16 -455)"/><path class="cls-3" d="M765.19,1631.71a5.54,5.54,0,0,0,5.53-5.5l2.35-338.89a5.53,5.53,0,0,0-5.49-5.56h0a5.53,5.53,0,0,0-5.54,5.49l-2.35,338.89a5.53,5.53,0,0,0,5.49,5.56Z" transform="translate(-449.16 -455)"/><circle class="cls-17" cx="2841.98" cy="1288.06" r="59.12" transform="translate(-720.67 1038.42) rotate(-28.15)"/><circle class="cls-18" cx="2357.57" cy="1283.51" r="59.12" transform="translate(-511.33 1990.59) rotate(-54.22)"/><circle class="cls-19" cx="1868.62" cy="1267.59" r="59.12" transform="translate(-564.98 -264.7) rotate(-5.65)"/><circle class="cls-20" cx="1384.21" cy="1244.85" r="59.12" transform="translate(-771.79 46.61) rotate(-18.43)"/><path class="cls-21" d="M1339.25,835.18c99.49,21.71,90.1,283.45,82.1,389.72a47.9,47.9,0,0,1-47.79,44.29,24.58,24.58,0,0,1-24.38-27.21c8.6-80.32,26.88-311.61-46.36-324,0,0-52.54-9.3-61.38,92.47H1184.6S1214.17,807.89,1339.25,835.18Z" transform="translate(-449.16 -455)"/><path class="cls-22" d="M1823.65,848.64c99.49,21.71,90.11,283.54,82.1,389.81a47.93,47.93,0,0,1-47.79,44.34,24.55,24.55,0,0,1-24.37-27.18c8.59-80.31,26.88-311.79-46.36-324.16,0,0-52.54-7.26-61.38,92.29H1669S1698.57,821.35,1823.65,848.64Z" transform="translate(-449.16 -455)"/><path class="cls-23" d="M2308.06,862.16c99.49,21.71,90.1,283.61,82.1,389.87a48,48,0,0,1-47.79,44.37,24.52,24.52,0,0,1-24.38-27.15c8.6-80.32,26.88-311.91-46.36-324.28,0,0-52.51-5.91-61.35,94.15l-56.87-2S2183,834.87,2308.06,862.16Z" transform="translate(-449.16 -455)"/><path class="cls-24" d="M2792.47,877.8c99.48,21.71,90.1,283.75,82.09,390a48,48,0,0,1-47.79,44.44,24.45,24.45,0,0,1-24.37-27.1C2811,1204.83,2829.28,973,2756,960.6c0,0-52.54-7.65-61.38,91.9h-56.84S2667.38,850.51,2792.47,877.8Z" transform="translate(-449.16 -455)"/><path class="cls-25" d="M843.54,1841.37,898,2014.17s63.23,46.6,143.86,2.12a204.27,204.27,0,0,0,38.19-27.33c97.86-87.33,32.94-214.39,32.94-214.39s74.68-30.13,41.5-93.53a5.42,5.42,0,0,0-10,1.1c-4.83,17.49-16.63,48-41.33,58.91-1.27.51-2.46,1.1-3.56,1.61a12.82,12.82,0,0,1,1.52-11.38c7.73-11.71-6.19-27.75-6.19-27.75s-.93,14.18-11.63,23c-9.25,7.73-13.66,24.7-7.38,38.7,13.41,52,33.43,120.61-44.56,170.86a65,65,0,0,1-24.79,9.59C932.06,1958.15,843.54,1841.37,843.54,1841.37Z" transform="translate(-449.16 -455)"/><path class="cls-26" d="M843.54,1841.37,898,2014.17s63.23,46.6,143.86,2.12l-35.31-70.61C932.06,1958.15,843.54,1841.37,843.54,1841.37Z" transform="translate(-449.16 -455)"/><path class="cls-27" d="M827.2,1629.44s30.85-107.46-84.58-77.91c0,0-56.56-7.88-58.18,45.37,0,0-24.44,36.84-25.47,82.24,0,0-111.14,28.73-128.68,73.26-17.95,45.58-8,118,37.64,130.48,0,0-36.28,19.3-17.92,60.51s107.06,68.49,157.85,16.64c0,0,148.39,16.07,143-88.35,0,0,67.76-46-6.54-130.7S827.2,1629.44,827.2,1629.44Z" transform="translate(-449.16 -455)"/><path class="cls-28" d="M836.24,1822.36c-23.33-7-91.26-19.91-155.88,39.72A40,40,0,0,0,668.84,1902c17.35,63.89,63.14,252.65,23,334.33,0,0,70.75,78,147.94,15.13,0,0,34.63-150.94,80-217.2,31.32-45.74-49.93-171.78-70.49-202.23A24.12,24.12,0,0,0,836.24,1822.36Z" transform="translate(-449.16 -455)"/><path class="cls-29" d="M771.82,1695.42s-34.5,97.6-37.1,140.65c0,0,38.14,17.34,74.07-11.92,0,0,3.77-97.49,9.22-114.94Z" transform="translate(-449.16 -455)"/><path class="cls-30" d="M827.15,1599s93.19,124.14,40.12,162.08-119.41-50.27-119.41-50.27-22.56-68.61-1.22-92.57S827.15,1599,827.15,1599Z" transform="translate(-449.16 -455)"/><path class="cls-31" d="M784.68,1569.82s41.68,8.85,47.93,27.47-57.93,37.52-76,38.8l-12.8,76s-44.78-70.18-28.67-111.69S784.68,1569.82,784.68,1569.82Z" transform="translate(-449.16 -455)"/><path class="cls-32" d="M765.14,1701.12s-36.08-39.85-49.42-13,32.7,45.67,48.17,32.28Z" transform="translate(-449.16 -455)"/><path class="cls-33" d="M929.88,2568.32c-.27,6.85,11.76,61.2,18.31,90.19a47.74,47.74,0,0,1-5.14,34.26L716.3,3074.4a52.1,52.1,0,0,0-5.95,14.85c-4.16,17.91-12.78,61.8-8.28,101.73l11.73,24.36-50.73-11.52-11-136.24,14.36-8.76a68.2,68.2,0,0,0,27.6-32.31c20.51-49.8,71.42-176.58,84.55-238.36,14.91-70.22,92.89-127.26,92.89-127.26l-13.7-32.38Z" transform="translate(-449.16 -455)"/><path class="cls-34" d="M606.69,3156.94s27.39-43.43,30.62-60.34,12.19-46.76,29.08-37.78c0,0,8,82.13,5.22,114.23s36.28,31.06,36.28,31.06,10.75,1.51,18.63,9.38c5.44,5.44,1.55,14.87-6.13,15.36a219.52,219.52,0,0,1-54.35-3.07,16.63,16.63,0,0,1-13.41-15.34L647,3115.91l-34.56,43.64Z" transform="translate(-449.16 -455)"/><path class="cls-35" d="M794.42,2629.11s-8,341.37-9.08,389.85,7.65,155.93,56.26,188l-21.15,15.66S794,3200.2,768.2,3157c-29-48.56-37.78-57.44-37.78-57.44l9.62-19.71a43.25,43.25,0,0,0,3.51-27.8c-10.48-50.83-45.52-219.91-55.08-256.32-11.28-43-12.08-100.38,27.17-148.43S794.42,2629.11,794.42,2629.11Z" transform="translate(-449.16 -455)"/><path class="cls-36" d="M749.54,3238.05a3,3,0,0,1-3-2.56c-1.61-11.38-8.35-57-13.86-68.82-6.31-13.53-26.92-70.48,0-75.32,0,0,67,97.85,79.82,111S841.6,3207,841.6,3207a48.41,48.41,0,0,1,22,15.78,8.87,8.87,0,0,1-7,14.25l-45.11.43a31.75,31.75,0,0,1-29.75-20c-7.94-19.84-21.58-48.93-37.48-61.83l8.26,79.1A3,3,0,0,1,749.54,3238.05Z" transform="translate(-449.16 -455)"/><path class="cls-37" d="M850.45,2214.61s-10.17,32.4,5.45,85.76l96.88,338.31a10.48,10.48,0,0,1-6.55,12.75c-29,10.4-124.24,39.79-254.28,30.83a14.76,14.76,0,0,1-13.46-11.5c-8.57-38.56-37.81-170.15-43.83-197.19-22.93-103-48.54-214.13,64.12-281.31C750.7,2214.5,799.13,2227.61,850.45,2214.61Z" transform="translate(-449.16 -455)"/><path class="cls-38" d="M537.26,2083.81s-.74.05-.74,0c12.21-9.59,77-9.94,77-9.94s47.07-68.15,63-85.06l1.48-1.48c.35-.35.7-.7,1.22-1.14,5.83-5.4,12-10.81,18.74-16.38a58.64,58.64,0,0,0,16.91-23.1c24.92-62.76,5.23-103.81-40.1-77.48,0,0-95.79,79.57-133,192.35-.43,1.4-.78,2.71-1.22,4-1.49,5.23-3,10.2-4.27,14.82-.09.35.29.85.2,1.19C536.26,2082.35,537.52,2083,537.26,2083.81Z" transform="translate(-449.16 -455)"/><path class="cls-39" d="M774.16,2124.77s-111.32,62.92-148.89,9.19c-7.79-11.15-13.65-49.56-11.73-60.13-33.37-16.85-58.48,7.92-77.22,6.54-4.91,25.75-7.3,50.82,7.83,78.5,65.8,120.36,244.75-6.65,244.75-6.65Z" transform="translate(-449.16 -455)"/><path class="cls-40" d="M760.79,2204.37l60.75-212.18a6.2,6.2,0,0,1,5.24-4.46c11-1.28,42.9-4.89,79.73-8,44.36-3.76,95.88-6.8,126.67-4.21a6.21,6.21,0,0,1,5.07,8.94c-17.51,35.41-89.52,179.48-125.58,226.67a6.2,6.2,0,0,1-5,2.46l-141-1.31A6.2,6.2,0,0,1,760.79,2204.37Z" transform="translate(-449.16 -455)"/><path class="cls-41" d="M912.81,1961.33l44.05-7.34a3.17,3.17,0,0,1,3.53,4.11L956,1971.31a3.14,3.14,0,0,1-2.58,2.15l-42.39,5.66a3.16,3.16,0,0,1-3.49-3.85l2.69-11.54A3.18,3.18,0,0,1,912.81,1961.33Z" transform="translate(-449.16 -455)"/><path class="cls-42" d="M879.83,1998.62l3.63-18.9a4.36,4.36,0,0,1,3.85-3.52l89-9a4.37,4.37,0,0,1,4.69,5.37l-5.66,23.55a4.36,4.36,0,0,1-4,3.34l-86.94,4.38A4.37,4.37,0,0,1,879.83,1998.62Z" transform="translate(-449.16 -455)"/><path class="cls-43" d="M775.47,2153.1s-8.47-34.8-5.05-47.15,10-28.22,32.07-24.69,48.06,12.82,48.06,12.82-1.31,16.08-18.07,10.89l10.39,8s-1.49,12.88-15.64,6l9.67,10.66s-6.08,10.58-16.5,3.79S805,2157.29,775.47,2153.1Z" transform="translate(-449.16 -455)"/><path class="cls-44" d="M2756.45,3165.63c31.35,2.71,85.75,7.11,128.64,9,25.78,1.14,40.62-1.39,49.17-4.81,0,1,0,1.88-.08,2.72a8.86,8.86,0,0,1-8.43,8.38,1506.57,1506.57,0,0,1-168.43.17,6.32,6.32,0,0,1-5.15-9.49A53.53,53.53,0,0,1,2756.45,3165.63Z" transform="translate(-449.16 -455)"/><path class="cls-45" d="M2885.09,3174.62c-42.89-1.88-97.29-6.28-128.64-9,30.82-37.81,128.64-63.3,128.64-63.3h27.62c19,27.39,21.76,53.47,21.55,67.48C2925.71,3173.23,2910.87,3175.76,2885.09,3174.62Z" transform="translate(-449.16 -455)"/><path class="cls-46" d="M2917.37,3057.23l-2.59,51.16a11.68,11.68,0,0,1-10,11,45.45,45.45,0,0,1-20.76-1.72,13.83,13.83,0,0,1-9.29-10.63l-8.93-49.8Z" transform="translate(-449.16 -455)"/><path class="cls-47" d="M3238,3224.64c13.6-2.45,19.75-11.57,22.33-21.33l.05.26a24.32,24.32,0,0,1-11.91,26c-11.2,6.13-23.45,7.18-33,6.67a30.46,30.46,0,0,1-24.71-14.73l-.08-.13C3201,3228,3215.33,3228.73,3238,3224.64Z" transform="translate(-449.16 -455)"/><path class="cls-48" d="M3173.91,3073h22.79c34.7-.91,56.49,93.69,63.63,130.32-2.58,9.76-8.73,18.88-22.33,21.33-22.67,4.09-37,3.32-47.28-3.23-18.75-31.89-28-78.59-32.51-105.84C3153.13,3084.57,3173.91,3073,3173.91,3073Z" transform="translate(-449.16 -455)"/><path class="cls-49" d="M3193.77,3025.51l12.65,50.32a13.64,13.64,0,0,1-7.11,15.47c-7.07,3.64-17,7.45-26.19,6.35a11.42,11.42,0,0,1-9.31-7.61l-18.57-52.94Z" transform="translate(-449.16 -455)"/><path class="cls-50" d="M2748.74,2362.8s113.05,706.7,111.19,710.58c0,0,31.22,14.19,65.27,1.81,0,0-10.23-377.78-34.18-522.63,0,0,192.94,337.66,254.22,505.91,0,0,32-3.81,58.41-21.22,0,0-207.75-607.77-263.18-688.72Z" transform="translate(-449.16 -455)"/><path class="cls-51" d="M2886.5,2548.88a3.33,3.33,0,0,0,2.83-5.11l-42.25-67.48a3.33,3.33,0,0,0-2.17-1.5l-31.09-6.26a3.34,3.34,0,1,0-1.32,6.55l29.68,6,41.49,66.27A3.33,3.33,0,0,0,2886.5,2548.88Z" transform="translate(-449.16 -455)"/><path class="cls-52" d="M2229.93,1670.8s76.29,16.82,122.69,38.25a42.29,42.29,0,0,1,20.75,20.86c13.88,30.4,55.4,106.63,135.92,143-11.6,15.39-30.27,47.4-38.4,101.21-48.36-36-90.11-96.11-110.16-194.69,0,0-15.26,8.3-34.3-1-10.06-4.89-21.68-11.82-30.4-17.27a39.88,39.88,0,0,1-17.67-23.73c-3.32-13-1.36-24.47-1.36-36.75l-39.22-12.15S2226,1684.15,2229.93,1670.8Z" transform="translate(-449.16 -455)"/><path class="cls-53" d="M2470.89,1974.13c8.13-53.81,26.8-85.82,38.4-101.21,50,22.6,115.08,29.82,197.94,1.11a87.73,87.73,0,0,1,23.68-4.67c44.11-2.59,189.46-7.31,309.74,32.43a93.49,93.49,0,0,1,56.38,51.32c32.53,74.67,85.21,244.71-61,330.55a363.83,363.83,0,0,0-35.29-66.79c23.54-39.72,30.52-94-11.27-164.62-30.47,82.28-44.77,202.34-47.75,255.47a114.14,114.14,0,0,0,8.94,51.1l.75,1.76a6,6,0,0,1-4.24,8.26c-82.33,18.49-168,13.47-193.53,11.35a10.56,10.56,0,0,1-9.41-8.05c-40-168.68-40.12-283.74-30.32-356.47C2676.45,2024,2561.94,2041.9,2470.89,1974.13Z" transform="translate(-449.16 -455)"/><path class="cls-54" d="M2713.73,2020.21a3.35,3.35,0,0,0,3.31-2.9c9.4-71,28.54-102,28.73-102.32a3.34,3.34,0,1,0-5.63-3.58c-.82,1.29-20.1,32.32-29.72,105a3.34,3.34,0,0,0,2.87,3.75A3.25,3.25,0,0,0,2713.73,2020.21Z" transform="translate(-449.16 -455)"/><path class="cls-55" d="M2916.89,1771.1s8.33,88.06,15.66,114.1a8.91,8.91,0,0,1-4.2,10.17c-12.44,7.11-42.29,18.71-83.12-1.3a18.52,18.52,0,0,1-10.28-17.43l3.6-85.09Z" transform="translate(-449.16 -455)"/><path class="cls-56" d="M2836.75,1658.45s-26.64,61.19-28.42,93.31-8.71,53,28.42,59.42,68.42-12,85.37-44c0,0,26.55-49.3,20.59-69.49S2836.75,1658.45,2836.75,1658.45Z" transform="translate(-449.16 -455)"/><path class="cls-57" d="M2909.43,1744.16l-2.12-.94a5.1,5.1,0,0,1-2.49-7c5.24-10.12,15.45-33.3,2.26-38.71-17-7-84.32-20.7-98.84-44.59-14-23-1.59-52.59,17-61a2.55,2.55,0,0,1,3.34,1.09l1.55,2.93a2.53,2.53,0,0,0,4.66-.47,2.51,2.51,0,0,1,4.54-.66c4.47,7.15,16.52,18.74,48.76,24.69,45.81,8.45,76.1,27,76.85,58.65a2.53,2.53,0,0,0,3.91,2.08c3.38-2.06,8.79-3,16,3,12.59,10.58,7.44,38-20.14,60.6a2.5,2.5,0,0,0,.12,4c5,3.26,12.45,11-6.86,21.32-20,10.68-34.9,9.81-40.64,8.86a2.51,2.51,0,0,1-2-3l6.13-27.83a2.52,2.52,0,0,0-2.46-3.06Z" transform="translate(-449.16 -455)"/><path class="cls-58" d="M2908.27,1750s10.17-39.09,27.69-28.13-9.09,43.79-23.18,45.26Z" transform="translate(-449.16 -455)"/><path class="cls-59" d="M2340.39,1770.35a3.34,3.34,0,0,0,2.58-5.45c-2.88-3.55-28.48-34.85-38.35-40.42-3.58-2-5.72-4.12-6.18-6a4.94,4.94,0,0,1,.45-3.15l30.08,6,17,14.63a3.34,3.34,0,0,0,4.35-5.07l-17.7-15.2a3.49,3.49,0,0,0-1.52-.74l-33.3-6.67a3.33,3.33,0,0,0-3.43,1.41c-2.44,3.62-3.25,7-2.47,10.29.92,3.9,4,7.28,9.4,10.33,7.42,4.2,28.83,29.45,36.45,38.82A3.33,3.33,0,0,0,2340.39,1770.35Z" transform="translate(-449.16 -455)"/><path class="cls-60" d="M2909.57,2326l-117.74,1.46,41.2-38.79a30.76,30.76,0,0,1,37.7-3.54,89.31,89.31,0,0,1,20.94,18.66s73.44-26.84,109-86.9a363.83,363.83,0,0,1,35.29,66.79C3004.09,2302.4,2962.71,2317.13,2909.57,2326Z" transform="translate(-449.16 -455)"/><path class="cls-61" d="M2896.88,2341.16l-.69,0-298.86-.32a13.24,13.24,0,1,1,0-26.47l298.86.32a13.23,13.23,0,0,1,.66,26.45Z" transform="translate(-449.16 -455)"/><path class="cls-62" d="M2328.66,2072.68h248.9a47.47,47.47,0,0,1,42.9,26.91L2735.53,2341H2426.21A28.83,28.83,0,0,1,2399.4,2323l-89.23-223.39A19.69,19.69,0,0,1,2328.66,2072.68Z" transform="translate(-449.16 -455)"/><ellipse class="cls-63" cx="2485.34" cy="2202.4" rx="19.59" ry="31.57" transform="translate(-1013.69 433.7) rotate(-18.24)"/></svg>