<?xml version="1.0" encoding="utf-8"?>
<!-- Generator: Adobe Illustrator 25.0.0, SVG Export Plug-In . SVG Version: 6.00 Build 0)  -->
<svg version="1.1" id="Layer_1" xmlns="http://www.w3.org/2000/svg" xmlns:xlink="http://www.w3.org/1999/xlink" x="0px" y="0px"
	 viewBox="0 0 113.4 113.4" style="enable-background:new 0 0 113.4 113.4;" xml:space="preserve">
<style type="text/css">
	.st0{fill:#003B49;}
</style>
<path class="st0" d="M14.7,62.9c0,16.8,6.2,26.2,19.7,26.2c9.7,0,17.3-6.8,20.9-17.3c0-0.2,0.1-0.2,0.1-0.2v0.2
	C60,82.5,69.6,89.1,82.8,89.1c14,0,25.2-8.6,25.2-21.5c0-9.3-4.9-14.9-14.7-20.3c-1.4-0.8-4.5-2.5-5.8-3.3c-5.1-3-8.1-5.7-8.1-11.2
	c0-5.8,4.3-9.7,10.1-9.7c9,0,12.6,8,15.1,16.8h2.2l-1.2-19.2h-1.7l-0.3,0.3c-1.2,1.7-2.6,1.7-5,0.8c-2.8-1.1-5.9-2-9.4-2
	c-10.9,0-19,8.2-19,18.5c0,8.8,4.3,14.4,12.9,19c1.2,0.6,4.1,2.4,5.6,3.1c5,2.8,9,5.7,9,12.1c0,8.3-7.1,12.9-14.8,12.9
	c-12.3,0-19.3-9.6-19.3-25.9V21.7H42.1v2.7h0.7c8.3,0.9,9.3,2.7,9.3,12.9v22.1c0,15.7-5.4,25-14.3,25c-8.1,0-11.1-7.5-11.1-20.6
	V21.7H5.4v2.7h0.5c7.7,0.9,8.9,2,8.9,12.6v25.9L14.7,62.9z"/>
</svg>
