<svg xmlns="http://www.w3.org/2000/svg" width="47.271" height="47.271" data-name="microsoft outlook" viewBox="0 0 47.271 47.271"><path fill="#0364b8" d="M37.47,2h-25.4A2.074,2.074,0,0,0,10,4.074V6.432l14.314,4.432,15.23-4.432V4.074A2.074,2.074,0,0,0,37.47,2Z" data-name="Path 94" transform="translate(4.772 .954)"/><path fill="#0a2767" d="M42.936,21.416a16.754,16.754,0,0,0,.517-2.075.984.984,0,0,0-.492-.851l-.019-.012-.006,0-16.01-9.12a2.22,2.22,0,0,0-2.4,0L8.517,18.476l-.006,0-.018.01A.984.984,0,0,0,8,19.34a16.758,16.758,0,0,0,.517,2.075L25.493,33.832Z" data-name="Path 95" transform="translate(3.818 4.295)"/><path fill="#28a8ea" d="M28.3,5H17.964L14.979,9.432l2.985,4.432L28.3,22.726h8.863V13.863Z" data-name="Path 96" transform="translate(7.148 2.386)"/><path fill="#0078d4" d="M10,5H20.34v8.863H10Z" data-name="Path 97" transform="translate(4.772 2.386)"/><path fill="#50d9ff" d="M24,5h8.863v8.863H24Z" data-name="Path 98" transform="translate(11.453 2.386)"/><path fill="#0364b8" d="M30.681,19.863,20.34,11H10v8.863l10.34,8.863,16,2.612Z" data-name="Path 99" transform="translate(4.772 5.249)"/><path fill="none" d="M10.031,5h29.5" data-name="Path 100" transform="translate(4.787 2.386)"/><path fill="#0078d4" d="M17,11H27.34v8.863H17Z" data-name="Path 101" transform="translate(8.112 5.249)"/><path fill="#064a8c" d="M10,17H20.34v8.863H10Z" data-name="Path 102" transform="translate(4.772 8.112)"/><path fill="#0078d4" d="M24,17h8.863v8.863H24Z" data-name="Path 103" transform="translate(11.453 8.112)"/><path fill="#0a2767" d="M25.818,29.751,8.4,17.047l.731-1.285S25,24.8,25.243,24.939a.78.78,0,0,0,.62-.018l16.15-9.2L42.746,17Z" data-name="Path 104" opacity=".5" transform="translate(4.007 7.501)"/><path fill="#1490df" d="M37.544,16.852l-.021.012,0,0-16.01,9.12a2.211,2.211,0,0,1-2.157.134L24.927,33.6,37.12,36.252v.006a2.213,2.213,0,0,0,.916-1.793V16A.984.984,0,0,1,37.544,16.852Z" data-name="Path 105" transform="translate(9.235 7.635)"/><path d="M38.036,31.567v-1.09l-14.747-8.4-1.78,1.015a2.211,2.211,0,0,1-2.157.134L24.927,30.7,37.12,33.354v.006A2.213,2.213,0,0,0,38.036,31.567Z" data-name="Path 106" opacity=".05" transform="translate(9.235 10.534)"/><path d="M37.962,31.857,21.8,22.65l-.288.162a2.211,2.211,0,0,1-2.157.136l5.575,7.476L37.12,33.079v.006a2.217,2.217,0,0,0,.842-1.226Z" data-name="Path 107" opacity=".1" transform="translate(9.235 10.809)"/><path fill="#28a8ea" d="M8.517,16.872v-.015H8.5l-.044-.03A.96.96,0,0,1,8,16V34.465a2.213,2.213,0,0,0,2.216,2.216H41.237a2.22,2.22,0,0,0,.547-.074.941.941,0,0,0,.266-.089.21.21,0,0,0,.089-.03,1.548,1.548,0,0,0,.34-.192c.03-.015.044-.015.059-.044Z" data-name="Path 108" transform="translate(3.818 7.635)"/><path d="M22.772,33.1V8.969A1.975,1.975,0,0,0,20.8,7H11V18.014L8.517,19.429l-.007,0-.018.01A.984.984,0,0,0,8,20.295V35.067H20.8A1.975,1.975,0,0,0,22.772,33.1Z" data-name="Path 109" opacity=".1" transform="translate(3.818 3.34)"/><path d="M21.295,34.1V9.969A1.975,1.975,0,0,0,19.326,8H11v9.537L8.517,18.952l-.007,0-.018.01A.984.984,0,0,0,8,19.818V36.067H19.326A1.975,1.975,0,0,0,21.295,34.1Z" data-name="Path 110" opacity=".2" transform="translate(3.818 3.818)"/><path d="M21.295,31.143V9.969A1.975,1.975,0,0,0,19.326,8H11v9.537L8.517,18.952l-.007,0-.018.01A.984.984,0,0,0,8,19.818V33.112H19.326A1.975,1.975,0,0,0,21.295,31.143Z" data-name="Path 111" opacity=".2" transform="translate(3.818 3.818)"/><path d="M19.818,31.143V9.969A1.975,1.975,0,0,0,17.849,8H11v9.537L8.517,18.952l-.007,0-.018.01A.984.984,0,0,0,8,19.818V33.112h9.849A1.975,1.975,0,0,0,19.818,31.143Z" data-name="Path 112" opacity=".2" transform="translate(3.818 3.818)"/><path fill="#0078d4" d="M1.969,8h19.7a1.969,1.969,0,0,1,1.969,1.969v19.7a1.969,1.969,0,0,1-1.969,1.969H1.969A1.969,1.969,0,0,1,0,29.666V9.969A1.969,1.969,0,0,1,1.969,8Z" data-name="Path 113" transform="translate(0 3.818)"/><path fill="#fff" d="M4.133,14.647a6.176,6.176,0,0,1,2.426-2.68A7.334,7.334,0,0,1,10.414,11a6.82,6.82,0,0,1,3.564.916,6.116,6.116,0,0,1,2.361,2.56,8.268,8.268,0,0,1,.827,3.767,8.717,8.717,0,0,1-.852,3.938,6.262,6.262,0,0,1-2.43,2.65,7.091,7.091,0,0,1-3.7.941,6.986,6.986,0,0,1-3.646-.926,6.21,6.21,0,0,1-2.39-2.564,8.064,8.064,0,0,1-.838-3.721A8.944,8.944,0,0,1,4.133,14.647Zm2.585,6.29A4.012,4.012,0,0,0,8.082,22.7a3.562,3.562,0,0,0,2.132.643,3.742,3.742,0,0,0,2.276-.663,3.845,3.845,0,0,0,1.325-1.768,6.834,6.834,0,0,0,.422-2.46,7.479,7.479,0,0,0-.4-2.491,3.943,3.943,0,0,0-1.279-1.832,3.526,3.526,0,0,0-2.256-.7,3.683,3.683,0,0,0-2.182.648,4.049,4.049,0,0,0-1.394,1.777,7.055,7.055,0,0,0-.01,5.082Z" data-name="Path 114" transform="translate(1.579 5.248)"/><path fill="none" d="M0,0H47.271V47.271H0Z" data-name="Path 115"/></svg>