<?xml version="1.0" encoding="utf-8"?>
<!-- Generator: Adobe Illustrator 25.0.0, SVG Export Plug-In . SVG Version: 6.00 Build 0)  -->
<svg version="1.1" id="Layer_1" xmlns="http://www.w3.org/2000/svg" xmlns:xlink="http://www.w3.org/1999/xlink" x="0px" y="0px"
	 viewBox="0 0 1599 1200" style="enable-background:new 0 0 1599 1200;" xml:space="preserve">
<style type="text/css">
	.st0{fill:#8BAFBB;}
	.st1{fill:#5C7985;}
	.st2{fill:#F5E304;}
	.st3{filter:url(#Adobe_OpacityMaskFilter);}
	.st4{fill-rule:evenodd;clip-rule:evenodd;fill:#FFFFFF;}
	.st5{mask:url(#mask-2_1_);fill:#FFFFFF;}
	.st6{filter:url(#Adobe_OpacityMaskFilter_1_);}
	.st7{mask:url(#mask-4_1_);fill:#FFFFFF;}
	.st8{filter:url(#Adobe_OpacityMaskFilter_2_);}
	.st9{mask:url(#mask-6_1_);fill:#FFFFFF;}
	.st10{fill:#FFFFFF;}
	.st11{fill:#FF7E6F;}
	.st12{fill:#C0E1DD;}
	.st13{fill:#95C3B4;}
	.st14{fill:#A3CEC1;}
	.st15{filter:url(#Adobe_OpacityMaskFilter_3_);}
	.st16{mask:url(#mask-8_1_);fill:#5C7985;}
	.st17{filter:url(#Adobe_OpacityMaskFilter_4_);}
	.st18{mask:url(#mask-8_2_);fill:#5C7985;}
	.st19{filter:url(#Adobe_OpacityMaskFilter_5_);}
	.st20{mask:url(#mask-10_1_);fill:#5C7985;}
	.st21{filter:url(#Adobe_OpacityMaskFilter_6_);}
	.st22{mask:url(#mask-10_2_);fill:#5C7985;}
	.st23{filter:url(#Adobe_OpacityMaskFilter_7_);}
	.st24{mask:url(#mask-12_1_);fill:#5C7985;}
	.st25{filter:url(#Adobe_OpacityMaskFilter_8_);}
	.st26{mask:url(#mask-12_2_);fill:#5C7985;}
	.st27{filter:url(#Adobe_OpacityMaskFilter_9_);}
	.st28{mask:url(#mask-14_1_);fill:#FFFFFF;}
	.st29{filter:url(#Adobe_OpacityMaskFilter_10_);}
	.st30{mask:url(#mask-14_2_);fill:#FFFFFF;}
	.st31{filter:url(#Adobe_OpacityMaskFilter_11_);}
	.st32{mask:url(#mask-16_1_);fill:#FFFFFF;}
</style>
<desc>Created with Sketch.</desc>
<g id="Patterns">
	<g id="Reuss" transform="translate(-1.000000, 0.000000)">
		<g id="Module">
			<g transform="translate(400.000000, 400.000000)">
				<rect id="Shape" class="st0" width="200" height="200"/>
				<ellipse id="Shape_1_" class="st1" cx="100" cy="98" rx="82" ry="81"/>
				<g id="Shape_2_">
					<rect id="path-1_1_" y="99.7" class="st2" width="200" height="100"/>
				</g>
				<defs>
					<filter id="Adobe_OpacityMaskFilter" filterUnits="userSpaceOnUse" x="18" y="18.7" width="163.9" height="161.9">
						<feColorMatrix  type="matrix" values="1 0 0 0 0  0 1 0 0 0  0 0 1 0 0  0 0 0 1 0"/>
					</filter>
				</defs>
				<mask maskUnits="userSpaceOnUse" x="18" y="18.7" width="163.9" height="161.9" id="mask-2_1_">
					<g class="st3">
						<rect id="path-1_2_" y="99.7" class="st4" width="200" height="100"/>
					</g>
				</mask>
				<ellipse id="Shape_3_" class="st5" cx="100" cy="99.7" rx="82" ry="80.9"/>
			</g>
			
				<g transform="translate(700.000000, 900.000000) rotate(-270.000000) translate(-700.000000, -900.000000) translate(600.000000, 800.000000)">
				
					<rect id="Shape_4_" transform="matrix(2.535182e-06 1 -1 2.535182e-06 199.9997 -2.535179e-04)" class="st0" width="200" height="200"/>
				
					<ellipse id="Shape_5_" transform="matrix(2.535182e-06 1 -1 2.535182e-06 199.9731 -6.201717e-02)" class="st1" cx="100" cy="100" rx="81" ry="82"/>
				<g id="Shape_6_">
					
						<rect id="path-3_1_" x="50" y="50" transform="matrix(2.535182e-06 1 -1 2.535182e-06 249.9997 49.9996)" class="st2" width="100" height="200"/>
				</g>
				<defs>
					<filter id="Adobe_OpacityMaskFilter_1_" filterUnits="userSpaceOnUse">
						<feColorMatrix  type="matrix" values="1 0 0 0 0  0 1 0 0 0  0 0 1 0 0  0 0 0 1 0"/>
					</filter>
				</defs>
				<mask maskUnits="userSpaceOnUse" id="mask-4_1_">
					<g class="st6">
						
							<rect id="path-3_2_" x="50" y="50" transform="matrix(2.535182e-06 1 -1 2.535182e-06 249.9997 49.9996)" class="st4" width="100" height="200"/>
					</g>
				</mask>
				
					<ellipse id="Shape_7_" transform="matrix(2.535182e-06 1 -1 2.535182e-06 199.9852 0.1116)" class="st7" cx="99.9" cy="100" rx="80.9" ry="82"/>
			</g>
			
				<g transform="translate(1100.000000, 700.000000) rotate(-90.000000) translate(-1100.000000, -700.000000) translate(1000.000000, 600.000000)">
				
					<rect id="Shape_8_" transform="matrix(-2.535182e-06 -1 1 -2.535182e-06 2.535185e-04 200.0003)" class="st0" width="200" height="200"/>
				
					<ellipse id="Shape_9_" transform="matrix(-2.535182e-06 -1 1 -2.535182e-06 2.0269 198.062)" class="st1" cx="100" cy="98" rx="81" ry="82"/>
				<g id="Shape_10_">
					
						<rect id="path-5_1_" x="50" y="50" transform="matrix(-2.535182e-06 -1 1 -2.535182e-06 -49.9997 250.0004)" class="st2" width="100" height="200"/>
				</g>
				<defs>
					<filter id="Adobe_OpacityMaskFilter_2_" filterUnits="userSpaceOnUse" x="18" y="-180.6" width="163.9" height="161.9">
						<feColorMatrix  type="matrix" values="1 0 0 0 0  0 1 0 0 0  0 0 1 0 0  0 0 0 1 0"/>
					</filter>
				</defs>
				<mask maskUnits="userSpaceOnUse" x="18" y="-180.6" width="163.9" height="161.9" id="mask-6_1_">
					<g class="st8">
						
							<rect id="path-5_2_" x="50" y="50" transform="matrix(-2.535182e-06 -1 1 -2.535182e-06 -49.9997 250.0004)" class="st4" width="100" height="200"/>
					</g>
				</mask>
				
					<ellipse id="Shape_11_" transform="matrix(-2.535182e-06 -1 1 -2.535182e-06 0.276 199.6272)" class="st9" cx="100" cy="99.7" rx="80.9" ry="82"/>
			</g>
			
				<g transform="translate(500.000000, 700.000000) scale(1, -1) rotate(-180.000000) translate(-500.000000, -700.000000) translate(400.000000, 600.000000)">
				<rect id="Shape_12_" y="200" class="st10" width="200" height="-200"/>
				<path id="Shape_13_" class="st1" d="M199.8,23L199.8,23v121.8c0,30.4-24.6,55-55,55H23C23,102.2,102.2,23,199.8,23z"/>
				<circle id="Shape_14_" class="st11" cx="166" cy="169.3" r="15.7"/>
			</g>
			
				<g transform="translate(500.000000, 900.000000) scale(1, -1) translate(-500.000000, -900.000000) translate(400.000000, 800.000000)">
				<rect id="Shape_15_" y="200" class="st12" width="200" height="-200"/>
				<circle id="Shape_16_" class="st10" cx="100.3" cy="99.2" r="57.7"/>
				<polygon id="Shape_17_" class="st1" points="101.3,98.8 116,98.8 116,100.4 101.3,100.4 101.3,114.9 99.5,114.9 99.5,100.4 
					85.1,100.4 85.1,98.8 99.5,98.8 99.5,84 101.3,84 				"/>
			</g>
			
				<g transform="translate(700.000000, 1100.000000) scale(1, -1) translate(-700.000000, -1100.000000) translate(600.000000, 1000.000000)">
				<rect id="Shape_18_" y="200" class="st1" width="200" height="-200"/>
			</g>
			
				<g transform="translate(300.000000, 700.000000) scale(1, -1) rotate(-180.000000) translate(-300.000000, -700.000000) translate(200.000000, 600.000000)">
				<rect id="Shape_23_" y="200" class="st12" width="200" height="-200"/>
				<path id="Shape_24_" class="st13" d="M200,200L200,200V100C200,44.8,155.2,0,100,0H0C0,110.5,89.5,200,200,200z"/>
			</g>
			
				<g transform="translate(1300.000000, 1100.000000) scale(1, -1) rotate(-180.000000) translate(-1300.000000, -1100.000000) translate(1200.000000, 1000.000000)">
				<rect id="Shape_25_" y="200" class="st12" width="200" height="-200"/>
				<path id="Shape_26_" class="st13" d="M200,200L200,200V100C200,44.8,155.2,0,100,0H0C0,110.5,89.5,200,200,200z"/>
			</g>
			
				<g transform="translate(700.000000, 700.000000) scale(1, -1) translate(-700.000000, -700.000000) translate(600.000000, 600.000000)">
				<rect id="Shape_28_" y="200" class="st14" width="200" height="-200"/>
				<path id="Shape_29_" class="st12" d="M0,0L0,0c0,110.5,89.5,200,200,200l0,0C200,89.5,110.5,0,0,0z"/>
			</g>
			
				<g transform="translate(1100.000000, 900.000000) scale(1, -1) translate(-1100.000000, -900.000000) translate(1000.000000, 800.000000)">
				<g id="Shape_30_">
					<rect id="path-7_1_" y="200" class="st13" width="200" height="-200"/>
				</g>
				<defs>
					<filter id="Adobe_OpacityMaskFilter_3_" filterUnits="userSpaceOnUse" x="148.6" y="-251.4" width="102.2" height="102.2">
						<feColorMatrix  type="matrix" values="1 0 0 0 0  0 1 0 0 0  0 0 1 0 0  0 0 0 1 0"/>
					</filter>
				</defs>
				<mask maskUnits="userSpaceOnUse" x="148.6" y="-251.4" width="102.2" height="102.2" id="mask-8_1_">
					<g class="st15">
						<rect id="path-7_2_" y="200" class="st4" width="200" height="-200"/>
					</g>
				</mask>
				<circle id="Shape_31_" class="st16" cx="199.7" cy="200.3" r="51.1"/>
				<defs>
					<filter id="Adobe_OpacityMaskFilter_4_" filterUnits="userSpaceOnUse" x="-51.4" y="-50.8" width="102.2" height="102.2">
						<feColorMatrix  type="matrix" values="1 0 0 0 0  0 1 0 0 0  0 0 1 0 0  0 0 0 1 0"/>
					</filter>
				</defs>
				<mask maskUnits="userSpaceOnUse" x="-51.4" y="-50.8" width="102.2" height="102.2" id="mask-8_2_">
					<g class="st17">
						<rect id="path-7_3_" y="200" class="st4" width="200" height="-200"/>
					</g>
				</mask>
				<circle id="Shape_32_" class="st18" cx="-0.3" cy="-0.3" r="51.1"/>
			</g>
			
				<g transform="translate(1300.000000, 300.000000) scale(-1, 1) rotate(-270.000000) translate(-1300.000000, -300.000000) translate(1200.000000, 200.000000)">
				
					<rect id="Shape_35_" y="200" transform="matrix(2.535182e-06 1 -1 2.535182e-06 199.9997 -2.535179e-04)" class="st10" width="200" height="-200"/>
				<path id="Shape_36_" class="st1" d="M199.8,23L199.8,23v121.8c0,30.4-24.6,55-55,55H23C23,102.2,102.2,23,199.8,23z"/>
				<circle id="Shape_37_" class="st11" cx="166" cy="169.3" r="15.7"/>
			</g>
			
				<g transform="translate(1100.000000, 500.000000) scale(-1, 1) rotate(-270.000000) translate(-1100.000000, -500.000000) translate(1000.000000, 400.000000)">
				
					<rect id="Shape_38_" y="200" transform="matrix(2.535182e-06 1 -1 2.535182e-06 199.9997 -2.535179e-04)" class="st12" width="200" height="-200"/>
				<circle id="Shape_39_" class="st10" cx="100.3" cy="99.2" r="57.7"/>
				<polygon id="Shape_40_" class="st1" points="101.3,98.8 116,98.8 116,100.4 101.3,100.4 101.3,114.9 99.5,114.9 99.5,100.4 
					85.1,100.4 85.1,98.8 99.5,98.8 99.5,84 101.3,84 				"/>
			</g>
			
				<g transform="translate(900.000000, 700.000000) scale(-1, 1) rotate(-270.000000) translate(-900.000000, -700.000000) translate(800.000000, 600.000000)">
				
					<rect id="Shape_41_" y="200" transform="matrix(2.535182e-06 1 -1 2.535182e-06 199.9997 -2.535179e-04)" class="st1" width="200" height="-200"/>
			</g>
			
				<g transform="translate(900.000000, 500.000000) scale(-1, 1) rotate(-270.000000) translate(-900.000000, -500.000000) translate(800.000000, 400.000000)">
				
					<rect id="Shape_42_" y="200" transform="matrix(2.535182e-06 1 -1 2.535182e-06 199.9997 -2.535179e-04)" class="st14" width="200" height="-200"/>
				<path id="Shape_43_" class="st11" d="M199.4,0.6L199.4,0.6C199.4,110.7,110.2,200,0,200l0,0C0,89.8,89.3,0.6,199.4,0.6z"/>
			</g>
			
				<g transform="translate(900.000000, 300.000000) rotate(-270.000000) translate(-900.000000, -300.000000) translate(800.000000, 200.000000)">
				
					<rect id="Shape_44_" transform="matrix(2.535182e-06 1 -1 2.535182e-06 199.9997 -2.535179e-04)" class="st14" width="200" height="200"/>
				<path id="Shape_45_" class="st2" d="M17,0h166.3v99.7c0,45.9-37.2,83.1-83.1,83.1S17,145.6,17,99.7V0z"/>
			</g>
			
				<g transform="translate(900.000000, 100.000000) scale(-1, 1) rotate(-270.000000) translate(-900.000000, -100.000000) translate(800.000000, 0.000000)">
				
					<rect id="Shape_46_" y="200" transform="matrix(2.535182e-06 1 -1 2.535182e-06 199.9997 -2.535179e-04)" class="st12" width="200" height="-200"/>
				<circle id="Shape_47_" class="st11" cx="99.7" cy="99.7" r="15.7"/>
			</g>
			
				<g transform="translate(1300.000000, 900.000000) scale(-1, 1) rotate(-270.000000) translate(-1300.000000, -900.000000) translate(1200.000000, 800.000000)">
				
					<rect id="Shape_48_" y="200" transform="matrix(2.535182e-06 1 -1 2.535182e-06 199.9997 -2.535179e-04)" class="st12" width="200" height="-200"/>
				<circle id="Shape_49_" class="st11" cx="99.7" cy="99.7" r="15.7"/>
			</g>
			
				<g transform="translate(1300.000000, 100.000000) scale(-1, 1) rotate(-270.000000) translate(-1300.000000, -100.000000) translate(1200.000000, 0.000000)">
				
					<rect id="Shape_52_" y="200" transform="matrix(2.535182e-06 1 -1 2.535182e-06 199.9997 -2.535179e-04)" class="st12" width="200" height="-200"/>
				<path id="Shape_53_" class="st13" d="M200,200L200,200V100C200,44.8,155.2,0,100,0H0C0,110.5,89.5,200,200,200z"/>
			</g>
			
				<g transform="translate(1300.000000, 500.000000) scale(-1, 1) rotate(-270.000000) translate(-1300.000000, -500.000000) translate(1200.000000, 400.000000)">
				
					<rect id="Shape_54_" y="200" transform="matrix(2.535182e-06 1 -1 2.535182e-06 199.9997 -2.535179e-04)" class="st2" width="200" height="-200"/>
			</g>
			
				<g transform="translate(1300.000000, 700.000000) scale(-1, 1) rotate(-270.000000) translate(-1300.000000, -700.000000) translate(1200.000000, 600.000000)">
				
					<rect id="Shape_55_" y="200" transform="matrix(2.535182e-06 1 -1 2.535182e-06 199.9997 -2.535179e-04)" class="st14" width="200" height="-200"/>
				<path id="Shape_56_" class="st12" d="M0,0L0,0c0,110.5,89.5,200,200,200l0,0C200,89.5,110.5,0,0,0z"/>
			</g>
			
				<g transform="translate(500.000000, 100.000000) scale(-1, 1) translate(-500.000000, -100.000000) translate(400.000000, 0.000000)">
				<rect id="Shape_57_" y="200" class="st14" width="200" height="-200"/>
				<path id="Shape_58_" class="st12" d="M0,0L0,0c0,110.5,89.5,200,200,200l0,0C200,89.5,110.5,0,0,0z"/>
			</g>
			
				<g transform="translate(1100.000000, 300.000000) scale(-1, 1) rotate(-270.000000) translate(-1100.000000, -300.000000) translate(1000.000000, 200.000000)">
				<g id="Shape_59_">
					
						<rect id="path-9_1_" y="200" transform="matrix(2.535182e-06 1 -1 2.535182e-06 199.9997 -2.535179e-04)" class="st13" width="200" height="-200"/>
				</g>
				<defs>
					<filter id="Adobe_OpacityMaskFilter_5_" filterUnits="userSpaceOnUse">
						<feColorMatrix  type="matrix" values="1 0 0 0 0  0 1 0 0 0  0 0 1 0 0  0 0 0 1 0"/>
					</filter>
				</defs>
				<mask maskUnits="userSpaceOnUse" id="mask-10_1_">
					<g class="st19">
						
							<rect id="path-9_2_" y="200" transform="matrix(2.535182e-06 1 -1 2.535182e-06 199.9997 -2.535179e-04)" class="st4" width="200" height="-200"/>
					</g>
				</mask>
				<circle id="Shape_60_" class="st20" cx="199.7" cy="200.3" r="51.1"/>
				<defs>
					<filter id="Adobe_OpacityMaskFilter_6_" filterUnits="userSpaceOnUse">
						<feColorMatrix  type="matrix" values="1 0 0 0 0  0 1 0 0 0  0 0 1 0 0  0 0 0 1 0"/>
					</filter>
				</defs>
				<mask maskUnits="userSpaceOnUse" id="mask-10_2_">
					<g class="st21">
						
							<rect id="path-9_3_" y="200" transform="matrix(2.535182e-06 1 -1 2.535182e-06 199.9997 -2.535179e-04)" class="st4" width="200" height="-200"/>
					</g>
				</mask>
				<circle id="Shape_61_" class="st22" cx="-0.3" cy="-0.3" r="51.1"/>
			</g>
			
				<g transform="translate(1100.000000, 100.000000) scale(-1, 1) rotate(-180.000000) translate(-1100.000000, -100.000000) translate(1000.000000, 0.000000)">
				<polygon id="Shape_62_" class="st10" points="200,0 200,200 0,200 0,0 				"/>
				<path id="Shape_63_" class="st11" d="M200,55v145C89.5,200,0,110.5,0,0l0,0h145C175.4,0,200,24.6,200,55z"/>
			</g>
			
				<g transform="translate(300.000000, 900.000000) rotate(-90.000000) translate(-300.000000, -900.000000) translate(200.000000, 800.000000)">
				<circle id="Shape_66_" class="st11" cx="166" cy="169.3" r="15.7"/>
			</g>
			<g transform="translate(400.000000, 200.000000)">
				<rect id="Shape_67_" class="st12" width="200" height="200"/>
				<circle id="Shape_68_" class="st10" cx="100.3" cy="99.2" r="57.7"/>
				<polygon id="Shape_69_" class="st1" points="101.3,98.8 116,98.8 116,100.4 101.3,100.4 101.3,114.9 99.5,114.9 99.5,100.4 
					85.1,100.4 85.1,98.8 99.5,98.8 99.5,84 101.3,84 				"/>
			</g>
			<g transform="translate(1000.000000, 1000.000000)">
				<rect id="Shape_70_" class="st12" width="200" height="200"/>
				<circle id="Shape_71_" class="st10" cx="100.3" cy="99.2" r="57.7"/>
				<polygon id="Shape_72_" class="st1" points="101.3,98.8 116,98.8 116,100.4 101.3,100.4 101.3,114.9 99.5,114.9 99.5,100.4 
					85.1,100.4 85.1,98.8 99.5,98.8 99.5,84 101.3,84 				"/>
			</g>
			<g transform="translate(600.000000, 0.000000)">
				<rect id="Shape_73_" class="st1" width="200" height="200"/>
			</g>
			
				<g transform="translate(900.000000, 1100.000000) rotate(-270.000000) translate(-900.000000, -1100.000000) translate(800.000000, 1000.000000)">
				
					<rect id="Shape_74_" transform="matrix(2.535182e-06 1 -1 2.535182e-06 199.9997 -2.535179e-04)" class="st14" width="200" height="200"/>
				<path id="Shape_75_" class="st11" d="M199.4,0.6L199.4,0.6C199.4,110.7,110.2,200,0,200l0,0C0,89.8,89.3,0.6,199.4,0.6z"/>
			</g>
			<g transform="translate(200.000000, 0.000000)">
				<rect id="Shape_76_" class="st14" width="200" height="200"/>
				<path id="Shape_77_" class="st2" d="M17,0h166.3v99.7c0,45.9-37.2,83.1-83.1,83.1S17,145.6,17,99.7V0z"/>
			</g>
			<g>
				<rect id="Shape_78_" class="st12" width="200" height="200"/>
				<circle id="Shape_79_" class="st11" cx="99.7" cy="99.7" r="15.7"/>
			</g>
			<g transform="translate(600.000000, 200.000000)">
				<rect id="Shape_80_" class="st0" width="200" height="200"/>
				<circle id="Shape_81_" class="st2" cx="99.7" cy="99.7" r="15.7"/>
			</g>
			
				<g transform="translate(100.000000, 500.000000) rotate(-270.000000) translate(-100.000000, -500.000000) translate(0.000000, 400.000000)">
				<path id="Shape_83_" class="st13" d="M200,200L200,200V100C200,44.8,155.2,0,100,0H0C0,110.5,89.5,200,200,200z"/>
			</g>
			<g transform="translate(200.000000, 200.000000)">
				<rect id="Shape_84_" class="st2" width="200" height="200"/>
			</g>
			<g transform="translate(1400.000000, 200.000000)">
				<rect id="Shape_85_" class="st2" width="200" height="200"/>
			</g>
			<g transform="translate(600.000000, 400.000000)">
				<rect id="Shape_86_" class="st14" width="200" height="200"/>
				<path id="Shape_87_" class="st12" d="M0,0L0,0c0,110.5,89.5,200,200,200l0,0C200,89.5,110.5,0,0,0z"/>
			</g>
			<g transform="translate(200.000000, 400.000000)">
				<g id="Shape_88_">
					<rect id="path-11_1_" class="st13" width="200" height="200"/>
				</g>
				<defs>
					<filter id="Adobe_OpacityMaskFilter_7_" filterUnits="userSpaceOnUse" x="148.6" y="149.2" width="102.2" height="102.2">
						<feColorMatrix  type="matrix" values="1 0 0 0 0  0 1 0 0 0  0 0 1 0 0  0 0 0 1 0"/>
					</filter>
				</defs>
				<mask maskUnits="userSpaceOnUse" x="148.6" y="149.2" width="102.2" height="102.2" id="mask-12_1_">
					<g class="st23">
						<rect id="path-11_2_" class="st4" width="200" height="200"/>
					</g>
				</mask>
				<circle id="Shape_89_" class="st24" cx="199.7" cy="200.3" r="51.1"/>
				<defs>
					<filter id="Adobe_OpacityMaskFilter_8_" filterUnits="userSpaceOnUse" x="-51.4" y="-51.4" width="102.2" height="102.2">
						<feColorMatrix  type="matrix" values="1 0 0 0 0  0 1 0 0 0  0 0 1 0 0  0 0 0 1 0"/>
					</filter>
				</defs>
				<mask maskUnits="userSpaceOnUse" x="-51.4" y="-51.4" width="102.2" height="102.2" id="mask-12_2_">
					<g class="st25">
						<rect id="path-11_3_" class="st4" width="200" height="200"/>
					</g>
				</mask>
				<circle id="Shape_90_" class="st26" cx="-0.3" cy="-0.3" r="51.1"/>
			</g>
			<g transform="translate(800.000000, 800.000000)">
				<g id="Shape_91_">
					<rect id="path-13_1_" class="st11" width="200" height="200"/>
				</g>
				<defs>
					<filter id="Adobe_OpacityMaskFilter_9_" filterUnits="userSpaceOnUse" x="148.6" y="149.2" width="102.2" height="102.2">
						<feColorMatrix  type="matrix" values="1 0 0 0 0  0 1 0 0 0  0 0 1 0 0  0 0 0 1 0"/>
					</filter>
				</defs>
				<mask maskUnits="userSpaceOnUse" x="148.6" y="149.2" width="102.2" height="102.2" id="mask-14_1_">
					<g class="st27">
						<rect id="path-13_2_" class="st4" width="200" height="200"/>
					</g>
				</mask>
				<circle id="Shape_92_" class="st28" cx="199.7" cy="200.3" r="51.1"/>
				<defs>
					<filter id="Adobe_OpacityMaskFilter_10_" filterUnits="userSpaceOnUse" x="-51.4" y="-51.4" width="102.2" height="102.2">
						<feColorMatrix  type="matrix" values="1 0 0 0 0  0 1 0 0 0  0 0 1 0 0  0 0 0 1 0"/>
					</filter>
				</defs>
				<mask maskUnits="userSpaceOnUse" x="-51.4" y="-51.4" width="102.2" height="102.2" id="mask-14_2_">
					<g class="st29">
						<rect id="path-13_3_" class="st4" width="200" height="200"/>
					</g>
				</mask>
				<circle id="Shape_93_" class="st30" cx="-0.3" cy="-0.3" r="51.1"/>
			</g>
			<g transform="translate(0.000000, 200.000000)">
				<polygon id="Shape_94_" class="st10" points="200,0 200,200 0,200 0,0 				"/>
				<path id="Shape_95_" class="st11" d="M200,55v145C89.5,200,0,110.5,0,0l0,0h145C175.4,0,200,24.6,200,55z"/>
			</g>
			<g transform="translate(1400.000000, 800.000000)">
				<rect id="Shape_96_" class="st0" width="200" height="200"/>
				<ellipse id="Shape_97_" class="st1" cx="100" cy="98" rx="82" ry="81"/>
				<g id="Shape_98_">
					<rect id="path-15_1_" y="99.7" class="st2" width="200" height="100"/>
				</g>
				<defs>
					<filter id="Adobe_OpacityMaskFilter_11_" filterUnits="userSpaceOnUse" x="18" y="18.7" width="163.9" height="161.9">
						<feColorMatrix  type="matrix" values="1 0 0 0 0  0 1 0 0 0  0 0 1 0 0  0 0 0 1 0"/>
					</filter>
				</defs>
				<mask maskUnits="userSpaceOnUse" x="18" y="18.7" width="163.9" height="161.9" id="mask-16_1_">
					<g class="st31">
						<rect id="path-15_2_" y="99.7" class="st4" width="200" height="100"/>
					</g>
				</mask>
				<ellipse id="Shape_99_" class="st32" cx="100" cy="99.7" rx="82" ry="80.9"/>
			</g>
			
				<g transform="translate(1500.000000, 500.000000) scale(1, -1) translate(-1500.000000, -500.000000) translate(1400.000000, 400.000000)">
				<rect id="Shape_100_" y="200" class="st12" width="200" height="-200"/>
				<circle id="Shape_101_" class="st10" cx="100.3" cy="99.2" r="57.7"/>
				<polygon id="Shape_102_" class="st1" points="101.3,98.8 116,98.8 116,100.4 101.3,100.4 101.3,114.9 99.5,114.9 99.5,100.4 
					85.1,100.4 85.1,98.8 99.5,98.8 99.5,84 101.3,84 				"/>
			</g>
			
				<g transform="translate(1500.000000, 100.000000) scale(-1, 1) translate(-1500.000000, -100.000000) translate(1400.000000, 0.000000)">
				<rect id="Shape_103_" y="200" class="st14" width="200" height="-200"/>
				<path id="Shape_104_" class="st12" d="M0,0L0,0c0,110.5,89.5,200,200,200l0,0C200,89.5,110.5,0,0,0z"/>
			</g>
			
				<g transform="translate(1500.000000, 1100.000000) scale(1, -1) translate(-1500.000000, -1100.000000) translate(1400.000000, 1000.000000)">
				<rect id="Shape_105_" y="200" class="st1" width="200" height="-200"/>
			</g>
			
				<g transform="translate(1500.000000, 700.000000) scale(1, -1) translate(-1500.000000, -700.000000) translate(1400.000000, 600.000000)">
				<rect id="Shape_106_" y="200" class="st14" width="200" height="-200"/>
				<path id="Shape_107_" class="st12" d="M0,0L0,0c0,110.5,89.5,200,200,200l0,0C200,89.5,110.5,0,0,0z"/>
			</g>
		</g>
	</g>
</g>
</svg>
