<svg xmlns="http://www.w3.org/2000/svg" width="32" height="32" viewBox="0 0 32 32"><path d="M28,29H4a1,1,0,0,1-1-1V13a1,1,0,0,1,.553-.895L7,10.382V8a1,1,0,0,1,.553-.895l8-4a1,1,0,0,1,.894,0l8,4A1,1,0,0,1,25,8v2.382l3.447,1.723A1,1,0,0,1,29,13V28A1,1,0,0,1,28,29ZM5,27H27V13.618L23.553,11.9A1,1,0,0,1,23,11V8.618l-7-3.5-7,3.5V11a1,1,0,0,1-.553.895L5,13.618ZM8,11H8Z"/><path d="M16,19a6,6,0,1,1,6-6A6.006,6.006,0,0,1,16,19ZM16,9a4,4,0,1,0,4,4A4,4,0,0,0,16,9Z"/><path d="M17,15a1,1,0,0,1-.707-.293l-1-1A1,1,0,0,1,15,13V11a1,1,0,0,1,2,0v1.586l.707.707A1,1,0,0,1,17,15Z"/><rect width="3" height="3" x="7" y="17" rx="1"/><rect width="3" height="3" x="22" y="17" rx="1"/><rect width="3" height="3" x="7" y="22" rx="1"/><rect width="3" height="3" x="22" y="22" rx="1"/><path d="M19,29H13a1,1,0,0,1-1-1V21a1,1,0,0,1,1-1h6a1,1,0,0,1,1,1v7A1,1,0,0,1,19,29Zm-5-2h4V22H14Z"/></svg>