<?xml version="1.0" encoding="utf-8"?>
<!-- Generator: Adobe Illustrator 25.0.0, SVG Export Plug-In . SVG Version: 6.00 Build 0)  -->
<svg version="1.1" id="_x3C_Layer_x3E_" xmlns="http://www.w3.org/2000/svg" xmlns:xlink="http://www.w3.org/1999/xlink" x="0px"
	 y="0px" viewBox="0 0 2760 1840" style="enable-background:new 0 0 2760 1840;" xml:space="preserve">
<style type="text/css">
	.st0{fill:#EBF3FA;}
	.st1{fill:#8C9DF4;}
	.st2{fill:#6980E2;}
	.st3{fill:#F78248;}
	.st4{fill:#AEC3FF;}
	.st5{fill:#213F7A;}
	.st6{fill:#233862;}
	.st7{fill:#ED7D2B;}
	.st8{fill:#F99746;}
	.st9{fill:#FFFFFF;}
	.st10{fill:#FFB27D;}
	.st11{fill:#E2915A;}
	.st12{fill:#C65447;}
	.st13{opacity:0.4;}
	.st14{fill:#A9453D;}
	.st15{fill:#ABDDDA;}
	.st16{fill:#0F2549;}
	.st17{fill:#ED975D;}
	.st18{fill:#2B478B;}
	.st19{fill:#142D5E;}
	.st20{fill:#4C64A5;}
	.st21{fill:#F5F9FD;}
	.st22{fill:#F77D48;}
	.st23{fill:#2E3552;}
	.st24{fill:#D5DFFC;}
	.st25{fill:#2A4E96;}
	.st26{fill:#C0D4FF;}
	.st27{fill:#1D4677;}
	.st28{fill:#2C3A64;}
	.st29{fill:#ED985F;}
	.st30{fill:#BDD1F9;}
</style>
<g>
	<path class="st0" d="M402.66,1655.95c0,0-329.87-202-156.04-600.11c109.93-251.75,365.42-175.16,353-559.61
		c-12.42-384.46,590.21-417.49,782.03-306.01s174.76,178.57,568.58,117.78c337.3-52.06,425.98,321.18,284.56,530.17
		c-170.97,252.66,507.82,291.58,160.1,817.78H402.66z"/>
	<g>
		<g>
			<polygon class="st1" points="1676.27,1655.71 985.69,1655.71 1031.91,1474.57 1632.4,1474.57 			"/>
			<ellipse class="st2" cx="1332.2" cy="1474.57" rx="300.2" ry="22.82"/>
		</g>
		<g>
			<path class="st3" d="M1483.58,1606.34c0,8.55-6.93,15.47-15.47,15.47c-8.55,0-15.47-6.93-15.47-15.47
				c0-8.55,6.93-15.47,15.47-15.47C1476.65,1590.87,1483.58,1597.79,1483.58,1606.34z"/>
			<path class="st4" d="M1543.95,1606.34c0,8.55-6.93,15.47-15.47,15.47s-15.47-6.93-15.47-15.47c0-8.55,6.93-15.47,15.47-15.47
				S1543.95,1597.79,1543.95,1606.34z"/>
			<path class="st5" d="M1604.29,1606.34c0,8.55-6.93,15.47-15.47,15.47s-15.47-6.93-15.47-15.47c0-8.55,6.93-15.47,15.47-15.47
				S1604.29,1597.79,1604.29,1606.34z"/>
		</g>
	</g>
	<g>
		<path class="st6" d="M472.88,1651.73h41.61c-0.31-2.18-1.37-8.82-3.32-14.93c-0.67-2.13-1.46-4.2-2.36-5.99
			c-4.05-8.08-29.75-2.94-29.75-2.94s-2.39,2.05-4.25,9.86C473.98,1641.15,473.25,1645.72,472.88,1651.73z"/>
		<path class="st1" d="M549.25,1016.21c0,0,33.15,5.82,40.65,25.39c7.5,19.57,49.84,335.67,49.84,335.67s-20.97,16.61-65.98,10.65
			C528.75,1381.95,549.25,1016.21,549.25,1016.21z"/>
		<path class="st6" d="M598.6,1638.59c0.11,5.66,0.83,11.02,2.88,13.13h82.29c-1.05-2.98-4.01-7.46-12.46-8.83
			c-9.6-1.55-24.57-6.17-33.3-15.41c-3.11-3.28-5.43-7.15-6.45-11.68c-3.87-17.24-32.01,5.28-32.01,5.28
			S598.42,1630.17,598.6,1638.59z"/>
		<path class="st7" d="M634.04,1630.21c-9.2,2.93-26.77,11.89-37.94,7.68c-7.21-2.72-47.55-119.4-50.17-170.43
			c-0.19-3.71-0.92-8.89-2.06-15.2c-2.39-13.17-6.57-31.27-11.38-51.24c-12.91-53.51-30.37-120.46-29.99-141.86
			c0.58-33.21,98.97-6.96,98.97-6.96s6.77,27.24,8.12,66.68c2.67,78.29,10.02,210.54,30,302.38
			C640.43,1625.15,637.86,1629,634.04,1630.21z"/>
		<path class="st8" d="M565.76,1259.27l-52.01,376.97c0,0-22.84,5.51-40.61,1.1c0,0-15.23-200.49-13.96-248.96
			c1.27-48.47-10.93-129.7,2.78-138.65C475.68,1240.77,565.76,1259.27,565.76,1259.27z"/>
		<path class="st9" d="M455.39,1033.47c0,0,54.66-35.34,93.86-17.27c6.25,2.88,13.37,10.92,18.48,16.54
			c14.17,15.61,41.86,263.67,41.86,263.67s-78.61,26.62-154.2-9.04V1033.47z"/>
		<path class="st1" d="M552.36,1015.31c0,0,55.33,22.68,62.83,40.1c7.5,17.42,31.85,124.43,31.85,136.97
			c0,12.55-42.41,2.8-49.24-17.43c-5.67-16.8-24.79-68.43-34.88-101.08L552.36,1015.31z"/>
		<g>
			<path class="st10" d="M540.87,1032.59c-12.08,2.37-29.82-0.16-42.82-8.72c5.87-14.01,8.27-25.07,9.13-32.23
				c0.05-0.38,0.09-0.75,0.12-1.11c0.39-3.71,0.33-6.23,0.15-7.38h31.23c0,0,8.54,3.9,8.54,6.6c0,1.44,0.01,2.82,0.04,4.14
				c0.06,3.59,0.21,6.73,0.39,9.42c0.59,8.76,1.6,12.89,1.6,12.89S553.07,1030.2,540.87,1032.59z"/>
			<path class="st11" d="M547.66,1003.31c-23.66,4.57-37.39-8.36-40.47-11.67c-0.44-0.47-0.66-0.76-0.66-0.76
				c0.25-0.12,0.51-0.24,0.79-0.35c8.81-3.57,28.79-0.73,39.96,3.36C547.32,997.49,547.47,1000.62,547.66,1003.31z"/>
			<path class="st10" d="M499.45,978.02c4.23,22.75,33.59,22.01,46.28,20.58c3.57-0.4,5.82-0.85,5.82-0.85
				c4.03-1.08,6.27-7.42,7.32-15.72c2.07-16.44-0.55-40.57-3.32-46.75c-4.18-9.29-12.05-19.33-41.62-12.08
				C484.35,930.44,494.03,948.86,499.45,978.02z"/>
			<path class="st6" d="M556.64,922.58c-4.04-5.59-12.61-12.43-20.39-16.64c-16.72-9.05-38.12,0.28-38.21,0.32
				c-24.15,10.62-30.46,29.1-17.65,57.88c13.54,30.44,26.43,27.01,26.43,27.01s-2.74-1.7-2.49-11.19c0.01-0.54,0.04-0.99,0.06-1.38
				c0.12-1.94-0.56-3.89-2.01-5.19c-3-2.68-4.46-10.77-1.95-13.03c3.03-2.72,7.29,0.58,8.65,3.12c1.19,1.79,3.32,2.42,5.3,1.17
				c7.52-4.75,2.63-14.26,9.82-20.07c7.18-5.81,21.76-0.93,32.53-5.57C570.83,933.77,559.69,926.8,556.64,922.58z"/>
		</g>
		<path class="st1" d="M560.01,1400.49c-4.76,1.22-9.47,2.23-14.15,3c-4.14,0.71-8.26,1.23-12.39,1.58
			c-23.39,2.04-46.89-1.26-74.35-9.13c-6.18-1.77-12.57-3.79-19.21-6.02c-0.7-0.24,1.81-72.86,4.7-147.77
			c0.29-7.73,0.6-15.5,0.9-23.2c0.13-3.27,0.26-6.51,0.39-9.76c2.63-66.25,5.23-126.08,5.78-129.3c1.26-7.29,2.43-13.5,3.71-18.89
			c3.74-15.7,8.39-24.3,18.52-31.71c0.99-0.75,9.09-4.83,16.23-8.39c5.92-2.94,11.18-5.51,11.18-5.51c0.01,0,0.01,0,0.01,0
			c2.36,1.16,5.18,6.55,8.15,14.13c5.44,13.97,11.31,35.35,15.4,51.32c0.01,0.04,0.02,0.07,0.02,0.08c0,0.01,0,0.01,0,0.01
			c2.63,10.31,4.52,18.34,5.05,20.65c0.91,3.89,2.12,11.42,3.54,21.64c1.92,13.9,4.22,32.76,6.65,54.17c0.25,2.2,0.5,4.43,0.75,6.68
			c0.29,2.57,0.58,5.17,0.87,7.79c0.09,0.84,0.19,1.69,0.28,2.53c0.94,8.48,1.88,17.23,2.82,26.12c0.78,7.35,11.93,12.67,12.7,20.14
			c0.44,4.39,1.37,44.9,2.56,57.83C560.95,1307.71,560.34,1396.14,560.01,1400.49z"/>
		<path class="st2" d="M479.34,1106.6c-0.04,0.15-1.89,66.99,48.39,75.11c50.28,8.12,16.87,10.27,16.87,10.27s-94.6-4.02-96.16-6.52
			C446.87,1182.96,479.34,1106.6,479.34,1106.6z"/>
		<path class="st2" d="M521.82,1210.41c0,0-0.94,0.67-2.75,1.84c-0.03,0.01-0.06,0.04-0.09,0.06c-7.67,4.9-30.44,18.24-63.58,27.2
			c-3.48,0.94-7.08,1.84-10.78,2.66c0.29-7.73,0.6-15.5,0.9-23.2c-4.38-0.34-8.57-0.9-12.46-1.72c0.13-1.02,0.27-2.04,0.4-3.05
			c4.22-1.73,8.41-3.4,12.45-4.98c3.29-1.29,6.48-2.51,9.49-3.65c13.62-5.17,23.71-8.68,23.71-8.68l40.31,12.77L521.82,1210.41z"/>
		<path class="st1" d="M532.49,1209.29c0,0-5.18,1.29-13.42,2.96c-0.03,0-0.06,0.01-0.09,0.02c-15.2,3.05-40.76,7.34-63.59,7.11
			c-3.37-0.04-6.68-0.17-9.88-0.42c-4.38-0.34-8.57-0.9-12.46-1.72c-8.34-1.76-15.33-4.74-19.91-9.4
			c-33.96-34.59,18.53-158.74,29.57-170.82c12.88-14.1,36.4-19.05,49.39-20.75c0.54-0.07,1.06-0.14,1.57-0.2
			c4.57-0.54,7.49-0.66,7.66-0.66c0.01,0,0.01,0,0.01,0s-1.02,3.27-2.72,8.83c-0.66,2.15-1.43,4.64-2.27,7.42
			c-7.98,26.12-23.37,77.46-30.15,106.41c-2.49,10.59-3.82,18.19-3.21,20.46c2.65,9.89,30.09,14.97,47.47,17.22
			c7.25,0.94,12.75,1.38,13.98,1.47c0.09,0,0.17,0,0.26,0.02l1,4.12l2.41,9.89l2.37,9.71L532.49,1209.29z"/>
		<polygon class="st6" points="627.2,1268.8 510.57,1263.88 534.24,1118.53 650.87,1123.45 		"/>
		<path class="st10" d="M524.68,1177.22c0,0,22.7-1.58,23.84,3.71c2.65,12.33-19.52,22.46-26.7,21.77S519.46,1176.4,524.68,1177.22z
			"/>
		<path class="st10" d="M644.49,1152.96c0,0-21.72-6.79-24.05-1.91c-5.44,11.39,13.79,26.37,20.94,27.36
			C648.53,1179.4,649.76,1153.37,644.49,1152.96z"/>
		<path class="st2" d="M503.68,1008.1c0,0-9.55,4.55-14.34,11.42c0,0,35.7,61.99,35.54,61.41
			C524.73,1080.35,512.82,1016.04,503.68,1008.1z"/>
		<path class="st2" d="M548.15,1008.97c3.15,1.19,9.18,7.37,10.54,10.78l4.24,54.12c0,0-9.06-39.71-13.67-57.67
			C548.08,1011.64,548.3,1010.25,548.15,1008.97z"/>
		<path class="st12" d="M572.9,1120.16c0,0,0.92-4.03,6.23-3.56c5.31,0.47,35.13,1.94,35.13,1.94s5.75-0.1,5.22,3.59L572.9,1120.16z
			"/>
	</g>
	<g>
		<g>
			<g>
				<g class="st13">
					<g>
						<path class="st1" d="M2022.32,1656.9l-0.35-0.01c-2.85-0.05-5.05-2.47-4.78-5.25l19-196.92l16.58,1.53l-27.29,197.98
							C2025.27,1655.78,2023.91,1656.93,2022.32,1656.9z"/>
					</g>
					<g>
						<path class="st1" d="M2205.29,1656.9l0.35-0.01c2.85-0.05,5.05-2.47,4.78-5.25l-19-196.92l-16.58,1.53l27.29,197.98
							C2202.34,1655.78,2203.7,1656.93,2205.29,1656.9z"/>
					</g>
					<path class="st1" d="M2199.63,1427.11l33.73-166.57c4.33-22.55-14.36-43.17-38.62-42.62l-65.05,1.49
						c-22.44,0.51-41.95,15.53-48.19,37.09l-49.35,170.61H2199.63z"/>
					<path class="st1" d="M2179.23,1427.11l33.73-166.57c4.33-22.55-14.36-43.17-38.62-42.62l-65.05,1.49
						c-22.44,0.51-41.95,15.53-48.19,37.09l-49.35,170.61H2179.23z"/>
					<path class="st1" d="M2190.23,1457.49h-257.37c-5.17,0-9.4-4.23-9.4-9.4v-11.58c0-5.17,4.23-9.4,9.4-9.4h266.77v20.98
						C2199.63,1453.26,2195.4,1457.49,2190.23,1457.49z"/>
					<path class="st1" d="M2069.46,1457.49h-164.07c-4.17,0-7.57-3.41-7.57-7.57v-15.23c0-4.17,3.41-7.57,7.57-7.57h164.07
						c4.17,0,7.57,3.41,7.57,7.57v15.23C2077.03,1454.08,2073.62,1457.49,2069.46,1457.49z"/>
				</g>
				<g>
					<g>
						<g>
							<path class="st14" d="M2061.62,1077.32c0,0,7.65-23.63,41.28-22.55c0,0,6.73-12.65,22.87-10.49
								c16.14,2.15,25.02,60.54,9.69,74.8c-15.34,14.26-24.85,14.69-24.85,14.69l-48.99-54.24V1077.32z"/>
							<path class="st15" d="M2070.64,1255.98l-27.34,69.18c0,0-26.34,31.04-47.51,21.04l66.99-130.09L2070.64,1255.98z"/>
							<path class="st10" d="M1884.89,1636.04c0.79,7.64-9.84,9.62-22.18,10.37c-12.33,0.75-8.57,3.23-25.45,6.48
								c-16.87,3.24-23.7-1.31-24.95-3.58c-1.11-2.01,6.71-5.27,15.05-8.94c1.05-0.46,2.1-0.93,3.15-1.4
								c9.38-4.25,14.58-12.76,21.85-20.68c6.88-7.5,13.24-31.35,13.24-31.35l22.92-5.15c0,0-6.22,21.47-8.36,30.63
								c-1.26,5.39,0.75,11.37,2.52,15.93C1883.65,1630.81,1884.62,1633.35,1884.89,1636.04z"/>
							<path class="st16" d="M1862.72,1646.41c-12.33,0.75-8.57,3.23-25.45,6.48c-16.87,3.24-23.7-1.31-24.95-3.58
								c-1.11-2.01,6.71-5.27,15.05-8.94l0.13,0.14c0,0,11.93,3.91,25.61,0.03c11.15-3.16,21.89-9.96,29.58-12.2
								c0.96,2.48,1.92,5.01,2.2,7.71C1885.68,1643.68,1875.05,1645.66,1862.72,1646.41z"/>
							<path class="st7" d="M1919.62,1370.46c12.34-8.66,92.36-46.66,134-51.12l47.59-17.4c0,0,39.17,58.02,39.48,102.41
								c0.14,20.7-9.39,22.75-9.39,22.76c0,0-147.53,1.09-154,1.76c-10.58,1.09-24.55,27.46-28.04,51.48
								c-3.49,24.02-65.01,121.71-65.01,121.71s-12.83,4.11-18.76,3.76c-6.38-0.38-9.33-2.51-9.33-2.51S1891.8,1390,1919.62,1370.46
								z"/>
							<path class="st10" d="M1923.05,1636.04c0.79,7.64-9.84,9.62-22.18,10.37c-12.33,0.75-8.57,3.23-25.45,6.48
								c-16.87,3.24-18.23-8.85-9.89-12.52c1.05-0.46,2.1-0.93,3.15-1.4c9.38-4.25,14.58-12.76,21.85-20.68
								c6.88-7.5,13.24-31.35,13.24-31.35l22.92-5.15c0,0-6.22,21.47-8.36,30.63c-1.26,5.39,0.75,11.37,2.52,15.93
								C1921.81,1630.81,1922.78,1633.35,1923.05,1636.04z"/>
							<path class="st6" d="M1900.88,1646.41c-12.33,0.75-8.57,3.23-25.45,6.48c-16.87,3.24-23.7-1.31-24.95-3.58
								c-1.11-2.01,6.71-5.27,15.05-8.94l0.13,0.14c0,0,11.93,3.91,25.61,0.03c11.15-3.16,21.89-9.96,29.58-12.2
								c0.96,2.48,1.92,5.01,2.2,7.71C1923.84,1643.68,1913.21,1645.66,1900.88,1646.41z"/>
							<path class="st8" d="M1958.12,1370.46c10.71-7.52,37.67-10.93,76.87-23.7c9.44-3.07,45.77-20.59,48.18-30.22l-17.92-8.28
								l74.47-6.32c0,0,18.84,36.52,19.15,80.91c0.14,20.7-18.16,44.25-18.17,44.26c0,0-118.43,1.09-124.9,1.76
								c-10.59,1.09-24.55,27.46-28.04,51.48s-65.01,121.71-65.01,121.71s-12.83,4.11-18.76,3.76c-6.38-0.38-9.33-2.51-9.33-2.51
								S1930.3,1390,1958.12,1370.46z"/>
							<path class="st10" d="M2075.87,1180.29c-0.15,0.08,14.95,6.94,25.84,3.34c10.25-3.38,19.28-18.81,19.13-18.83
								c-4.45-0.64-8.97-5.03-10.23-31.04l-1.97,0.5l-33.13,8.37c0,0,1.31,10.49,1.85,20.42
								C2077.82,1171.37,2077.73,1179.3,2075.87,1180.29z"/>
							<path class="st17" d="M2075.51,1142.63c0,0,0,2.16,1.24,11.92c18.73-4.73,27-10.94,32.82-18.05L2075.51,1142.63z"/>
							<path class="st10" d="M2068.45,1143.95c0,0,43.8,7.13,47.83-20.22s12.38-44.84-15.41-50.56
								c-27.8-5.71-34.78,3.93-38.34,12.73C2058.96,1094.71,2057.16,1141.39,2068.45,1143.95z"/>
							<path class="st14" d="M2068.41,1072.03c0,0,19.89,31.4,37.65,38.84c17.76,7.44,26.48,3.66,26.48,3.66s-8.08-12.25-10.18-28.7
								c-0.62-4.85-3.78-9-8.32-10.82C2101.3,1069.91,2076.64,1061.86,2068.41,1072.03z"/>
							<path class="st14" d="M2085.88,1075.07c0,0-11.66,5.98-16.46,11.58c-4.63,5.41-9.99,20.08-9.6,26.66
								c0,0-5.75-31.57,6.23-42.42C2078.75,1059.38,2085.88,1075.07,2085.88,1075.07z"/>
							<path class="st18" d="M2040.82,1247.1c1.33,89.04-31.49,64.12-21.75,72.57c2.35,2.03,11.95,17.19,48.17,18.99
								c27.33,1.36,76.6-11.54,78.43-16.58c6.3-17.46,1.85-22.88,7.11-49.61c0.55-2.84,1.22-5.92,2.02-9.27
								c4.38-18.36,8.64-24.6-6.9-54.1c-14.09-26.72-30.67-48.42-31.99-47.64c-37.19,22.07-38.46,3.57-38.46,3.57
								S2040.17,1203.67,2040.82,1247.1z"/>
							<path class="st1" d="M2077.46,1165.03c0,0-38.06,6.45-42.55,22.92c-4.49,16.48-53.59,146.25-53.59,146.25s44.29,8.99,53.27,0
								c8.99-8.98,29.09-121.79,29.09-121.79L2077.46,1165.03z"/>
							<path class="st2" d="M2077.12,1159.22l0.34,5.81c-4.32,14.87-14.93,64.95-24.04,100.5l-3.08-55.03l5.24-4.28l-1.96-7.2
								l17.16-32.57L2077.12,1159.22z"/>
							<path class="st1" d="M2077.46,1403.65c58.72,19.64,105.21,6.44,105.21,6.44l-9.59-56.75l-5.24-30.94l-11.23-66.43
								l-19.18-63.18l-16.78-10.16l-14.66,73.33L2077.46,1403.65z"/>
							<path class="st2" d="M2148.25,1262.87c0.98,1.55,1.03,31.72-27.4,39.1c-28.43,7.38,41.63,14.57,41.63,14.57
								s22.59-17.34,22.26-21.59C2184.42,1290.69,2148.25,1262.87,2148.25,1262.87z"/>
							<path class="st2" d="M2096.42,1328.58c0,0,38.95,22.29,76.66,24.76l-5.24-30.94L2096.42,1328.58z"/>
							<g>
								<path class="st10" d="M2070.92,1324.02c0,0-3.23,8.63-4.74,10.01c-1.51,1.38-2.71,1.53-2.71,1.53l1.6-7.67L2070.92,1324.02z
									"/>
								<path class="st10" d="M2069.94,1316.48l-13.3,12.48c0,0,1.01,0.88,2.91,0.2c1.9-0.69,6.22-3.98,6.22-3.98L2069.94,1316.48z"
									/>
								<path class="st10" d="M2100.88,1310.63c0,0-27.5,2.27-30.94,5.84c-3.44,3.57-11,15.04-11.37,18.33
									c-0.37,3.29,8.56-5.07,11.69-7.05c2.03-1.28,8.49-1.07,11.67-1c13.4,0.27,20.19-4.12,20.19-4.12L2100.88,1310.63z"/>
							</g>
							<path class="st1" d="M2115.92,1161.46c0,0,38.12,2.23,50.64,19.69c17.62,24.58,52.59,129.34,32.55,143.32
								c-22.57,15.74-102.7,4.12-102.7,4.12s-2.67-12.47,1.04-18.5c3.71-6.03,64-15.77,66.79-18.55
								c2.78-2.78-34.79-54.26-34.79-62.61S2115.92,1161.46,2115.92,1161.46z"/>
							<path class="st2" d="M2113.73,1156.56l-7.72,99.41l17.68-38.06l-3.03-6.78c0,0,6.47-11.13,6.47-12.44
								c0-1.31-1.84-36.17-1.84-36.17L2113.73,1156.56z"/>
						</g>
					</g>
				</g>
			</g>
			<g>
				<polygon class="st19" points="1883.5,1311.03 2038.03,1311.03 2009.95,1207.19 1855.42,1207.19 				"/>
				<polygon class="st18" points="1878.62,1311.03 2033.15,1311.03 2005.07,1207.19 1850.54,1207.19 				"/>
				<polygon class="st19" points="1944.44,1336.22 1976.84,1336.52 1954.41,1268.14 1922.01,1267.85 				"/>
				
					<rect x="1926.09" y="1333.26" transform="matrix(-1 -1.224647e-16 1.224647e-16 -1 3922.9404 2669.7812)" class="st19" width="70.77" height="3.26"/>
			</g>
			
				<rect x="2018.59" y="1330.49" transform="matrix(-1 -1.224647e-16 1.224647e-16 -1 4087.9209 2667.7793)" class="st6" width="50.75" height="6.79"/>
		</g>
		<g>
			<g>
				<g>
					<path class="st20" d="M2261.74,1654.01c-1.95,0-3.62-1.3-3.96-3.09l-19.38-104.59l-27.88-150.42l-7.8-42.06l19.86-0.54
						l3.45,24.42l24.19,171.6l14.34,101.71C2264.79,1652.61,2263.46,1654.01,2261.74,1654.01z"/>
				</g>
				<path class="st20" d="M2226.03,1377.72c-12.87,5.41-15.51,18.19-15.51,18.19l-8.45-44.6l20.52,1.99L2226.03,1377.72z"/>
			</g>
			<g>
				<g>
					<path class="st20" d="M1712.9,1652.98c1.95,0,3.62-1.3,3.96-3.08l19.38-104.23l27.88-149.91l7.8-41.92l-19.86-0.54l-3.45,24.33
						l-24.19,171.01l-14.34,101.37C1709.85,1651.58,1711.18,1652.98,1712.9,1652.98z"/>
				</g>
				<path class="st20" d="M1748.61,1377.64c12.87,5.39,15.51,18.12,15.51,18.12l11.51-42.98l-23.57,0.52L1748.61,1377.64z"/>
			</g>
			<path class="st20" d="M2280.58,1353.3H1707.9c-3.38,0-6.14-2.76-6.14-6.14v-4.5c0-3.38,2.76-6.14,6.14-6.14h572.68
				c3.38,0,6.14,2.76,6.14,6.14v4.5C2286.72,1350.54,2283.96,1353.3,2280.58,1353.3z"/>
		</g>
	</g>
	<path class="st21" d="M1098.73,1474.57l-261.6-970.5c0,0,450.6-296.79,936.83,0l-221.5,970.5H1098.73z"/>
	<path class="st1" d="M1519.19,1244.49c0,0-8.78-148.12,9.4-193.56c18.17-45.43,199.91-302.89,75.72-463.42
		c-124.19-160.53-369.53-118.13-475.54-54.52s-33.32,190.82-75.72,251.4c-42.4,60.58-84.48,95.66-60.25,109.29
		c24.23,13.63,57.54,9.08,57.54,37.86c0,28.77-11.55,36.77,0.57,55.61c12.11,18.84-4.04,18.17,4.04,34.32
		c8.08,16.15,11.19,14.22,8.41,19.01c-2.78,4.8-18.17,32.81-12.11,54.01s43.41,29.28,93.89,25.24c50.48-4.04,81.77-9.09,84.8,17.16
		s4.96,107.59,4.96,107.59S1516,1243.35,1519.19,1244.49z"/>
	<path class="st22" d="M1501.07,1005.49c0,0,150.02-204.61,86.97-342.37c-63.05-137.76-226.12-166.12-337-149.91
		c-110.89,16.21-139.15,68.88-115.23,113.45c23.92,44.57,26.09,111.42,91.32,145.86c65.23,34.44,138.7,35.54,148.49,81.12
		C1385.38,899.22,1425.97,1041.87,1501.07,1005.49z"/>
	<path class="st1" d="M1519.19,1244.49c0,5.97-63.64,10.8-142.15,10.8c-78.51,0-142.15-4.84-142.15-10.8s63.64-10.8,142.15-10.8
		C1455.55,1233.68,1519.19,1238.52,1519.19,1244.49z"/>
	<ellipse class="st21" cx="1325.48" cy="1474.57" rx="226.74" ry="17.22"/>
	<g>
		<g>
			<g>
				<polygon class="st0" points="1526.76,624.42 1411.53,624.42 1374.4,587.28 1250.01,587.28 1250.01,582.64 1376.32,582.64 
					1413.46,619.78 1526.76,619.78 				"/>
			</g>
			<g>
				<path class="st0" d="M1246.63,584.96c0-1.87,1.51-3.38,3.38-3.38c1.87,0,3.38,1.52,3.38,3.38c0,1.87-1.51,3.39-3.38,3.39
					C1248.15,588.35,1246.63,586.83,1246.63,584.96z"/>
			</g>
			<g>
				<path class="st0" d="M1523.65,622.1c0-1.72,1.39-3.11,3.11-3.11c1.72,0,3.11,1.39,3.11,3.11c0,1.72-1.39,3.11-3.11,3.11
					C1525.05,625.21,1523.65,623.82,1523.65,622.1z"/>
			</g>
		</g>
		<g>
			<g>
				<polygon class="st0" points="1526.9,639.47 1411.67,639.47 1374.53,602.33 1250.15,602.33 1250.15,597.69 1376.46,597.69 
					1413.59,634.82 1526.9,634.82 				"/>
			</g>
			<g>
				<path class="st0" d="M1246.77,600.01c0-1.87,1.52-3.38,3.38-3.38c1.87,0,3.39,1.51,3.39,3.38c0,1.87-1.52,3.38-3.39,3.38
					C1248.28,603.39,1246.77,601.88,1246.77,600.01z"/>
			</g>
			<g>
				<path class="st0" d="M1523.79,637.14c0-1.72,1.39-3.11,3.11-3.11c1.72,0,3.11,1.39,3.11,3.11c0,1.72-1.39,3.11-3.11,3.11
					C1525.18,640.25,1523.79,638.86,1523.79,637.14z"/>
			</g>
		</g>
		<g>
			<g>
				<polygon class="st0" points="1526.9,655.06 1411.67,655.06 1374.53,617.92 1250.15,617.92 1250.15,613.28 1376.46,613.28 
					1413.59,650.42 1526.9,650.42 				"/>
			</g>
			<g>
				<path class="st0" d="M1246.77,615.6c0-1.87,1.52-3.38,3.38-3.38c1.87,0,3.39,1.51,3.39,3.38c0,1.87-1.52,3.38-3.39,3.38
					C1248.28,618.99,1246.77,617.47,1246.77,615.6z"/>
			</g>
			<g>
				<path class="st0" d="M1523.79,652.74c0-1.72,1.39-3.11,3.11-3.11c1.72,0,3.11,1.39,3.11,3.11c0,1.72-1.39,3.11-3.11,3.11
					C1525.18,655.85,1523.79,654.46,1523.79,652.74z"/>
			</g>
		</g>
		<g>
			<g>
				<polygon class="st0" points="1351.56,767.99 1346.92,767.99 1346.92,688.54 1330.75,672.37 1251.9,672.37 1251.9,667.72 
					1332.67,667.72 1351.56,686.61 				"/>
			</g>
			<g>
				<path class="st0" d="M1251.02,666.66c1.87,0,3.38,1.52,3.38,3.39c0,1.87-1.51,3.39-3.38,3.39c-1.87,0-3.39-1.52-3.39-3.39
					C1247.64,668.17,1249.15,666.66,1251.02,666.66z"/>
			</g>
			<g>
				<path class="st0" d="M1345.86,767.21c0-1.87,1.52-3.38,3.39-3.38c1.87,0,3.38,1.51,3.38,3.38c0,1.87-1.51,3.38-3.38,3.38
					C1347.37,770.6,1345.86,769.08,1345.86,767.21z"/>
			</g>
		</g>
		<g>
			<g>
				<polygon class="st0" points="1366.07,784.43 1361.43,784.43 1361.43,682.49 1337.77,658.82 1253.54,658.82 1253.54,654.18 
					1339.69,654.18 1366.07,680.56 				"/>
			</g>
			<g>
				<path class="st0" d="M1251.02,653.12c1.87,0,3.38,1.52,3.38,3.39c0,1.87-1.51,3.38-3.38,3.38c-1.87,0-3.39-1.52-3.39-3.38
					C1247.64,654.63,1249.15,653.12,1251.02,653.12z"/>
			</g>
			<g>
				<path class="st0" d="M1360.37,784.43c0-1.87,1.52-3.39,3.39-3.39c1.87,0,3.39,1.52,3.39,3.39c0,1.87-1.52,3.38-3.39,3.38
					C1361.88,787.81,1360.37,786.3,1360.37,784.43z"/>
			</g>
		</g>
		<g>
			<g>
				<polygon class="st0" points="1383.87,804.17 1379.22,804.17 1379.22,671.66 1348.2,640.63 1250.01,640.63 1250.01,635.99 
					1350.13,635.99 1383.87,669.73 				"/>
			</g>
			<g>
				<path class="st0" d="M1247.64,638.31c0-1.87,1.52-3.38,3.39-3.38c1.87,0,3.38,1.52,3.38,3.38c0,1.87-1.51,3.39-3.38,3.39
					C1249.15,641.7,1247.64,640.18,1247.64,638.31z"/>
			</g>
			<g>
				<path class="st0" d="M1379.96,801.07c1.71-0.76,3.71,0.02,4.46,1.73c0.76,1.71-0.02,3.71-1.73,4.47
					c-1.71,0.76-3.71-0.02-4.46-1.73C1377.47,803.83,1378.25,801.83,1379.96,801.07z"/>
			</g>
		</g>
		<g>
			<polygon class="st0" points="1403.61,835.3 1398.97,835.3 1398.97,678.06 1412.69,664.34 1526.76,664.34 1526.76,668.98 
				1414.62,668.98 1403.61,679.99 			"/>
		</g>
		<g>
			<polygon class="st0" points="1417.72,852.13 1413.07,852.13 1413.07,689.85 1424.88,678.04 1526.76,678.04 1526.76,682.69 
				1426.8,682.69 1417.72,691.77 			"/>
		</g>
		<g>
			<polygon class="st0" points="1433.96,852.13 1430.48,852.13 1430.48,696.03 1526.76,696.03 1526.76,699.51 1433.96,699.51 			"/>
		</g>
		<g>
			<path class="st0" d="M1523.38,666.66c0-1.87,1.51-3.38,3.38-3.38c1.87,0,3.38,1.52,3.38,3.38c0,1.87-1.52,3.39-3.38,3.39
				C1524.89,670.04,1523.38,668.53,1523.38,666.66z"/>
		</g>
		<g>
			<path class="st0" d="M1526.76,676.98c1.87,0,3.38,1.52,3.38,3.39c0,1.87-1.52,3.38-3.38,3.38c-1.87,0-3.38-1.52-3.38-3.38
				C1523.38,678.5,1524.89,676.98,1526.76,676.98z"/>
		</g>
		<g>
			<path class="st0" d="M1526.76,694.39c1.87,0,3.38,1.52,3.38,3.38c0,1.87-1.52,3.38-3.38,3.38c-1.87,0-3.38-1.51-3.38-3.38
				C1523.38,695.9,1524.89,694.39,1526.76,694.39z"/>
		</g>
		<g>
			<path class="st0" d="M1428.84,852.13c0-1.87,1.52-3.38,3.39-3.38c1.87,0,3.38,1.51,3.38,3.38c0,1.87-1.51,3.39-3.38,3.39
				C1430.35,855.51,1428.84,854,1428.84,852.13z"/>
		</g>
		<g>
			<path class="st0" d="M1412.01,852.13c0-1.87,1.51-3.38,3.38-3.38c1.87,0,3.39,1.51,3.39,3.38c0,1.87-1.52,3.39-3.39,3.39
				C1413.53,855.51,1412.01,854,1412.01,852.13z"/>
		</g>
		<g>
			<path class="st0" d="M1397.9,835.3c0-1.87,1.52-3.38,3.38-3.38s3.38,1.52,3.38,3.38c0,1.87-1.52,3.38-3.38,3.38
				S1397.9,837.17,1397.9,835.3z"/>
		</g>
		<g>
			<polygon class="st0" points="1562.63,838.69 1557.99,838.69 1557.99,756.91 1522.42,721.34 1449.16,721.34 1449.16,716.69 
				1524.34,716.69 1562.63,754.98 			"/>
		</g>
		<g>
			<polygon class="st0" points="1543.53,879.25 1538.89,879.25 1538.89,765.92 1511.8,738.84 1449.16,738.84 1449.16,734.19 
				1513.72,734.19 1543.53,764 			"/>
		</g>
		<g>
			<polygon class="st0" points="1527.88,879.25 1523.24,879.25 1523.24,772.77 1503.77,753.3 1449.16,753.3 1449.16,748.66 
				1505.69,748.66 1527.88,770.84 			"/>
		</g>
		<g>
			<polygon class="st0" points="1509.19,904.23 1504.55,904.23 1504.55,783.25 1494.22,772.92 1455.18,772.92 1455.18,879.25 
				1450.53,879.25 1450.53,768.28 1496.14,768.28 1509.19,781.33 			"/>
		</g>
		<g>
			<polygon class="st0" points="1489.68,907.36 1485.03,907.36 1485.03,786.75 1473.4,786.75 1473.4,904.23 1468.76,904.23 
				1468.76,782.11 1489.68,782.11 			"/>
		</g>
		<g>
			<polygon class="st0" points="1327.84,763.83 1323.2,763.83 1323.2,708.51 1225.07,708.51 1225.07,703.87 1327.84,703.87 			"/>
		</g>
		<g>
			<polygon class="st0" points="1308,757.41 1303.36,757.41 1303.36,725.89 1233.02,725.89 1233.02,721.25 1308,721.25 			"/>
		</g>
		<g>
			<polygon class="st0" points="1290.81,757.41 1286.16,757.41 1286.16,742.81 1262.42,742.81 1262.42,738.17 1290.81,738.17 			"/>
		</g>
		<g>
			<polygon class="st0" points="1219.94,689.79 1188.64,689.79 1188.64,685.14 1218.02,685.14 1230.7,672.47 1230.7,563.83 
				1235.34,563.83 1235.34,674.39 			"/>
		</g>
		<g>
			<polygon class="st0" points="1215.37,672.37 1185.32,672.37 1185.32,667.72 1210.73,667.72 1210.73,566.04 1215.37,566.04 			"/>
		</g>
		<g>
			<rect x="1189.1" y="574.36" class="st0" width="4.64" height="78.75"/>
		</g>
		<g>
			<polygon class="st0" points="1474.86,596.65 1414.55,596.65 1384.04,566.15 1250.01,566.15 1250.01,561.5 1385.96,561.5 
				1416.47,592.01 1474.86,592.01 			"/>
		</g>
		<g>
			<polygon class="st0" points="1459.33,572.25 1426.19,572.25 1410.54,556.59 1413.82,553.31 1428.12,567.61 1459.33,567.61 			"/>
		</g>
		<g>
			
				<rect x="1377.63" y="625.15" transform="matrix(0.7137 -0.7004 0.7004 0.7137 -55.6464 1150.7366)" class="st0" width="4.64" height="36.59"/>
		</g>
		<g>
			<path class="st0" d="M1408.94,554.95c0-1.79,1.45-3.24,3.24-3.24s3.24,1.45,3.24,3.24s-1.45,3.24-3.24,3.24
				S1408.94,556.74,1408.94,554.95z"/>
		</g>
		<g>
			<path class="st0" d="M1456.09,569.93c0-1.79,1.45-3.24,3.24-3.24s3.24,1.45,3.24,3.24c0,1.79-1.45,3.24-3.24,3.24
				S1456.09,571.71,1456.09,569.93z"/>
		</g>
		<g>
			<path class="st0" d="M1364.7,630.51c0-1.79,1.45-3.24,3.24-3.24s3.24,1.45,3.24,3.24c0,1.79-1.45,3.24-3.24,3.24
				S1364.7,632.3,1364.7,630.51z"/>
		</g>
		<g>
			<path class="st0" d="M1389.53,656.5c0-1.79,1.45-3.24,3.24-3.24c1.79,0,3.24,1.45,3.24,3.24c0,1.79-1.45,3.24-3.24,3.24
				C1390.98,659.74,1389.53,658.29,1389.53,656.5z"/>
		</g>
		<g>
			<path class="st0" d="M1229.78,563.83c0-1.79,1.45-3.24,3.24-3.24c1.79,0,3.24,1.45,3.24,3.24s-1.45,3.24-3.24,3.24
				C1231.23,567.06,1229.78,565.61,1229.78,563.83z"/>
		</g>
		<g>
			<path class="st0" d="M1185.42,687.17c0.16-1.78,1.74-3.09,3.52-2.93c1.78,0.16,3.09,1.74,2.93,3.52
				c-0.16,1.78-1.74,3.09-3.52,2.93C1186.57,690.52,1185.26,688.95,1185.42,687.17z"/>
		</g>
		<g>
			<path class="st0" d="M1182.08,670.04c0-1.79,1.45-3.24,3.24-3.24c1.79,0,3.24,1.45,3.24,3.24c0,1.79-1.45,3.24-3.24,3.24
				C1183.53,673.28,1182.08,671.83,1182.08,670.04z"/>
		</g>
		<g>
			<path class="st0" d="M1209.81,566.69c0-1.79,1.45-3.24,3.24-3.24s3.24,1.45,3.24,3.24s-1.45,3.24-3.24,3.24
				S1209.81,568.48,1209.81,566.69z"/>
		</g>
		<g>
			<path class="st0" d="M1188.18,574.36c0-1.79,1.45-3.24,3.24-3.24s3.24,1.45,3.24,3.24c0,1.79-1.45,3.24-3.24,3.24
				S1188.18,576.15,1188.18,574.36z"/>
		</g>
		<g>
			<path class="st0" d="M1188.18,652.74c0-1.79,1.45-3.24,3.24-3.24s3.24,1.45,3.24,3.24s-1.45,3.24-3.24,3.24
				S1188.18,654.53,1188.18,652.74z"/>
		</g>
		<g>
			<path class="st0" d="M1260.04,740.49c0-1.79,1.45-3.24,3.24-3.24c1.79,0,3.24,1.45,3.24,3.24c0,1.79-1.45,3.24-3.24,3.24
				C1261.49,743.73,1260.04,742.28,1260.04,740.49z"/>
		</g>
		<g>
			<path class="st0" d="M1285.25,756.3c0-1.79,1.45-3.24,3.24-3.24c1.79,0,3.24,1.45,3.24,3.24c0,1.79-1.45,3.23-3.24,3.23
				C1286.7,759.53,1285.25,758.09,1285.25,756.3z"/>
		</g>
		<g>
			<path class="st0" d="M1230.48,723.57c0-1.79,1.45-3.24,3.24-3.24c1.79,0,3.24,1.45,3.24,3.24c0,1.79-1.45,3.24-3.24,3.24
				C1231.92,726.81,1230.48,725.36,1230.48,723.57z"/>
		</g>
		<g>
			<path class="st0" d="M1302.45,757.41c0-1.79,1.45-3.24,3.24-3.24s3.24,1.45,3.24,3.24c0,1.79-1.45,3.24-3.24,3.24
				S1302.45,759.19,1302.45,757.41z"/>
		</g>
		<g>
			<path class="st0" d="M1322.28,762.77c0-1.79,1.45-3.24,3.24-3.24s3.24,1.45,3.24,3.24c0,1.79-1.45,3.24-3.24,3.24
				S1322.28,764.56,1322.28,762.77z"/>
		</g>
		<g>
			<path class="st0" d="M1221.83,706.19c0-1.79,1.45-3.24,3.24-3.24c1.79,0,3.24,1.45,3.24,3.24s-1.45,3.24-3.24,3.24
				C1223.28,709.43,1221.83,707.98,1221.83,706.19z"/>
		</g>
		<g>
			<rect x="1239.49" y="685.14" class="st0" width="78.39" height="4.64"/>
		</g>
		<g>
			<path class="st0" d="M1314.69,687.46c0-1.79,1.45-3.24,3.24-3.24c1.79,0,3.24,1.45,3.24,3.24c0,1.79-1.45,3.24-3.24,3.24
				C1316.14,690.7,1314.69,689.25,1314.69,687.46z"/>
		</g>
		<g>
			<path class="st0" d="M1236.25,687.46c0-1.79,1.45-3.24,3.24-3.24c1.79,0,3.23,1.45,3.23,3.24c0,1.79-1.45,3.24-3.23,3.24
				C1237.7,690.7,1236.25,689.25,1236.25,687.46z"/>
		</g>
	</g>
	<path class="st23" d="M2515.1,1658.52H294.98c-1.49,0-2.71-1.22-2.71-2.71v-1.38c0-1.49,1.22-2.71,2.71-2.71H2515.1
		c1.49,0,2.71,1.22,2.71,2.71v1.38C2517.81,1657.3,2516.59,1658.52,2515.1,1658.52z"/>
	<path class="st1" d="M1978.18,894.26l14.34-0.9c1.19-0.06,2.32,0.55,2.92,1.58c0.76,1.32,1.58,2.62,2.47,3.9
		c1.64,2.37,3.41,4.58,5.33,6.58c0.9,0.94,1.14,2.31,0.6,3.49l-6.16,13.69c-0.67,1.46-0.1,3.19,1.32,3.98l11.98,6.69
		c1.36,0.76,3.05,0.37,3.96-0.89l8-11.27c0.75-1.11,2.17-1.58,3.49-1.15c5.57,1.77,11.41,2.65,17.3,2.59
		c1.42-0.01,2.7,0.98,3.05,2.35l2.12,8.14c0.42,1.54,1.92,2.56,3.52,2.33l13.47-2.04c0.28-0.04,0.54-0.11,0.78-0.22
		c1.18-0.49,1.96-1.71,1.86-3.04l-0.66-10.71l-0.17-2.61c2.28-1.14,4.53-2.46,6.68-3.95c2.9-2,5.56-4.25,7.94-6.65
		c0.91-0.92,2.28-1.2,3.45-0.65l11.02,4.97c1.51,0.67,3.28,0.09,4.08-1.35l5.12-9.16l1.46-2.63c0.8-1.43,0.4-3.25-0.94-4.19
		l-9.41-6.7c-1.1-0.76-1.59-2.14-1.21-3.4c1.1-3.79,1.8-7.68,2.06-11.6c0.05-0.34,0.06-0.65,0.08-0.99c0-0.11,0.02-0.22,0.04-0.33
		c0.18-1.25,1.11-2.25,2.34-2.57l13.21-3.47c0.15-0.03,0.3-0.09,0.43-0.15c1.29-0.55,2.09-1.94,1.89-3.36l-2.01-13.43
		c-0.25-1.62-1.68-2.78-3.33-2.69l-14.95,0.94c-1.27,0.1-2.44-0.62-2.99-1.76c-1.22-2.51-2.65-4.97-4.3-7.35
		c-0.87-1.26-1.79-2.48-2.75-3.64c-0.77-0.95-0.95-2.26-0.44-3.37l5.92-13.16c0.66-1.45,0.1-3.17-1.31-3.96l-11.86-6.6
		c-1.43-0.8-3.24-0.41-4.21,0.94l-6.33,8.91c-0.85,1.2-2.38,1.65-3.74,1.12c-5.31-2.14-10.92-3.42-16.62-3.84
		c-1.35-0.08-2.51-1.03-2.85-2.36l-3.12-11.9c-0.42-1.6-1.98-2.61-3.61-2.38l-13.39,2c-1.61,0.24-2.76,1.68-2.65,3.28l0.03,0.63
		l0.77,12.44c0.08,1.33-0.66,2.55-1.87,3.11l-0.01,0.01c-2.91,1.33-5.75,2.93-8.48,4.82c-1.46,1.01-2.83,2.07-4.18,3.19
		c-0.92,0.79-2.21,0.97-3.31,0.48l-11.19-5.05c-1.53-0.7-3.34-0.09-4.15,1.36l-6.58,11.81c-0.18,0.34-0.3,0.7-0.36,1.05
		c-0.18,1.15,0.3,2.36,1.29,3.07l7.53,5.33c0.92,0.66,1.41,1.77,1.31,2.86c-0.03,0.29-0.09,0.58-0.2,0.86
		c-2.71,6.83-4.02,14.11-3.87,21.46c0.04,1.25-0.7,2.37-1.81,2.89c-0.16,0.07-0.33,0.13-0.51,0.18l-10.7,2.8
		c-1.55,0.4-2.54,1.91-2.32,3.51l0.04,0.31l1.95,13.1C1975.06,893.19,1976.52,894.36,1978.18,894.26z M2071.39,858.3
		c0.71,2.08,1.26,4.31,1.61,6.68c0.65,4.52-0.61,11.55-2.84,15.55c-0.24,0.43-0.48,0.85-0.73,1.26
		c-15.23,25.2-51.54,18.24-56.11-11.28c-0.59-3.86,0.17-9.4,1.75-13.59c0.38-0.97,0.78-1.87,1.22-2.64
		c2.05-3.62,4.51-6.62,7.27-9.03C2039.3,831.58,2064.15,837.54,2071.39,858.3z"/>
	<g>
		<path class="st24" d="M1794.13,1244.67h-184.76c-14.59,0-26.53-11.94-26.53-26.53v-190.72c0-14.59,11.94-26.53,26.53-26.53h184.76
			c14.59,0,26.53,11.94,26.53,26.53v190.72C1820.66,1232.73,1808.72,1244.67,1794.13,1244.67z"/>
		<g>
			<path class="st25" d="M1773.57,1114.85c0,39.67-32.15,71.82-71.82,71.82s-71.82-32.15-71.82-71.82
				c0-39.67,32.15-71.82,71.82-71.82c4.51,0,8.93,0.41,13.21,1.22c-8.96,32.67-20.86,75.93-21.66,78.63
				c1.48-2.33,45.16-21.91,74.98-35.11C1771.7,1096.13,1773.57,1105.28,1773.57,1114.85z"/>
			<path class="st3" d="M1772.28,1079.95c-26.34,11.61-69.97,31.05-71.36,33.26c0.76-2.57,12.83-46.43,20.91-75.84
				C1744.21,1043.5,1762.61,1059.28,1772.28,1079.95z"/>
		</g>
	</g>
	<g>
		<path class="st25" d="M972.55,804.78H719.18c-14.2,0-25.82-11.62-25.82-25.82V650.54c0-14.2,11.62-25.82,25.82-25.82h253.37
			c14.2,0,25.82,11.62,25.82,25.82v128.41C998.37,793.16,986.75,804.78,972.55,804.78z"/>
		<g>
			<g>
				<path class="st26" d="M831.51,772.96H718.74v-35.88h112.77V772.96z M720.12,771.58h110.01v-33.12H720.12V771.58z"/>
			</g>
			<g>
				<rect x="726.91" y="746.72" class="st26" width="43.62" height="2.84"/>
				<rect x="775.12" y="746.72" class="st26" width="30.95" height="2.84"/>
				<rect x="726.91" y="754.85" class="st26" width="24.07" height="2.84"/>
				<rect x="755.05" y="754.85" class="st26" width="30.95" height="2.84"/>
				<rect x="789.21" y="754.85" class="st26" width="30.95" height="2.84"/>
			</g>
		</g>
		<g>
			<g>
				<path class="st26" d="M965.99,772.96H853.21v-35.88h112.77V772.96z M854.6,771.58H964.6v-33.12H854.6V771.58z"/>
			</g>
			<g>
				<rect x="861.38" y="746.72" class="st26" width="43.62" height="2.84"/>
				<rect x="909.6" y="746.72" class="st26" width="30.95" height="2.84"/>
				<rect x="861.38" y="754.85" class="st26" width="24.08" height="2.84"/>
				<rect x="889.53" y="754.85" class="st26" width="30.95" height="2.84"/>
				<rect x="923.69" y="754.85" class="st26" width="30.95" height="2.84"/>
			</g>
		</g>
		<g>
			<g>
				<g>
					<path class="st26" d="M972.99,722.84H718.74v-20.62h254.26V722.84z M721.15,720.43h249.43v-15.79H721.15V720.43z"/>
				</g>
				<rect x="719.94" y="703.43" class="st26" width="197.36" height="18.21"/>
			</g>
		</g>
		<g>
			<g>
				<g>
					<path class="st26" d="M972.99,681.85H718.74v-20.62h254.26V681.85z M721.15,679.44h249.43v-15.79H721.15V679.44z"/>
				</g>
				<rect x="718.74" y="661.23" class="st8" width="132.21" height="20.62"/>
			</g>
		</g>
	</g>
	<g>
		<path class="st8" d="M983.35,1630.78l-13.1,4.65c0,0-56.88-75.15-63.88-141.26c-1.25-11.8-0.83-23.24,1.87-33.8
			c0,0-0.56-3.02-1.53-8.37c-0.45-2.5-1-5.5-1.63-8.94c-1.85-10.09-4.4-23.9-7.3-39.63c-6.69-36.19-15.36-82.44-22.1-116.45
			l3.53-1.08l38.18-11.73l7.89-23.87l28.43-7.13c0,0,6.35,11.83,12.03,67.74c1.05,7.33,2,15.42,2.72,24.19
			c2.21,26.76,2.37,59.96-2.71,97.92c-1.3,9.72-2.95,19.75-4.99,30.05c-1.5,7.56-1.72,17.85-1.09,29.68
			C962.52,1546.79,983.35,1630.78,983.35,1630.78z"/>
		<path class="st7" d="M968.45,1335.08l-61.73,116.91c-0.45-2.5-1-5.5-1.63-8.94c-1.85-10.09-4.4-23.9-7.3-39.63
			c-6.69-36.19-15.36-82.44-22.1-116.45l3.53-1.08l38.18-11.73l7.89-23.87l28.43-7.13c0,0,6.35,11.83,12.03,67.74
			C966.78,1318.23,967.73,1326.31,968.45,1335.08z"/>
		<path class="st8" d="M941.29,1258.16l-1.43-11.67c-23.94,6.06-87.91-16.93-87.91-16.93s-23.19,19.42-20.15,65.97
			c1.49,22.72,4.2,119.28,7.04,147.85c1.03,10.36,1.92,17.73,2.29,20.67c0.01,0.01,0.01,0.02,0.01,0.03c0.11,0.9-0.22,1.75-0.7,2.53
			c-4.17,6.75-7.63,13.78-10.47,20.97c-27.83,70.65,4.29,157.66,4.29,157.66l8.34-3.2c0,0,18.28-96.83,33.13-139.6
			c2.52-7.26,4.94-12.96,7.15-16.36c6.46-9.93,12.45-26.15,17.89-45.44c10.28-36.47,18.55-83.93,24.06-120.55
			C925.59,1320.11,941.29,1258.16,941.29,1258.16z"/>
		<path class="st27" d="M882.71,1651.73h-65.96c0,0-1.58-9.58,1.86-16.84c3.3-6.97,8.47-10.14,7.23-18.57
			c4.19,4.11,11.02,8.71,20.56,7.49c1.17,1.8,7.54,11.46,11.45,14.13C862.17,1640.88,881.39,1639.83,882.71,1651.73z"/>
		<path class="st27" d="M1024.33,1651.73h-65.96c0,0-2.47-10.02,1.87-16.84c3.83-6.03,2.36-9.47-0.48-14.46
			c2.99,1.16,6.85,2.22,11.11,1.99c3.29-0.18,6.76-1.6,9.81-3.29c2.84,3.08,14.99,16.21,18.79,18.81
			C1003.79,1640.88,1023.01,1639.83,1024.33,1651.73z"/>
		<path class="st28" d="M961.88,957.49c-0.07-1.7-1.45-20.02-30.74-20.98c0,0,14.4,1.64,16.89,7.67c0,0-9.81-7.45-17.79-5.06
			c-7.99,2.4-12.68,15.73-12.73,20.11c-0.05,4.38,4.39,18.52,9.46,19.72c1.92,0.46,4.13,0.33,6.14,0.01c-1.35,2-2.67,4.22-3.93,6.69
			c-11.69,22.85,0.37,45.19,10.26,42.72c6.35-1.58,8.14,8.73,8.14,8.73l61.65-47.54C1009.24,989.56,986.59,944.93,961.88,957.49z"/>
		<path class="st10" d="M959.46,1122.72c-41.16,2.15-32.12-56.3-29.6-56c5.03-2.5,14.08-14.68,19.31-35.03l1.77,0.78l29.7,13.3
			c0,0-3.15,9.21-5.49,18.01c-1.82,6.9-3.12,13.56-2.03,15.42c2.34,0.91,3.74,1.48,3.74,1.48s0,0.01,0.01,0.03
			C977.17,1081.43,970.43,1122.15,959.46,1122.72z"/>
		<path class="st1" d="M850.72,1155.34c3.55-10.96,7.21-21.47,10.92-31.17c8.44-22.06,13.81-33.57,18.36-42.5
			c8.66-16.97,47.38-15.9,47.38-15.9c7.46,25.6,27.95,41.56,27.95,41.56c10.93-6.11,19.06-27.6,19.06-27.6s26.84,10.24,37.77,34
			c11.73,25.5,25.16,63.63,35.97,75.05c2.52,2.66,9.9,6.69,18.84,10.97v0.01c0.19,0.28,0.34,0.42,0.44,0.42
			c-0.58,1.26-3.18,7.18-7.39,13.2c-3.41,4.89-7.89,9.83-13.2,12.38c-4.07-1.88-11.41-4.63-14.53-6.45
			c-11.26-6.55-27.31-25.13-40.42-45.04l-4.37,55.96l-6.62,84.72c-10.17,3.01-19.86,5.37-29.04,7.18c-0.6-7.1-3.02-15.6-3.02-15.6
			c0.11,4.46-5.37,12.98-8.61,17.62c-84.46,12.89-124.06-22.21-124.06-22.21C819.46,1270.85,833.69,1208.02,850.72,1155.34z"/>
		<path class="st2" d="M1060.04,1213.36c-3.41,4.89-7.89,9.83-13.2,12.38c-4.07-1.88-11.41-4.63-14.53-6.45
			c-11.26-6.55-27.31-25.13-40.43-45.04c0.49-6.26,34.89,25.89,39.26,31.72C1034.44,1210.37,1051.47,1212.55,1060.04,1213.36z"/>
		<path class="st29" d="M980.64,1045.77c0,0-3.16,9.2-5.48,18.02c-17.36-4.61-22.63-22-24.22-31.32L980.64,1045.77z"/>
		<path class="st10" d="M984.29,1055.51c0,0-41.53-9.16-35.15-33.71c6.39-24.55,5.32-42.27,32.11-37.46
			c26.79,4.81,29.49,15.39,29.45,24.08C1010.66,1017.11,995.26,1057.26,984.29,1055.51z"/>
		<path class="st28" d="M1013.04,994.48c-4.46-8.9-9.72-8.42-13.01-6.85c-19.52-17.2-38.66-3.15-38.66-3.15
			c-7.37,16.96-23.34,23.88-23.34,23.88s6.38,6.22,24.87,6.09c5.65-0.04,11.33-2.51,16.5-5.92c-9.97,9.57-21.66,15.39-21.66,15.39
			c23.15-4.22,38.67-29.75,40.26-32.46c1.96,2.76,5.71,8.63,6.03,13.59c0.43,6.74-2.01,19.83,2.05,20.32
			C1006.09,1025.37,1019.73,1007.83,1013.04,994.48z"/>
		<path class="st2" d="M935.93,1061.04c0,0-7.03,0.45-8.53,4.73c0,0,9.17,35.16,27.95,41.56L935.93,1061.04z"/>
		<path class="st2" d="M955.35,1107.33c0,0,15.47-26.61,17.45-31.93c0,0,7.24,2.68,6.79,6.96
			C979.59,1082.35,964.48,1105.41,955.35,1107.33z"/>
		<path class="st10" d="M1028.04,1236.84c0,0,9.31-4.67,12.82-7.37c3.51-2.7,4.01-0.58,3.04,1.25c-1.12,2.11-2.61,4.04-6.53,6.38
			C1033.46,1239.44,1027.01,1238.66,1028.04,1236.84z"/>
		<path class="st2" d="M907.25,1094.82c0.51,1.66,63.74,97.83,65.12,116.98c1.38,19.15-26.59,8.33-27.03,5.83
			C944.9,1215.13,907.25,1094.82,907.25,1094.82z"/>
		<path class="st2" d="M987.51,1230.21l-6.62,84.72c-90.46-24.82-95.43-206.65-95.43-206.65l55.91,96.14l45.65,25.14
			C987.02,1229.56,987.2,1229.78,987.51,1230.21z"/>
		<path class="st15" d="M1067.55,1200.02c-0.03,0.1-0.07,0.15-0.13,0.15c0.03-0.08,0.06-0.13,0.08-0.17
			C1067.58,1199.84,1067.6,1199.84,1067.55,1200.02z"/>
		<g>
			<g>
				<path class="st25" d="M1412.68,1191.48v132.84c0,9.96-8.08,18.04-18.04,18.04h-340.46c-9.96,0-18.04-8.08-18.04-18.04v-132.84
					c0-9.96,8.08-18.04,18.04-18.04h340.46C1404.6,1173.44,1412.68,1181.52,1412.68,1191.48z"/>
			</g>
			<g>
				<path class="st30" d="M1106.45,1208.85l-3.18,1.03l-0.83-4.34l5.24-2.07h2.74v24.29h-3.96V1208.85z"/>
				<path class="st30" d="M1119.43,1215.71c0-7,3.28-12.47,8.13-12.47c4.82,0,8.08,5.41,8.08,12.47c0,7-3.26,12.47-8.13,12.47
					S1119.43,1222.78,1119.43,1215.71z M1131.52,1215.71c0-4.38-1.62-7.69-4.01-7.69s-3.96,3.21-3.96,7.69
					c0,4.41,1.59,7.68,4.01,7.68S1131.52,1220.16,1131.52,1215.71z"/>
				<path class="st22" d="M1143.67,1215.71c0-7,3.28-12.47,8.13-12.47c4.82,0,8.08,5.41,8.08,12.47c0,7-3.26,12.47-8.13,12.47
					S1143.67,1222.78,1143.67,1215.71z M1155.76,1215.71c0-4.38-1.62-7.69-4.01-7.69s-3.96,3.21-3.96,7.69
					c0,4.41,1.59,7.68,4.01,7.68C1154.22,1223.4,1155.76,1220.16,1155.76,1215.71z"/>
				<path class="st22" d="M1171,1208.85l-3.18,1.03l-0.83-4.34l5.24-2.07h2.74v24.29H1171V1208.85z"/>
				<path class="st30" d="M1281.32,1208.85l-3.18,1.03l-0.83-4.34l5.24-2.07h2.74v24.29h-3.96V1208.85z"/>
				<path class="st30" d="M1294.3,1215.71c0-7,3.28-12.47,8.13-12.47c4.82,0,8.08,5.41,8.08,12.47c0,7-3.26,12.47-8.13,12.47
					C1297.5,1228.19,1294.3,1222.78,1294.3,1215.71z M1306.39,1215.71c0-4.38-1.62-7.69-4.01-7.69c-2.4,0-3.96,3.21-3.96,7.69
					c0,4.41,1.59,7.68,4.01,7.68C1304.85,1223.4,1306.39,1220.16,1306.39,1215.71z"/>
				<path class="st22" d="M1318.53,1215.71c0-7,3.28-12.47,8.13-12.47c4.82,0,8.08,5.41,8.08,12.47c0,7-3.26,12.47-8.13,12.47
					S1318.53,1222.78,1318.53,1215.71z M1330.62,1215.71c0-4.38-1.62-7.69-4.01-7.69c-2.4,0-3.96,3.21-3.96,7.69
					c0,4.41,1.59,7.68,4.01,7.68C1329.09,1223.4,1330.62,1220.16,1330.62,1215.71z"/>
				<path class="st22" d="M1345.87,1208.85l-3.18,1.03l-0.83-4.34l5.24-2.07h2.74v24.29h-3.96V1208.85z"/>
				<path class="st30" d="M1183.98,1215.71c0-7,3.28-12.47,8.13-12.47c4.82,0,8.08,5.41,8.08,12.47c0,7-3.26,12.47-8.13,12.47
					C1187.18,1228.19,1183.98,1222.78,1183.98,1215.71z M1196.07,1215.71c0-4.38-1.62-7.69-4.01-7.69s-3.96,3.21-3.96,7.69
					c0,4.41,1.59,7.68,4.01,7.68C1194.53,1223.4,1196.07,1220.16,1196.07,1215.71z"/>
				<path class="st30" d="M1208.21,1215.71c0-7,3.28-12.47,8.13-12.47c4.82,0,8.08,5.41,8.08,12.47c0,7-3.26,12.47-8.13,12.47
					C1211.42,1228.19,1208.21,1222.78,1208.21,1215.71z M1220.3,1215.71c0-4.38-1.62-7.69-4.01-7.69c-2.4,0-3.96,3.21-3.96,7.69
					c0,4.41,1.59,7.68,4.01,7.68C1218.77,1223.4,1220.3,1220.16,1220.3,1215.71z"/>
				<path class="st30" d="M1232.45,1215.71c0-7,3.28-12.47,8.13-12.47c4.82,0,8.08,5.41,8.08,12.47c0,7-3.26,12.47-8.13,12.47
					C1235.65,1228.19,1232.45,1222.78,1232.45,1215.71z M1244.54,1215.71c0-4.38-1.62-7.69-4.01-7.69s-3.96,3.21-3.96,7.69
					c0,4.41,1.59,7.68,4.01,7.68C1243,1223.4,1244.54,1220.16,1244.54,1215.71z"/>
				<path class="st30" d="M1256.68,1215.71c0-7,3.28-12.47,8.13-12.47c4.82,0,8.08,5.41,8.08,12.47c0,7-3.26,12.47-8.13,12.47
					S1256.68,1222.78,1256.68,1215.71z M1268.77,1215.71c0-4.38-1.62-7.69-4.01-7.69s-3.96,3.21-3.96,7.69
					c0,4.41,1.59,7.68,4.01,7.68C1267.24,1223.4,1268.77,1220.16,1268.77,1215.71z"/>
			</g>
			<g>
				<path class="st30" d="M1106.45,1287.79l-3.18,1.03l-0.83-4.34l5.24-2.07h2.74v24.3h-3.96V1287.79z"/>
				<path class="st30" d="M1119.43,1294.65c0-7,3.28-12.47,8.13-12.47c4.82,0,8.08,5.41,8.08,12.47c0,7-3.26,12.47-8.13,12.47
					S1119.43,1301.72,1119.43,1294.65z M1131.52,1294.65c0-4.38-1.62-7.69-4.01-7.69s-3.96,3.21-3.96,7.69
					c0,4.41,1.59,7.68,4.01,7.68S1131.52,1299.1,1131.52,1294.65z"/>
				<path class="st22" d="M1143.67,1294.65c0-7,3.28-12.47,8.13-12.47c4.82,0,8.08,5.41,8.08,12.47c0,7-3.26,12.47-8.13,12.47
					S1143.67,1301.72,1143.67,1294.65z M1155.76,1294.65c0-4.38-1.62-7.69-4.01-7.69s-3.96,3.21-3.96,7.69
					c0,4.41,1.59,7.68,4.01,7.68C1154.22,1302.34,1155.76,1299.1,1155.76,1294.65z"/>
				<path class="st22" d="M1171,1287.79l-3.18,1.03l-0.83-4.34l5.24-2.07h2.74v24.3H1171V1287.79z"/>
				<path class="st30" d="M1281.32,1287.79l-3.18,1.03l-0.83-4.34l5.24-2.07h2.74v24.3h-3.96V1287.79z"/>
				<path class="st30" d="M1294.3,1294.65c0-7,3.28-12.47,8.13-12.47c4.82,0,8.08,5.41,8.08,12.47c0,7-3.26,12.47-8.13,12.47
					C1297.5,1307.13,1294.3,1301.72,1294.3,1294.65z M1306.39,1294.65c0-4.38-1.62-7.69-4.01-7.69c-2.4,0-3.96,3.21-3.96,7.69
					c0,4.41,1.59,7.68,4.01,7.68C1304.85,1302.34,1306.39,1299.1,1306.39,1294.65z"/>
				<path class="st22" d="M1318.53,1294.65c0-7,3.28-12.47,8.13-12.47c4.82,0,8.08,5.41,8.08,12.47c0,7-3.26,12.47-8.13,12.47
					S1318.53,1301.72,1318.53,1294.65z M1330.62,1294.65c0-4.38-1.62-7.69-4.01-7.69c-2.4,0-3.96,3.21-3.96,7.69
					c0,4.41,1.59,7.68,4.01,7.68C1329.09,1302.34,1330.62,1299.1,1330.62,1294.65z"/>
				<path class="st22" d="M1345.87,1287.79l-3.18,1.03l-0.83-4.34l5.24-2.07h2.74v24.3h-3.96V1287.79z"/>
				<path class="st30" d="M1183.98,1294.65c0-7,3.28-12.47,8.13-12.47c4.82,0,8.08,5.41,8.08,12.47c0,7-3.26,12.47-8.13,12.47
					C1187.18,1307.13,1183.98,1301.72,1183.98,1294.65z M1196.07,1294.65c0-4.38-1.62-7.69-4.01-7.69s-3.96,3.21-3.96,7.69
					c0,4.41,1.59,7.68,4.01,7.68C1194.53,1302.34,1196.07,1299.1,1196.07,1294.65z"/>
				<path class="st30" d="M1208.21,1294.65c0-7,3.28-12.47,8.13-12.47c4.82,0,8.08,5.41,8.08,12.47c0,7-3.26,12.47-8.13,12.47
					C1211.42,1307.13,1208.21,1301.72,1208.21,1294.65z M1220.3,1294.65c0-4.38-1.62-7.69-4.01-7.69c-2.4,0-3.96,3.21-3.96,7.69
					c0,4.41,1.59,7.68,4.01,7.68C1218.77,1302.34,1220.3,1299.1,1220.3,1294.65z"/>
				<path class="st30" d="M1232.45,1294.65c0-7,3.28-12.47,8.13-12.47c4.82,0,8.08,5.41,8.08,12.47c0,7-3.26,12.47-8.13,12.47
					C1235.65,1307.13,1232.45,1301.72,1232.45,1294.65z M1244.54,1294.65c0-4.38-1.62-7.69-4.01-7.69s-3.96,3.21-3.96,7.69
					c0,4.41,1.59,7.68,4.01,7.68C1243,1302.34,1244.54,1299.1,1244.54,1294.65z"/>
				<path class="st30" d="M1256.68,1294.65c0-7,3.28-12.47,8.13-12.47c4.82,0,8.08,5.41,8.08,12.47c0,7-3.26,12.47-8.13,12.47
					S1256.68,1301.72,1256.68,1294.65z M1268.77,1294.65c0-4.38-1.62-7.69-4.01-7.69s-3.96,3.21-3.96,7.69
					c0,4.41,1.59,7.68,4.01,7.68C1267.24,1302.34,1268.77,1299.1,1268.77,1294.65z"/>
			</g>
			<g>
				<path class="st30" d="M1188.92,1248.34l-3.18,1.03l-0.83-4.34l5.24-2.07h2.74v24.29h-3.96V1248.34z"/>
				<path class="st30" d="M1172.23,1248.34l-3.18,1.03l-0.83-4.34l5.24-2.07h2.74v24.29h-3.96V1248.34z"/>
				<path class="st30" d="M1201.9,1255.2c0-7,3.28-12.47,8.13-12.47c4.82,0,8.08,5.41,8.08,12.47c0,7-3.26,12.48-8.13,12.48
					S1201.9,1262.27,1201.9,1255.2z M1213.99,1255.2c0-4.38-1.62-7.68-4.01-7.68c-2.4,0-3.96,3.2-3.96,7.68
					c0,4.41,1.59,7.68,4.01,7.68C1212.45,1262.89,1213.99,1259.65,1213.99,1255.2z"/>
				<path class="st22" d="M1226.14,1255.2c0-7,3.28-12.47,8.13-12.47c4.82,0,8.08,5.41,8.08,12.47c0,7-3.26,12.48-8.13,12.48
					C1229.34,1267.68,1226.14,1262.27,1226.14,1255.2z M1238.23,1255.2c0-4.38-1.62-7.68-4.01-7.68c-2.4,0-3.96,3.2-3.96,7.68
					c0,4.41,1.59,7.68,4.01,7.68C1236.69,1262.89,1238.23,1259.65,1238.23,1255.2z"/>
				<path class="st22" d="M1253.47,1248.34l-3.18,1.03l-0.83-4.34l5.24-2.07h2.74v24.29h-3.96V1248.34z"/>
				<path class="st30" d="M1266.45,1255.2c0-7,3.28-12.47,8.13-12.47c4.82,0,8.08,5.41,8.08,12.47c0,7-3.26,12.48-8.13,12.48
					S1266.45,1262.27,1266.45,1255.2z M1278.54,1255.2c0-4.38-1.62-7.68-4.01-7.68c-2.4,0-3.96,3.2-3.96,7.68
					c0,4.41,1.59,7.68,4.01,7.68S1278.54,1259.65,1278.54,1255.2z"/>
				<path class="st30" d="M1290.68,1255.2c0-7,3.28-12.47,8.13-12.47c4.82,0,8.08,5.41,8.08,12.47c0,7-3.26,12.48-8.13,12.48
					C1293.89,1267.68,1290.68,1262.27,1290.68,1255.2z M1302.77,1255.2c0-4.38-1.62-7.68-4.01-7.68c-2.4,0-3.96,3.2-3.96,7.68
					c0,4.41,1.59,7.68,4.01,7.68S1302.77,1259.65,1302.77,1255.2z"/>
				<path class="st30" d="M1314.92,1255.2c0-7,3.28-12.47,8.13-12.47c4.82,0,8.08,5.41,8.08,12.47c0,7-3.26,12.48-8.13,12.48
					S1314.92,1262.27,1314.92,1255.2z M1327.01,1255.2c0-4.38-1.62-7.68-4.01-7.68c-2.4,0-3.96,3.2-3.96,7.68
					c0,4.41,1.59,7.68,4.01,7.68C1325.47,1262.89,1327.01,1259.65,1327.01,1255.2z"/>
				<path class="st30" d="M1100.54,1255.2c0-7,3.28-12.47,8.13-12.47c4.82,0,8.08,5.41,8.08,12.47c0,7-3.26,12.48-8.13,12.48
					S1100.54,1262.27,1100.54,1255.2z M1112.64,1255.2c0-4.38-1.62-7.68-4.01-7.68s-3.96,3.2-3.96,7.68c0,4.41,1.59,7.68,4.01,7.68
					C1111.1,1262.89,1112.64,1259.65,1112.64,1255.2z"/>
				<path class="st30" d="M1124.78,1255.2c0-7,3.28-12.47,8.13-12.47c4.82,0,8.08,5.41,8.08,12.47c0,7-3.26,12.48-8.13,12.48
					S1124.78,1262.27,1124.78,1255.2z M1136.87,1255.2c0-4.38-1.62-7.68-4.01-7.68s-3.96,3.2-3.96,7.68c0,4.41,1.59,7.68,4.01,7.68
					C1135.33,1262.89,1136.87,1259.65,1136.87,1255.2z"/>
				<path class="st30" d="M1149.01,1255.2c0-7,3.28-12.47,8.13-12.47c4.82,0,8.08,5.41,8.08,12.47c0,7-3.26,12.48-8.13,12.48
					S1149.01,1262.27,1149.01,1255.2z M1161.1,1255.2c0-4.38-1.62-7.68-4.01-7.68s-3.96,3.2-3.96,7.68c0,4.41,1.59,7.68,4.01,7.68
					C1159.57,1262.89,1161.1,1259.65,1161.1,1255.2z"/>
				<path class="st30" d="M1339.15,1255.2c0-7,3.28-12.47,8.13-12.47c4.82,0,8.08,5.41,8.08,12.47c0,7-3.26,12.48-8.13,12.48
					S1339.15,1262.27,1339.15,1255.2z M1351.24,1255.2c0-4.38-1.62-7.68-4.01-7.68c-2.4,0-3.96,3.2-3.96,7.68
					c0,4.41,1.59,7.68,4.01,7.68S1351.24,1259.65,1351.24,1255.2z"/>
			</g>
		</g>
		<path class="st10" d="M1027.74,1237.97l-3.47,12.08c0,0-4.36-0.76-11.3-1.98c-2.08-0.38-3.27-0.67-3.27-0.67
			c-5.55-1.03-12.18-2.45-19.42-3.96h-0.1c-12.39-2.83-26.26-6.23-37.95-10.01c-1.05-0.35-2.08-0.7-3.09-1.05
			c-6.91-2.43-12.89-4.99-17.13-7.54c-0.5-0.28-0.89-0.57-1.39-0.94c-11.59-8.03,24.97-27.38,31.02-23.22
			c1.6,1.11,3.32,2.25,5.12,3.42c10.03,6.49,22.79,13.71,34.12,19.8c5.55,3.02,10.8,5.76,15.17,8.03
			C1023.08,1235.6,1027.74,1237.97,1027.74,1237.97z"/>
		<path class="st1" d="M966.75,1204.1c0,0,0.73,22.83-21.71,33.93c-25.93-8.92-39.8-45.75-50.51-71.05
			c-1.49-3.49-2.88-6.99-4.26-10.38c-4.96-12.65-8.92-25.11-11.3-35.88c-1.49-6.42-2.47-12.27-2.67-17.08
			c-0.1-1.7,30.02-21.71,33.69-14.06c5.65,12.17,11.59,27.94,17.14,43.61c3.08,8.59,6.05,17.19,9.02,25.11
			c1.69,4.81,3.37,9.34,4.96,13.5c3.08,7.94,5.85,14.35,8.32,18.41c1.59,2.65,6.14,6.33,12.19,10.48
			C963.23,1201.78,964.95,1202.92,966.75,1204.1z"/>
		<g>
			<path class="st10" d="M1022.06,1235.7c0,0,11.26,2.79,14,1.35c2.75-1.44,14.99-3.42,17.75,0.29c3.71,4.98,7.89,14.59,5.57,16.91
				c-2.31,2.31-8.12-4.13-16.16-1.79c-4.07,1.18-12.18,4.63-17.12,1.32c-4.94-3.32-10.75-8.18-10.75-8.18L1022.06,1235.7z"/>
		</g>
	</g>
	<path class="st24" d="M853.41,446.27l27.45,0.68c2.28,0.08,4.33,1.43,5.3,3.5c1.23,2.64,2.58,5.25,4.04,7.83
		c2.73,4.79,5.73,9.28,9.05,13.42c1.55,1.94,1.79,4.6,0.57,6.75l-14.01,25.04c-1.52,2.66-0.72,6.06,1.86,7.8l21.7,14.74
		c2.46,1.66,5.75,1.2,7.69-1.03l17.12-20.12c1.62-1.99,4.39-2.64,6.83-1.62c10.31,4.3,21.29,6.94,32.51,7.83
		c2.71,0.22,4.97,2.31,5.42,4.98l2.68,15.85c0.54,3,3.23,5.19,6.31,5.03l25.99-1.63c0.54-0.03,1.04-0.11,1.53-0.28
		c2.34-0.74,4.01-2.94,4.05-5.48l0.53-20.5l0.12-5c4.53-1.79,9.03-3.93,13.38-6.41c5.86-3.34,11.3-7.16,16.23-11.34
		c1.89-1.59,4.54-1.89,6.69-0.67l20.16,11.31c2.76,1.53,6.24,0.72,7.99-1.89l11.28-16.58l3.22-4.76c1.77-2.59,1.31-6.12-1.08-8.14
		l-16.8-14.32c-1.97-1.64-2.67-4.34-1.73-6.67c2.72-7.03,4.7-14.33,5.86-21.74c0.15-0.64,0.23-1.23,0.32-1.87
		c0.01-0.21,0.07-0.42,0.13-0.62c0.56-2.35,2.49-4.1,4.88-4.5l25.72-4.4c0.29-0.03,0.58-0.12,0.85-0.21
		c2.56-0.83,4.3-3.34,4.15-6.09l-1.58-25.91c-0.2-3.13-2.73-5.58-5.89-5.68l-28.63-0.7c-2.43-0.03-4.55-1.58-5.4-3.85
		c-1.91-4.98-4.22-9.9-6.96-14.72c-1.45-2.55-2.99-5.02-4.62-7.4c-1.31-1.94-1.43-4.46-0.28-6.49l13.46-24.07
		c1.49-2.64,0.71-6.02-1.83-7.75l-21.48-14.55c-2.59-1.77-6.09-1.32-8.17,1.1l-13.55,15.92c-1.82,2.14-4.82,2.74-7.31,1.51
		c-9.75-4.96-20.22-8.34-31.01-10.1c-2.56-0.37-4.6-2.38-5.03-4.96l-3.96-23.18c-0.53-3.11-3.33-5.31-6.48-5.14l-25.82,1.56
		c-3.1,0.18-5.54,2.74-5.59,5.8l-0.04,1.2l-0.61,23.82c-0.06,2.55-1.68,4.75-4.09,5.6l-0.03,0.01c-5.77,2.04-11.44,4.61-16.96,7.75
		c-2.94,1.67-5.74,3.48-8.48,5.38c-1.89,1.35-4.36,1.48-6.38,0.36l-20.46-11.48c-2.8-1.58-6.35-0.73-8.12,1.9l-14.5,21.39
		c-0.41,0.61-0.68,1.28-0.86,1.94c-0.53,2.16,0.18,4.55,1.94,6.07l13.45,11.4c1.63,1.41,2.39,3.6,2.02,5.67
		c-0.1,0.54-0.28,1.09-0.53,1.61c-6.3,12.55-10.01,26.2-10.96,40.22c-0.13,2.38-1.74,4.4-3.93,5.2c-0.32,0.11-0.65,0.2-0.99,0.25
		l-20.83,3.55c-3.02,0.51-5.17,3.22-5,6.29l0.03,0.6l1.52,25.26C847.65,443.73,850.23,446.19,853.41,446.27z M1036.89,393.37
		c1.01,4.08,1.69,8.42,1.95,12.99c0.48,8.72-3.09,21.89-8,29.13c-0.52,0.78-1.06,1.53-1.59,2.29
		c-33.21,45.44-101.18,26.12-104.96-30.84c-0.48-7.45,1.9-17.86,5.6-25.59c0.88-1.78,1.8-3.44,2.77-4.82
		c4.5-6.56,9.69-11.86,15.35-15.97C980.25,337.14,1026.57,352.65,1036.89,393.37z"/>
	<path class="st24" d="M1706.27,703.13l38.16-4.3c3.18-0.33,6.27,1.15,8.01,3.83c2.21,3.43,4.58,6.79,7.1,10.08
		c4.69,6.12,9.72,11.77,15.11,16.87c2.52,2.4,3.36,6.03,2.07,9.24l-14.64,37.37c-1.6,3.97,0.16,8.54,4.06,10.46l32.88,16.28
		c3.73,1.84,8.2,0.57,10.45-2.9l19.88-31.15c1.87-3.07,5.58-4.49,9.16-3.54c15.1,3.99,30.83,5.55,46.55,4.64
		c3.79-0.22,7.32,2.25,8.46,5.87l6.74,21.45c1.32,4.06,5.47,6.58,9.7,5.76l35.71-7.22c0.74-0.14,1.42-0.35,2.06-0.68
		c3.09-1.47,5-4.84,4.57-8.36l-3.18-28.51l-0.79-6.95c5.94-3.34,11.76-7.18,17.32-11.44c7.48-5.74,14.29-12.07,20.32-18.81
		c2.31-2.57,5.93-3.49,9.14-2.2l30.09,11.82c4.12,1.59,8.78-0.19,10.71-4.15l12.46-25.14l3.55-7.21c1.95-3.93,0.64-8.73-3.05-11.07
		l-26.02-16.64c-3.04-1.89-4.54-5.5-3.67-8.91c2.43-10.26,3.78-20.75,3.96-31.25c0.09-0.91,0.08-1.75,0.08-2.65
		c-0.02-0.3,0.02-0.6,0.06-0.89c0.32-3.36,2.66-6.16,5.9-7.17l34.8-11.02c0.4-0.1,0.78-0.29,1.13-0.45
		c3.38-1.65,5.32-5.46,4.59-9.23l-7.15-35.61c-0.87-4.3-4.85-7.21-9.24-6.75l-39.8,4.5c-3.37,0.42-6.61-1.32-8.22-4.31
		c-3.59-6.54-7.74-12.91-12.46-19.06c-2.5-3.26-5.11-6.38-7.82-9.37c-2.19-2.44-2.84-5.9-1.63-8.94l14.06-35.92
		c1.56-3.95-0.17-8.48-4.01-10.39l-32.55-16.06c-3.93-1.95-8.7-0.67-11.1,3.08l-15.74,24.64c-2.11,3.31-6.15,4.72-9.84,3.49
		c-14.46-5.01-29.62-7.7-44.9-8.06c-3.61-0.03-6.82-2.42-7.92-5.92l-9.92-31.37c-1.33-4.21-5.63-6.72-9.95-5.88l-35.48,7.1
		c-4.26,0.84-7.15,4.86-6.64,9.11l0.17,1.67l3.71,33.12c0.4,3.55-1.42,6.9-4.59,8.54l-0.03,0.03c-7.6,3.93-14.97,8.58-22.01,13.99
		c-3.76,2.88-7.29,5.91-10.73,9.08c-2.36,2.23-5.76,2.89-8.77,1.71l-30.55-12c-4.17-1.66-8.93,0.2-10.89,4.18l-16.01,32.41
		c-0.45,0.93-0.7,1.91-0.82,2.85c-0.32,3.1,1.12,6.27,3.84,8.04l20.82,13.23c2.53,1.65,4,4.53,3.89,7.48
		c-0.04,0.77-0.18,1.56-0.43,2.33c-6.33,18.59-8.86,38.22-7.5,57.83c0.28,3.32-1.56,6.43-4.46,7.96c-0.42,0.21-0.86,0.4-1.33,0.54
		l-28.19,8.9c-4.08,1.29-6.54,5.44-5.73,9.68l0.16,0.83l6.93,34.71C1697.8,700.7,1701.84,703.62,1706.27,703.13z M1950.42,594.76
		c2.18,5.46,3.95,11.34,5.18,17.63c2.33,11.99-0.1,30.92-5.52,41.89c-0.57,1.18-1.17,2.33-1.77,3.47
		c-37.34,69.32-135.22,55.53-151.34-22.68c-2.09-10.23-0.79-25.12,2.87-36.53c0.88-2.63,1.84-5.11,2.92-7.21
		c4.99-9.95,11.16-18.28,18.21-25.07C1861.17,527.66,1928.33,540.3,1950.42,594.76z"/>
</g>
</svg>
